<svg id="svg" version="1.1" xmlns="http://www.w3.org/2000/svg" xmlns:xlink="http://www.w3.org/1999/xlink" width="400" height="372.21556886227546" viewBox="0, 0, 400,372.21556886227546"><g id="svgg"><path id="path0" d="M212.386 92.995 C 213.007 93.157,213.041 95.583,213.032 139.039 C 213.027 167.951,213.156 184.956,213.380 185.031 C 213.804 185.173,219.480 179.638,237.907 161.112 C 245.429 153.551,260.885 138.095,272.253 126.765 C 307.715 91.423,305.480 93.731,304.768 93.203 C 304.273 92.836,294.372 92.747,257.936 92.781 C 232.524 92.804,212.026 92.901,212.386 92.995 " stroke="none" fill="#9bbf3b" fill-rule="evenodd"></path><path id="path1" d="M166.116 138.457 C 129.667 174.930,120.656 184.134,121.132 184.400 C 121.475 184.592,141.014 184.693,167.288 184.638 L 212.849 184.544 212.944 138.871 C 213.034 95.125,213.010 93.190,212.367 93.022 C 211.867 92.891,200.037 104.512,166.116 138.457 M165.543 281.378 C 165.543 304.115,165.588 313.362,165.642 301.927 C 165.697 290.491,165.697 271.888,165.642 260.586 C 165.588 249.284,165.543 258.641,165.543 281.378 M369.582 360.708 C 369.584 362.142,369.651 362.682,369.732 361.910 C 369.812 361.137,369.811 359.964,369.729 359.303 C 369.646 358.642,369.581 359.274,369.582 360.708 " stroke="none" fill="#fbc407" fill-rule="evenodd"></path><path id="path2" d="M120.195 0.227 C 120.047 0.375,119.925 0.594,119.925 0.714 C 119.925 0.833,140.791 0.887,166.294 0.832 L 212.663 0.733 212.663 46.735 L 212.663 92.737 258.311 92.737 C 290.312 92.737,304.184 92.858,304.712 93.140 C 305.660 93.648,305.945 93.382,305.448 92.454 C 305.236 92.058,284.507 71.178,259.383 46.053 L 213.703 0.372 167.839 0.367 C 142.613 0.365,121.634 0.271,121.220 0.160 C 120.805 0.048,120.344 0.078,120.195 0.227 M120.106 184.673 C 118.956 185.824,119.903 185.847,166.871 185.847 C 210.047 185.847,216.318 185.721,212.958 184.921 C 212.039 184.702,120.322 184.458,120.106 184.673 " stroke="none" fill="#f3f3f3" fill-rule="evenodd"></path><path id="path3" d="M120.931 1.005 C 120.209 1.193,211.278 92.721,212.197 92.732 C 212.567 92.736,212.663 83.293,212.663 46.741 L 212.663 0.745 167.132 0.788 C 142.090 0.812,121.300 0.910,120.931 1.005 M317.444 356.797 C 317.444 358.333,317.509 358.962,317.590 358.194 C 317.670 357.426,317.670 356.169,317.590 355.400 C 317.509 354.632,317.444 355.261,317.444 356.797 " stroke="none" fill="#0c9cdc" fill-rule="evenodd"></path><path id="path4" d="M144.198 0.279 C 156.831 0.334,177.614 0.334,190.381 0.279 C 203.148 0.225,192.812 0.180,167.412 0.180 C 142.011 0.180,131.565 0.225,144.198 0.279 M122.812 228.935 C 121.880 229.178,121.720 230.230,121.855 235.232 L 121.974 239.665 137.709 239.762 L 153.445 239.859 153.445 281.755 L 153.445 323.650 159.404 323.650 C 163.921 323.650,165.364 323.537,165.366 323.184 C 165.368 322.928,165.367 304.074,165.363 281.285 L 165.357 239.851 181.189 239.851 L 197.020 239.851 197.020 234.490 C 197.020 229.946,196.931 229.096,196.431 228.904 C 195.757 228.645,123.805 228.675,122.812 228.935 M24.674 229.669 C 24.305 229.818,24.209 239.699,24.209 277.322 L 24.209 324.786 30.074 324.684 L 35.940 324.581 36.035 277.304 C 36.110 239.728,36.034 229.966,35.663 229.731 C 35.160 229.412,25.447 229.358,24.674 229.669 M351.840 232.641 C 351.699 232.783,351.583 237.480,351.583 243.079 L 351.583 253.259 346.927 253.259 L 342.272 253.259 342.272 258.473 L 342.272 263.687 346.907 263.687 L 351.542 263.687 351.684 286.872 C 351.787 303.546,351.955 310.526,352.281 311.732 C 352.745 313.443,354.132 316.610,354.565 316.946 C 354.697 317.048,355.099 317.635,355.459 318.250 C 356.132 319.396,358.984 321.788,359.680 321.788 C 359.894 321.788,360.160 322.023,360.270 322.311 C 360.381 322.599,361.027 322.951,361.707 323.093 C 362.386 323.235,363.316 323.587,363.772 323.876 C 365.756 325.132,378.717 325.283,379.500 324.059 C 379.611 323.885,380.289 323.618,381.006 323.466 C 384.830 322.650,385.115 322.176,385.067 316.692 C 385.023 311.762,384.745 311.148,383.053 312.257 C 380.692 313.804,372.302 314.741,370.205 313.692 C 369.693 313.436,369.001 313.225,368.668 313.224 C 367.766 313.220,365.081 310.532,364.337 308.887 C 363.747 307.581,363.677 305.445,363.577 285.568 L 363.468 263.687 374.006 263.681 C 379.802 263.678,384.758 263.539,385.021 263.373 C 385.378 263.146,385.472 261.858,385.393 258.258 L 385.289 253.445 374.401 253.346 L 363.513 253.248 363.414 242.918 L 363.315 232.588 357.706 232.486 C 354.622 232.430,351.982 232.500,351.840 232.641 M93.799 251.949 C 93.700 252.048,92.960 252.228,92.154 252.349 C 91.348 252.471,90.320 252.626,89.869 252.694 C 88.036 252.969,83.162 254.834,82.682 255.443 C 82.579 255.573,82.027 255.942,81.454 256.262 C 80.329 256.891,75.077 261.893,74.494 262.891 C 74.255 263.301,74.134 261.820,74.127 258.380 L 74.115 253.259 68.343 253.259 L 62.570 253.259 62.570 288.454 L 62.570 323.650 68.343 323.650 L 74.115 323.650 74.127 302.886 C 74.138 283.429,74.385 277.205,75.186 276.207 C 75.369 275.978,75.633 275.260,75.772 274.610 C 76.424 271.558,81.101 266.421,84.930 264.552 C 88.270 262.922,95.412 262.400,99.907 263.458 C 101.085 263.735,102.048 263.893,102.048 263.810 C 102.048 263.726,102.409 263.994,102.850 264.405 C 103.290 264.815,103.791 265.064,103.963 264.958 C 104.236 264.789,107.738 268.110,108.907 269.646 C 109.946 271.013,111.102 274.005,111.498 276.352 C 111.734 277.756,112.051 279.028,112.202 279.179 C 112.353 279.330,112.477 289.398,112.477 301.552 L 112.477 323.650 118.063 323.650 L 123.650 323.650 123.650 299.420 C 123.650 274.260,123.502 271.310,122.087 268.156 C 120.792 265.272,119.093 262.112,118.473 261.434 C 118.145 261.076,117.382 260.221,116.777 259.535 C 115.486 258.069,112.693 255.866,112.127 255.866 C 111.909 255.866,111.732 255.711,111.732 255.522 C 111.732 255.333,111.103 254.976,110.335 254.729 C 109.567 254.482,108.755 254.134,108.530 253.957 C 107.866 253.433,102.164 252.120,101.561 252.352 C 101.256 252.469,100.896 252.386,100.761 252.167 C 100.520 251.778,94.169 251.579,93.799 251.949 M222.285 251.955 C 222.183 252.057,221.191 252.231,220.081 252.341 C 217.844 252.563,215.477 253.177,214.339 253.831 C 213.929 254.066,212.882 254.479,212.011 254.749 C 211.141 255.019,210.428 255.368,210.428 255.524 C 210.428 255.680,209.842 256.002,209.125 256.238 C 208.408 256.475,207.821 256.796,207.821 256.952 C 207.821 257.108,207.360 257.446,206.797 257.702 C 205.691 258.206,205.504 258.359,202.980 260.820 C 200.746 262.999,198.955 265.117,198.198 266.474 C 197.858 267.084,197.381 267.798,197.138 268.059 C 196.895 268.320,196.591 268.867,196.461 269.276 C 196.331 269.684,196.092 270.019,195.929 270.019 C 195.766 270.019,195.333 270.982,194.966 272.160 C 194.599 273.338,194.179 274.385,194.032 274.488 C 193.784 274.661,193.006 277.564,192.136 281.564 C 191.664 283.734,191.664 293.547,192.136 295.717 C 192.981 299.601,193.781 302.619,194.011 302.793 C 194.147 302.896,194.495 303.714,194.784 304.612 C 195.073 305.509,195.492 306.431,195.715 306.660 C 195.938 306.889,196.344 307.621,196.616 308.287 C 196.888 308.953,197.238 309.497,197.393 309.497 C 197.548 309.497,197.883 310.000,198.138 310.615 C 198.392 311.229,198.713 311.732,198.851 311.732 C 198.989 311.732,199.752 312.584,200.547 313.626 C 201.341 314.668,202.926 316.262,204.068 317.167 C 205.211 318.073,206.390 319.022,206.690 319.277 C 207.957 320.352,213.449 323.110,215.084 323.492 C 215.698 323.635,216.369 323.880,216.574 324.035 C 218.698 325.645,235.093 325.473,238.286 323.807 C 238.840 323.518,239.544 323.281,239.851 323.279 C 241.848 323.270,249.449 318.484,253.107 314.932 C 256.498 311.640,256.560 311.865,250.838 306.750 C 249.025 305.129,248.861 305.117,247.265 306.501 C 246.215 307.411,244.456 308.834,242.272 310.538 C 241.246 311.339,238.279 312.791,236.742 313.245 C 235.789 313.526,235.009 313.860,235.009 313.986 C 235.009 314.112,234.800 314.228,234.544 314.244 C 234.288 314.260,233.240 314.412,232.216 314.583 C 228.672 315.172,220.261 314.771,219.739 313.988 C 219.637 313.834,218.589 313.409,217.412 313.042 C 216.234 312.675,215.270 312.226,215.270 312.044 C 215.270 311.862,214.851 311.554,214.339 311.359 C 213.827 311.165,213.408 310.834,213.408 310.624 C 213.408 310.414,213.198 310.240,212.942 310.237 C 212.284 310.230,208.349 306.129,208.034 305.121 C 207.889 304.660,207.635 304.283,207.469 304.283 C 207.303 304.283,206.946 303.738,206.677 303.073 C 206.408 302.407,206.057 301.771,205.897 301.660 C 205.737 301.549,205.309 300.292,204.945 298.867 C 204.581 297.442,204.179 296.192,204.052 296.089 C 203.925 295.987,203.749 295.275,203.661 294.507 L 203.502 293.110 230.801 293.110 L 258.101 293.110 258.171 291.527 C 258.296 288.735,258.017 282.502,257.758 282.309 C 257.621 282.207,257.297 280.619,257.037 278.782 C 256.778 276.944,256.431 275.268,256.267 275.058 C 256.103 274.847,255.851 274.171,255.708 273.557 C 255.449 272.445,253.321 267.767,252.913 267.412 C 252.795 267.309,252.453 266.723,252.152 266.108 C 250.846 263.443,244.460 257.210,242.028 256.227 C 241.343 255.950,240.648 255.504,240.484 255.236 C 240.320 254.968,239.901 254.748,239.553 254.746 C 239.205 254.745,238.475 254.512,237.932 254.228 C 235.964 253.202,232.683 252.418,230.106 252.359 C 229.356 252.342,228.615 252.202,228.461 252.048 C 228.153 251.741,222.583 251.657,222.285 251.955 M266.294 253.760 C 266.294 254.582,267.388 256.522,267.979 256.749 C 268.282 256.865,268.529 257.208,268.529 257.512 C 268.529 257.815,268.738 258.198,268.994 258.361 C 269.662 258.789,271.881 261.710,271.881 262.162 C 271.881 262.372,272.216 262.723,272.626 262.942 C 273.035 263.162,273.371 263.577,273.371 263.865 C 273.371 264.154,273.664 264.609,274.022 264.876 C 274.381 265.144,275.248 266.201,275.950 267.225 C 276.651 268.250,277.489 269.374,277.812 269.725 C 278.472 270.441,278.830 270.912,281.721 274.860 C 283.709 277.576,285.081 279.354,285.852 280.213 C 286.060 280.444,286.547 281.136,286.935 281.750 C 287.323 282.365,287.866 283.002,288.141 283.166 C 288.416 283.329,288.641 283.701,288.641 283.991 C 288.641 284.280,288.976 284.697,289.385 284.916 C 289.795 285.135,290.130 285.508,290.130 285.743 C 290.130 285.979,290.483 286.547,290.915 287.007 L 291.699 287.842 290.635 289.265 C 290.050 290.048,289.404 290.871,289.199 291.093 C 288.994 291.315,288.492 291.961,288.082 292.529 C 287.313 293.593,284.997 296.599,282.170 300.202 C 281.278 301.338,280.317 302.677,280.033 303.177 C 279.748 303.678,279.223 304.309,278.864 304.579 C 278.506 304.849,278.212 305.272,278.212 305.518 C 278.212 305.764,277.877 306.175,277.467 306.431 C 277.058 306.687,276.723 307.109,276.723 307.369 C 276.723 307.629,276.429 308.107,276.071 308.430 C 275.233 309.186,274.337 310.294,273.497 311.614 C 273.130 312.191,272.616 312.797,272.355 312.961 C 272.094 313.125,271.881 313.441,271.881 313.663 C 271.881 313.885,271.504 314.460,271.043 314.939 C 269.652 316.386,268.980 317.221,268.529 318.063 C 268.078 318.905,267.406 319.741,266.015 321.188 C 263.920 323.366,264.530 323.650,271.307 323.650 C 275.755 323.650,277.546 323.522,277.830 323.184 C 278.227 322.712,279.503 321.048,281.192 318.802 C 281.704 318.121,284.028 315.120,286.357 312.134 C 288.686 309.147,290.675 306.411,290.777 306.052 C 290.879 305.694,291.088 305.400,291.241 305.400 C 291.395 305.400,292.130 304.604,292.875 303.631 C 293.621 302.658,294.487 301.527,294.800 301.117 C 295.114 300.708,295.865 299.702,296.470 298.883 C 298.681 295.889,298.143 295.666,302.508 301.388 C 302.863 301.854,303.618 302.836,304.184 303.571 C 304.751 304.306,305.549 305.365,305.959 305.924 C 306.369 306.484,308.296 309.019,310.242 311.558 C 312.188 314.097,314.199 316.783,314.711 317.527 C 315.223 318.271,316.020 319.229,316.480 319.656 C 316.941 320.083,317.318 320.645,317.318 320.905 C 317.318 321.165,317.545 321.512,317.823 321.676 C 318.100 321.840,318.525 322.351,318.767 322.812 C 319.198 323.632,319.345 323.650,325.711 323.650 C 333.655 323.650,333.538 323.768,329.833 319.488 C 329.536 319.145,329.100 318.504,328.864 318.063 C 328.628 317.623,328.155 316.950,327.812 316.569 C 327.469 316.188,326.853 315.433,326.443 314.891 C 326.034 314.348,325.407 313.542,325.050 313.098 C 324.099 311.914,322.454 309.766,321.601 308.595 C 319.716 306.004,316.449 301.733,314.419 299.205 C 314.068 298.768,313.445 297.938,313.035 297.360 C 312.626 296.783,311.830 295.778,311.266 295.127 C 310.703 294.475,310.242 293.839,310.242 293.712 C 310.242 293.586,309.907 293.105,309.497 292.644 C 307.413 290.299,305.773 288.013,305.773 287.451 C 305.773 287.180,306.108 286.748,306.518 286.492 C 306.927 286.237,307.263 285.786,307.263 285.490 C 307.263 285.195,307.473 284.819,307.731 284.655 C 307.988 284.492,308.784 283.558,309.500 282.582 C 310.215 281.605,311.136 280.406,311.546 279.918 C 311.955 279.429,312.586 278.636,312.947 278.155 C 313.308 277.674,314.440 276.251,315.461 274.992 C 316.483 273.733,317.318 272.579,317.318 272.428 C 317.318 272.276,317.696 271.777,318.156 271.318 C 318.617 270.859,319.413 269.873,319.926 269.125 C 320.438 268.378,321.192 267.365,321.601 266.875 C 322.365 265.961,323.340 264.727,324.482 263.230 C 324.837 262.765,325.592 261.782,326.158 261.047 C 326.725 260.312,327.523 259.239,327.933 258.663 C 328.343 258.086,329.013 257.265,329.423 256.838 C 329.832 256.411,330.377 255.664,330.633 255.177 C 331.628 253.283,331.557 253.259,325.036 253.259 L 318.974 253.259 318.053 254.370 C 317.547 254.982,316.842 255.862,316.486 256.326 C 316.131 256.790,315.377 257.771,314.810 258.506 C 314.244 259.241,313.445 260.318,313.035 260.900 C 312.626 261.482,311.913 262.355,311.453 262.840 C 310.992 263.324,310.615 263.815,310.615 263.930 C 310.615 264.044,310.237 264.593,309.777 265.150 C 309.316 265.706,308.520 266.724,308.007 267.411 C 307.495 268.098,306.196 269.806,305.121 271.207 C 304.046 272.608,303.166 273.836,303.166 273.935 C 303.166 274.034,302.872 274.427,302.514 274.807 C 302.155 275.187,301.443 276.038,300.931 276.697 C 298.608 279.690,299.038 279.742,296.276 276.134 C 295.866 275.599,295.154 274.733,294.693 274.211 C 294.232 273.689,293.855 273.127,293.855 272.963 C 293.855 272.799,293.478 272.235,293.017 271.710 C 292.556 271.185,291.844 270.315,291.434 269.775 C 291.024 269.236,290.312 268.392,289.851 267.900 C 289.390 267.408,289.013 266.877,289.013 266.720 C 289.013 266.563,288.717 266.110,288.356 265.713 C 287.994 265.316,287.058 264.111,286.276 263.035 C 285.493 261.960,284.699 261.080,284.512 261.080 C 284.325 261.080,284.171 260.916,284.171 260.715 C 284.171 260.514,282.966 258.755,281.493 256.805 L 278.815 253.259 272.554 253.259 C 267.556 253.259,266.294 253.360,266.294 253.760 M230.540 262.731 C 234.901 263.730,238.454 266.008,240.788 269.299 C 242.152 271.223,243.575 273.704,243.575 274.158 C 243.575 274.453,243.818 275.041,244.114 275.463 C 244.410 275.886,244.844 277.055,245.078 278.060 C 245.312 279.066,245.600 280.140,245.718 280.447 C 245.836 280.754,245.961 281.425,245.996 281.937 C 246.032 282.449,246.190 283.161,246.348 283.520 C 246.619 284.136,245.466 284.171,225.003 284.171 L 203.371 284.171 203.589 282.961 C 203.710 282.295,204.024 281.080,204.287 280.261 C 204.551 279.441,204.964 278.034,205.205 277.134 C 206.090 273.834,212.503 265.177,214.062 265.177 C 214.239 265.177,214.751 264.835,215.200 264.418 C 215.648 264.000,216.015 263.751,216.015 263.864 C 216.015 263.977,216.577 263.835,217.263 263.548 C 217.950 263.261,219.249 262.905,220.150 262.756 C 221.051 262.608,222.039 262.335,222.346 262.152 C 223.130 261.683,227.227 261.973,230.540 262.731 M308.083 348.698 C 307.657 349.212,307.444 363.315,307.847 364.366 C 308.015 364.803,308.524 364.991,309.537 364.991 L 310.987 364.991 310.987 356.611 L 310.987 348.231 309.729 348.231 C 309.037 348.231,308.297 348.441,308.083 348.698 M27.436 348.852 C 27.300 348.988,27.188 352.693,27.188 357.085 L 27.188 365.069 31.671 364.937 C 34.253 364.861,36.266 364.638,36.420 364.411 C 36.566 364.194,37.218 363.802,37.869 363.539 C 44.126 361.009,41.297 349.348,34.426 349.348 C 33.723 349.348,33.147 349.181,33.147 348.976 C 33.147 348.563,27.840 348.448,27.436 348.852 M150.168 349.050 C 149.849 349.369,149.721 351.715,149.721 357.244 L 149.721 364.991 151.397 364.991 L 153.073 364.991 153.073 362.423 L 153.073 359.855 155.959 359.719 C 160.439 359.506,162.299 357.686,161.932 353.870 C 161.665 351.090,159.865 349.348,157.258 349.348 C 156.824 349.348,156.365 349.181,156.238 348.976 C 155.908 348.441,150.713 348.505,150.168 349.050 M237.138 348.834 C 236.039 349.932,236.900 351.583,238.570 351.583 L 240.268 351.583 240.153 350.186 C 240.039 348.807,238.054 347.917,237.138 348.834 M283.054 348.971 C 283.054 349.096,282.486 349.404,281.792 349.655 C 279.361 350.534,278.667 356.797,281.000 356.797 C 281.290 356.797,281.661 357.030,281.825 357.314 C 281.989 357.598,283.102 358.032,284.298 358.278 C 287.197 358.875,288.326 360.065,287.398 361.546 C 286.849 362.423,283.317 362.119,281.756 361.060 C 280.373 360.121,280.345 360.118,279.682 360.830 C 276.832 363.888,286.028 366.858,289.355 363.954 C 291.835 361.789,291.101 357.057,288.159 356.235 C 287.707 356.109,287.002 355.873,286.592 355.711 C 286.182 355.549,285.093 355.183,284.171 354.896 C 282.945 354.516,282.465 354.161,282.381 353.574 C 282.125 351.780,285.469 350.924,287.252 352.328 C 288.593 353.382,289.990 353.310,290.276 352.171 C 290.603 350.869,290.236 350.220,288.893 349.724 C 288.242 349.483,287.407 349.125,287.037 348.929 C 286.324 348.550,283.054 348.584,283.054 348.971 M338.250 349.050 C 337.058 350.241,337.710 351.583,339.479 351.583 C 341.227 351.583,341.606 350.958,340.928 349.192 C 340.661 348.496,338.897 348.403,338.250 349.050 M133.333 351.167 C 133.333 352.300,133.172 352.655,132.588 352.808 C 132.046 352.950,131.844 353.316,131.844 354.155 C 131.844 355.059,132.004 355.307,132.588 355.307 C 133.277 355.307,133.333 355.556,133.333 358.602 C 133.333 363.775,134.121 364.976,137.523 364.985 L 139.665 364.991 139.665 363.472 C 139.665 361.985,139.640 361.956,138.449 362.059 C 136.498 362.227,136.313 361.914,136.313 358.451 L 136.313 355.307 137.989 355.307 C 139.656 355.307,139.665 355.300,139.665 354.004 C 139.665 352.707,139.656 352.700,137.989 352.700 L 136.313 352.700 136.313 351.210 L 136.313 349.721 134.823 349.721 C 133.341 349.721,133.333 349.728,133.333 351.167 M328.864 351.167 C 328.864 352.300,328.703 352.655,328.119 352.808 C 327.577 352.950,327.374 353.316,327.374 354.155 C 327.374 355.059,327.535 355.307,328.119 355.307 C 328.808 355.307,328.864 355.556,328.864 358.635 C 328.864 363.926,329.555 364.991,332.987 364.991 L 335.196 364.991 335.196 363.489 C 335.196 362.023,335.167 361.990,333.971 362.070 C 332.017 362.202,331.844 361.907,331.844 358.451 L 331.844 355.307 333.498 355.307 C 335.342 355.307,335.746 354.949,335.410 353.610 C 335.210 352.815,334.972 352.700,333.512 352.700 L 331.844 352.700 331.844 351.210 L 331.844 349.721 330.354 349.721 C 328.872 349.721,328.864 349.728,328.864 351.167 M35.731 352.872 C 40.032 355.587,38.201 361.610,32.972 361.943 L 30.540 362.098 30.540 356.792 L 30.540 351.487 32.437 351.739 C 33.481 351.877,34.963 352.387,35.731 352.872 M158.160 352.634 C 159.880 354.896,158.397 356.797,154.911 356.797 L 153.073 356.797 153.073 354.142 L 153.073 351.487 155.379 351.748 C 156.860 351.915,157.855 352.232,158.160 352.634 M47.074 353.064 C 45.940 353.523,44.466 354.988,44.161 355.959 C 44.016 356.420,43.741 356.797,43.550 356.797 C 42.216 356.797,43.627 362.062,45.449 363.885 C 46.579 365.015,51.596 365.479,52.544 364.541 C 52.835 364.253,53.370 363.905,53.733 363.768 C 54.096 363.630,54.506 363.221,54.643 362.858 C 54.781 362.494,55.112 361.976,55.380 361.705 C 55.667 361.415,55.866 360.332,55.866 359.061 C 55.866 354.514,51.260 351.373,47.074 353.064 M61.453 352.962 C 60.718 353.230,58.845 354.983,58.845 355.404 C 58.845 355.585,58.594 355.984,58.287 356.292 C 57.917 356.661,57.728 357.589,57.728 359.032 C 57.728 360.474,57.917 361.402,58.287 361.772 C 58.594 362.079,58.845 362.495,58.845 362.696 C 58.845 365.084,65.782 365.879,67.901 363.735 C 69.013 362.610,69.007 361.921,67.881 361.318 C 67.198 360.953,64.792 361.768,64.494 362.465 C 64.322 362.868,63.315 362.832,63.315 362.424 C 63.315 362.241,62.890 361.985,62.370 361.855 C 60.477 361.380,60.121 358.149,61.772 356.421 C 63.013 355.123,64.124 355.011,65.448 356.052 C 66.653 357.000,67.489 356.995,68.357 356.036 C 70.008 354.212,64.616 351.811,61.453 352.962 M71.136 357.677 L 71.136 362.699 72.276 363.839 C 73.414 364.977,73.424 364.979,77.490 364.947 L 81.564 364.914 81.564 358.807 L 81.564 352.700 80.293 352.700 C 78.826 352.700,78.407 353.950,78.639 357.642 C 78.855 361.073,77.961 362.288,75.419 362.018 C 74.311 361.900,74.316 361.920,74.115 357.233 L 73.929 352.886 72.533 352.771 L 71.136 352.655 71.136 357.677 M84.998 353.022 C 84.639 353.244,84.549 354.718,84.627 359.060 L 84.730 364.804 86.313 364.919 L 87.896 365.034 87.896 361.156 C 87.896 357.209,88.625 355.307,90.139 355.307 C 90.669 355.307,91.620 356.247,91.620 356.770 C 91.620 356.990,91.788 357.169,91.993 357.169 C 92.217 357.169,92.365 358.729,92.365 361.103 L 92.365 365.036 93.762 364.920 L 95.158 364.804 95.220 361.701 C 95.254 359.994,95.380 358.500,95.499 358.380 C 95.619 358.261,95.717 357.798,95.717 357.351 C 95.717 356.477,96.775 355.307,97.565 355.307 C 98.945 355.307,99.441 356.801,99.441 360.951 L 99.441 364.991 101.147 364.991 L 102.852 364.991 102.730 360.214 C 102.628 356.271,102.493 355.325,101.955 354.787 C 101.597 354.430,101.304 353.988,101.304 353.806 C 101.304 352.559,95.351 352.506,94.606 353.746 C 94.257 354.327,94.183 354.318,93.653 353.631 C 93.042 352.840,86.086 352.350,84.998 353.022 M108.566 353.144 C 107.413 353.795,105.773 355.610,105.773 356.235 C 105.773 356.544,105.605 356.797,105.400 356.797 C 105.193 356.797,105.028 357.790,105.028 359.032 C 105.028 360.273,105.193 361.266,105.400 361.266 C 105.605 361.266,105.773 361.532,105.773 361.856 C 105.773 365.484,115.702 366.216,116.133 362.619 C 116.295 361.265,115.363 360.992,113.200 361.760 C 110.947 362.561,110.548 362.545,109.361 361.612 C 107.754 360.348,108.174 360.149,112.455 360.149 C 117.109 360.149,116.971 360.234,116.556 357.626 C 115.934 353.719,111.726 351.358,108.566 353.144 M119.181 358.845 L 119.181 364.991 120.484 364.991 L 121.788 364.991 121.788 361.626 C 121.788 354.159,126.524 352.443,126.893 359.777 C 127.146 364.799,127.214 364.991,128.739 364.991 L 130.069 364.991 129.917 360.108 C 129.791 356.047,129.658 355.147,129.128 354.760 C 128.778 354.504,128.492 354.119,128.492 353.906 C 128.492 352.908,124.290 352.331,122.805 353.126 C 122.208 353.446,121.974 353.446,121.868 353.126 C 121.790 352.892,121.153 352.700,120.453 352.700 L 119.181 352.700 119.181 358.845 M164.246 358.845 L 164.246 364.991 165.696 364.991 C 167.455 364.991,167.596 364.706,167.603 361.143 C 167.610 357.742,168.106 356.750,170.120 356.110 C 171.617 355.634,171.695 355.537,171.695 354.155 C 171.695 352.523,170.616 352.189,168.483 353.161 C 167.678 353.528,167.439 353.528,167.317 353.161 C 167.230 352.899,166.533 352.700,165.705 352.700 L 164.246 352.700 164.246 358.845 M177.095 353.017 C 176.206 353.306,174.302 354.931,174.302 355.401 C 174.302 355.584,174.050 355.984,173.743 356.292 C 173.374 356.661,173.184 357.589,173.184 359.032 C 173.184 360.474,173.374 361.402,173.743 361.772 C 174.050 362.079,174.302 362.486,174.302 362.675 C 174.302 366.085,183.737 365.537,185.049 362.051 C 187.269 356.150,182.860 351.142,177.095 353.017 M190.875 353.122 C 187.199 355.302,186.516 360.881,189.561 363.866 C 191.788 366.049,198.510 364.905,198.510 362.343 C 198.510 360.882,195.438 360.975,194.388 362.466 C 194.096 362.882,191.759 361.706,190.977 360.749 C 188.956 358.279,192.800 353.641,195.025 355.865 C 196.354 357.195,198.510 356.837,198.510 355.287 C 198.510 353.483,192.934 351.902,190.875 353.122 M203.393 353.353 C 201.158 354.506,198.878 361.639,200.745 361.639 C 200.950 361.639,201.117 361.869,201.117 362.150 C 201.117 364.795,208.162 366.048,210.521 363.823 C 212.610 361.853,210.141 360.197,207.821 362.011 C 206.592 362.973,206.152 362.941,204.631 361.781 C 202.699 360.307,202.990 360.149,207.635 360.149 L 211.918 360.149 211.916 359.125 C 211.906 354.189,207.524 351.222,203.393 353.353 M216.015 353.105 C 212.262 354.497,213.502 359.099,217.915 360.158 C 219.251 360.479,219.739 360.773,219.739 361.258 C 219.739 362.161,218.750 362.941,218.156 362.507 C 217.038 361.689,214.924 361.226,214.165 361.632 C 213.236 362.129,213.172 363.435,214.060 363.771 C 214.418 363.907,214.933 364.237,215.204 364.504 C 217.261 366.537,223.091 364.305,223.091 361.484 C 223.091 359.632,219.456 356.460,218.466 357.449 C 218.347 357.569,218.250 357.490,218.250 357.275 C 218.250 357.060,217.914 356.796,217.503 356.689 C 217.005 356.558,216.832 356.296,216.984 355.900 C 217.290 355.103,219.578 355.096,219.884 355.891 C 220.367 357.151,222.148 356.387,222.274 354.865 C 222.431 352.977,218.976 352.005,216.015 353.105 M227.374 353.052 C 223.494 354.641,224.724 359.133,229.330 360.191 C 231.427 360.673,231.892 361.453,230.573 362.276 C 229.996 362.637,229.570 362.580,228.311 361.971 C 226.349 361.023,225.182 361.155,225.014 362.343 C 224.629 365.061,231.248 366.182,233.499 363.780 C 235.506 361.638,234.518 358.685,231.524 357.878 C 229.546 357.346,228.303 356.492,228.554 355.838 C 228.823 355.136,230.168 355.163,231.208 355.891 C 232.610 356.873,233.687 356.460,233.818 354.891 C 233.968 353.097,230.019 351.970,227.374 353.052 M237.279 353.216 C 236.988 353.567,236.884 355.503,236.954 359.268 L 237.058 364.804 238.641 364.919 L 240.223 365.034 240.223 359.093 C 240.223 354.019,240.137 353.119,239.634 352.926 C 238.664 352.554,237.734 352.668,237.279 353.216 M243.779 352.993 C 243.667 353.105,243.575 355.850,243.575 359.094 L 243.575 364.991 245.251 364.991 L 246.927 364.991 246.927 360.961 C 246.927 357.124,246.972 356.893,247.861 356.119 C 250.235 354.056,251.534 355.702,251.715 361.004 L 251.853 365.031 253.208 364.918 L 254.562 364.804 254.668 360.810 C 254.793 356.100,254.101 354.127,252.026 353.270 C 250.870 352.792,244.204 352.568,243.779 352.993 M260.149 353.053 C 256.169 354.689,255.972 361.402,259.845 363.444 C 260.872 363.986,264.240 364.003,265.233 363.471 C 266.377 362.859,266.531 363.388,265.521 364.462 C 264.590 365.453,262.433 365.576,259.511 364.804 C 258.812 364.619,258.325 364.713,257.928 365.110 C 257.299 365.739,257.154 366.853,257.702 366.853 C 257.892 366.853,258.327 367.133,258.670 367.475 C 259.895 368.700,264.891 368.642,266.709 367.382 C 268.777 365.949,268.901 365.451,268.901 358.635 L 268.901 352.700 267.598 352.700 C 266.711 352.700,266.294 352.872,266.294 353.237 C 266.294 353.703,266.161 353.704,265.270 353.239 C 264.163 352.661,261.351 352.559,260.149 353.053 M295.834 353.687 C 293.979 354.889,293.110 356.596,293.110 359.032 C 293.110 360.773,294.045 363.501,294.642 363.501 C 294.794 363.501,295.212 363.794,295.571 364.153 C 296.987 365.569,301.608 365.291,303.447 363.680 C 309.381 358.478,302.458 349.392,295.834 353.687 M314.587 352.948 C 314.451 353.085,314.339 355.087,314.339 357.396 C 314.339 364.134,315.111 364.985,321.200 364.960 L 325.158 364.944 325.056 358.915 L 324.953 352.886 323.557 352.771 L 322.160 352.655 322.160 356.979 L 322.160 361.302 320.976 361.800 C 318.124 362.999,317.318 361.598,317.318 355.442 L 317.318 352.700 316.077 352.700 C 315.394 352.700,314.724 352.812,314.587 352.948 M338.039 352.992 C 337.940 353.152,337.888 355.876,337.924 359.044 L 337.989 364.804 339.385 364.920 L 340.782 365.036 340.782 358.868 L 340.782 352.700 339.501 352.700 C 338.796 352.700,338.138 352.831,338.039 352.992 M347.846 353.006 C 345.280 354.143,344.134 356.035,344.134 359.134 L 344.134 361.744 345.843 363.405 L 347.553 365.067 350.418 364.935 C 353.504 364.794,356.052 363.150,356.052 361.301 C 356.052 360.896,356.220 360.462,356.425 360.335 C 356.882 360.052,356.924 357.542,356.471 357.542 C 356.292 357.542,356.052 357.076,355.938 356.507 C 355.380 353.716,350.756 351.716,347.846 353.006 M359.115 353.013 C 358.755 353.242,358.664 354.714,358.742 359.060 L 358.845 364.804 360.428 364.919 L 362.011 365.034 362.011 361.152 C 362.011 357.789,362.114 357.139,362.783 356.289 C 364.849 353.663,366.853 356.315,366.853 361.674 L 366.853 364.991 368.156 364.991 C 368.931 364.991,369.476 364.802,369.498 364.525 C 370.271 355.124,367.551 350.506,362.754 353.074 C 362.288 353.323,361.980 353.323,361.826 353.074 C 361.550 352.627,359.785 352.588,359.115 353.013 M374.674 352.971 C 370.775 354.449,371.732 359.086,376.156 360.147 C 377.585 360.490,378.902 361.497,378.314 361.797 C 378.258 361.826,377.946 362.051,377.621 362.298 C 377.148 362.657,376.724 362.599,375.497 362.007 C 372.464 360.541,370.627 361.898,372.844 363.966 C 373.952 365.001,378.582 365.499,379.724 364.706 C 382.677 362.655,381.857 359.317,377.998 357.678 C 376.682 357.119,375.559 356.633,375.503 356.597 C 375.447 356.561,375.507 356.256,375.636 355.919 C 375.926 355.165,377.221 355.144,378.190 355.878 C 379.806 357.100,381.596 355.893,380.891 354.057 C 380.540 353.142,376.215 352.387,374.674 352.971 M50.652 355.655 C 50.652 355.846,50.977 356.105,51.374 356.231 C 53.518 356.912,53.060 361.350,50.781 361.979 C 47.211 362.965,45.041 359.235,47.548 356.421 C 48.505 355.347,50.652 354.817,50.652 355.655 M112.406 356.067 C 113.799 357.364,113.448 357.728,110.801 357.728 C 108.029 357.728,108.119 357.804,109.218 356.411 C 110.216 355.145,111.293 355.029,112.406 356.067 M180.837 355.911 C 183.434 357.613,183.221 361.096,180.465 362.005 C 177.201 363.082,174.950 358.671,177.538 356.270 C 178.741 355.155,179.548 355.067,180.837 355.911 M207.704 356.117 C 209.107 357.435,208.790 357.728,205.960 357.728 C 203.050 357.728,202.916 357.604,204.372 356.253 C 205.623 355.094,206.574 355.055,207.704 356.117 M264.991 356.145 C 266.601 357.188,266.770 358.853,265.414 360.316 C 263.606 362.267,259.945 360.975,259.975 358.397 C 259.987 357.264,260.724 356.052,261.400 356.052 C 261.634 356.052,261.825 355.885,261.825 355.680 C 261.825 355.015,263.664 355.286,264.991 356.145 M300.929 356.110 C 303.035 357.666,302.866 360.855,300.621 361.937 C 297.295 363.540,294.802 359.129,297.463 356.352 C 298.664 355.098,299.484 355.041,300.929 356.110 M352.301 356.696 C 354.709 359.618,352.417 363.155,348.908 361.932 C 346.813 361.201,346.382 358.097,348.138 356.386 C 349.642 354.920,350.915 355.015,352.301 356.696 " stroke="none" fill="#747474" fill-rule="evenodd"></path></g></svg>