<svg id="svg" version="1.1" xmlns="http://www.w3.org/2000/svg" xmlns:xlink="http://www.w3.org/1999/xlink" width="400" height="400.9478672985782" viewBox="0, 0, 400,400.9478672985782"><g id="svgg"><path id="path0" d="M1.300 2.012 C 0.284 2.421,0.087 3.200,1.000 3.200 C 1.330 3.200,1.600 3.388,1.600 3.618 C 1.600 4.161,3.439 6.000,3.982 6.000 C 4.212 6.000,4.400 6.189,4.400 6.419 C 4.400 6.650,5.291 7.730,6.381 8.819 C 7.470 9.909,8.550 10.800,8.781 10.800 C 9.011 10.800,9.200 10.988,9.200 11.218 C 9.200 11.761,11.039 13.600,11.582 13.600 C 11.812 13.600,12.000 13.788,12.000 14.018 C 12.000 14.561,13.839 16.400,14.382 16.400 C 14.612 16.400,14.800 16.589,14.800 16.819 C 14.800 17.365,18.635 21.200,19.181 21.200 C 19.411 21.200,19.600 21.388,19.600 21.618 C 19.600 22.161,21.439 24.000,21.982 24.000 C 22.212 24.000,22.400 24.189,22.400 24.419 C 22.400 24.650,23.291 25.730,24.381 26.819 C 25.470 27.909,26.550 28.800,26.781 28.800 C 27.011 28.800,27.200 28.988,27.200 29.218 C 27.200 29.761,29.039 31.600,29.582 31.600 C 29.812 31.600,30.000 31.788,30.000 32.018 C 30.000 32.561,31.839 34.400,32.382 34.400 C 32.612 34.400,32.800 34.593,32.800 34.829 C 32.800 35.382,33.818 36.400,34.371 36.400 C 34.607 36.400,34.800 36.588,34.800 36.818 C 34.800 37.361,36.639 39.200,37.182 39.200 C 37.412 39.200,37.600 39.388,37.600 39.618 C 37.600 39.848,38.042 40.478,38.582 41.018 C 39.122 41.558,39.752 42.000,39.982 42.000 C 40.212 42.000,40.400 42.189,40.400 42.419 C 40.400 42.650,41.291 43.730,42.381 44.819 C 43.470 45.909,44.550 46.800,44.781 46.800 C 45.011 46.800,45.200 46.988,45.200 47.218 C 45.200 47.448,45.642 48.078,46.182 48.618 C 46.722 49.158,47.352 49.600,47.582 49.600 C 47.812 49.600,48.000 49.788,48.000 50.018 C 48.000 50.561,49.839 52.400,50.382 52.400 C 50.612 52.400,50.800 52.593,50.800 52.829 C 50.800 53.382,51.818 54.400,52.371 54.400 C 52.607 54.400,52.800 54.588,52.800 54.818 C 52.800 55.361,54.639 57.200,55.182 57.200 C 55.412 57.200,55.600 57.388,55.600 57.618 C 55.600 57.848,56.042 58.478,56.582 59.018 C 57.122 59.558,57.752 60.000,57.982 60.000 C 58.212 60.000,58.400 60.189,58.400 60.419 C 58.400 60.965,62.235 64.800,62.781 64.800 C 63.011 64.800,63.200 64.988,63.200 65.218 C 63.200 65.448,63.642 66.078,64.182 66.618 C 64.722 67.158,65.352 67.600,65.582 67.600 C 65.812 67.600,66.000 67.788,66.000 68.018 C 66.000 68.248,66.442 68.878,66.982 69.418 C 67.522 69.958,68.152 70.400,68.382 70.400 C 68.612 70.400,68.800 70.593,68.800 70.829 C 68.800 71.064,69.057 71.514,69.371 71.829 C 69.686 72.143,70.136 72.400,70.371 72.400 C 70.607 72.400,70.800 72.588,70.800 72.818 C 70.800 73.048,71.242 73.678,71.782 74.218 C 72.322 74.758,72.952 75.200,73.182 75.200 C 73.412 75.200,73.600 75.388,73.600 75.618 C 73.600 75.848,74.042 76.478,74.582 77.018 C 75.122 77.558,75.752 78.000,75.982 78.000 C 76.212 78.000,76.400 78.193,76.400 78.429 C 76.400 78.982,77.418 80.000,77.971 80.000 C 78.207 80.000,78.400 80.188,78.400 80.418 C 78.400 80.648,78.842 81.278,79.382 81.818 C 79.922 82.358,80.552 82.800,80.782 82.800 C 81.012 82.800,81.200 82.988,81.200 83.218 C 81.200 83.448,81.642 84.078,82.182 84.618 C 82.722 85.158,83.352 85.600,83.582 85.600 C 83.812 85.600,84.000 85.788,84.000 86.018 C 84.000 86.248,84.442 86.878,84.982 87.418 C 85.522 87.958,86.152 88.400,86.382 88.400 C 86.612 88.400,86.800 88.593,86.800 88.829 C 86.800 89.064,87.057 89.514,87.371 89.829 C 87.686 90.143,88.136 90.400,88.371 90.400 C 88.607 90.400,88.800 90.588,88.800 90.818 C 88.800 91.048,89.242 91.678,89.782 92.218 C 90.322 92.758,90.952 93.200,91.182 93.200 C 91.412 93.200,91.600 93.388,91.600 93.618 C 91.600 93.848,92.042 94.478,92.582 95.018 C 93.122 95.558,93.752 96.000,93.982 96.000 C 94.212 96.000,94.400 96.193,94.400 96.429 C 94.400 96.664,94.657 97.114,94.971 97.429 C 95.286 97.743,95.736 98.000,95.971 98.000 C 96.207 98.000,96.400 98.188,96.400 98.418 C 96.400 98.648,96.842 99.278,97.382 99.818 C 97.922 100.358,98.552 100.800,98.782 100.800 C 99.012 100.800,99.200 100.988,99.200 101.218 C 99.200 101.761,101.039 103.600,101.582 103.600 C 101.812 103.600,102.000 103.804,102.000 104.053 C 102.000 104.532,103.989 106.399,104.500 106.400 C 104.665 106.400,104.800 106.593,104.800 106.829 C 104.800 107.064,105.057 107.514,105.371 107.829 C 105.686 108.143,106.136 108.400,106.371 108.400 C 106.607 108.400,106.800 108.588,106.800 108.818 C 106.800 109.048,107.242 109.678,107.782 110.218 C 108.322 110.758,108.952 111.200,109.182 111.200 C 109.412 111.200,109.600 111.388,109.600 111.618 C 109.600 111.848,110.042 112.478,110.582 113.018 C 111.122 113.558,111.752 114.000,111.982 114.000 C 112.212 114.000,112.400 114.193,112.400 114.429 C 112.400 114.664,112.657 115.114,112.971 115.429 C 113.286 115.743,113.736 116.000,113.971 116.000 C 114.207 116.000,114.400 116.188,114.400 116.418 C 114.400 116.648,114.842 117.278,115.382 117.818 C 115.922 118.358,116.552 118.800,116.782 118.800 C 117.012 118.800,117.200 118.988,117.200 119.218 C 117.200 119.448,117.642 120.078,118.182 120.618 C 118.722 121.158,119.352 121.600,119.582 121.600 C 119.812 121.600,120.000 121.793,120.000 122.029 C 120.000 122.495,120.985 123.600,121.400 123.600 C 121.541 123.600,121.914 123.857,122.229 124.171 C 122.543 124.486,122.800 124.859,122.800 125.000 C 122.800 125.415,123.905 126.400,124.371 126.400 C 124.607 126.400,124.800 126.588,124.800 126.818 C 124.800 127.048,125.242 127.678,125.782 128.218 C 126.322 128.758,126.952 129.200,127.182 129.200 C 127.412 129.200,127.600 129.388,127.600 129.618 C 127.600 129.848,128.042 130.478,128.582 131.018 C 129.122 131.558,129.752 132.000,129.982 132.000 C 130.212 132.000,130.400 132.193,130.400 132.429 C 130.400 132.664,130.657 133.114,130.971 133.429 C 131.286 133.743,131.736 134.000,131.971 134.000 C 132.207 134.000,132.400 134.188,132.400 134.418 C 132.400 134.648,132.842 135.278,133.382 135.818 C 133.922 136.358,134.552 136.800,134.782 136.800 C 135.012 136.800,135.200 136.988,135.200 137.218 C 135.200 137.448,135.642 138.078,136.182 138.618 C 136.722 139.158,137.352 139.600,137.582 139.600 C 137.812 139.600,138.000 139.793,138.000 140.029 C 138.000 140.264,138.257 140.714,138.571 141.029 C 138.886 141.343,139.336 141.600,139.571 141.600 C 139.807 141.600,140.000 141.788,140.000 142.018 C 140.000 142.248,140.442 142.878,140.982 143.418 C 141.522 143.958,142.152 144.400,142.382 144.400 C 142.612 144.400,142.800 144.588,142.800 144.818 C 142.800 145.048,143.242 145.678,143.782 146.218 C 144.322 146.758,144.952 147.200,145.182 147.200 C 145.412 147.200,145.600 147.404,145.600 147.653 C 145.600 148.132,147.589 149.999,148.100 150.000 C 148.265 150.000,148.400 150.193,148.400 150.429 C 148.400 150.664,148.657 151.114,148.971 151.429 C 149.286 151.743,149.736 152.000,149.971 152.000 C 150.207 152.000,150.400 152.188,150.400 152.418 C 150.400 152.648,150.842 153.278,151.382 153.818 C 151.922 154.358,152.552 154.800,152.782 154.800 C 153.012 154.800,153.200 154.988,153.200 155.218 C 153.200 155.448,153.642 156.078,154.182 156.618 C 154.722 157.158,155.352 157.600,155.582 157.600 C 155.812 157.600,156.000 157.793,156.000 158.029 C 156.000 158.264,156.257 158.714,156.571 159.029 C 156.886 159.343,157.336 159.600,157.571 159.600 C 157.807 159.600,158.000 159.788,158.000 160.018 C 158.000 160.248,158.442 160.878,158.982 161.418 C 159.522 161.958,160.152 162.400,160.382 162.400 C 160.612 162.400,160.800 162.588,160.800 162.818 C 160.800 163.048,161.242 163.678,161.782 164.218 C 162.322 164.758,162.952 165.200,163.182 165.200 C 163.412 165.200,163.600 165.393,163.600 165.629 C 163.600 166.095,164.585 167.200,165.000 167.200 C 165.141 167.200,165.514 167.457,165.829 167.771 C 166.143 168.086,166.400 168.459,166.400 168.600 C 166.400 169.015,167.505 170.000,167.971 170.000 C 168.207 170.000,168.400 170.188,168.400 170.418 C 168.400 170.648,168.842 171.278,169.382 171.818 C 169.922 172.358,170.552 172.800,170.782 172.800 C 171.012 172.800,171.200 172.988,171.200 173.218 C 171.200 173.448,171.642 174.078,172.182 174.618 C 172.722 175.158,173.352 175.600,173.582 175.600 C 173.812 175.600,174.000 175.793,174.000 176.029 C 174.000 176.264,174.257 176.714,174.571 177.029 C 174.886 177.343,175.336 177.600,175.571 177.600 C 175.807 177.600,176.000 177.788,176.000 178.018 C 176.000 178.248,176.442 178.878,176.982 179.418 C 177.522 179.958,178.152 180.400,178.382 180.400 C 178.612 180.400,178.800 180.588,178.800 180.818 C 178.800 181.048,179.242 181.678,179.782 182.218 C 180.322 182.758,180.952 183.200,181.182 183.200 C 181.412 183.200,181.600 183.393,181.600 183.629 C 181.600 184.095,182.585 185.200,183.000 185.200 C 183.141 185.200,183.514 185.457,183.829 185.771 C 184.143 186.086,184.400 186.459,184.400 186.600 C 184.400 187.015,185.505 188.000,185.971 188.000 C 186.207 188.000,186.400 188.188,186.400 188.418 C 186.400 188.648,186.842 189.278,187.382 189.818 C 187.922 190.358,188.552 190.800,188.782 190.800 C 189.012 190.800,189.200 190.993,189.200 191.229 C 189.200 191.695,190.185 192.800,190.600 192.800 C 190.741 192.800,191.114 193.057,191.429 193.371 C 191.743 193.686,192.000 194.059,192.000 194.200 C 192.000 194.615,193.105 195.600,193.571 195.600 C 193.807 195.600,194.000 195.788,194.000 196.018 C 194.000 196.248,194.442 196.878,194.982 197.418 C 195.522 197.958,196.152 198.400,196.382 198.400 C 196.612 198.400,196.800 198.604,196.800 198.853 C 196.800 199.636,198.389 200.728,199.214 200.512 C 200.320 200.223,200.473 2.267,199.367 1.843 C 198.328 1.444,2.297 1.612,1.300 2.012 " stroke="none" fill="#0b9cdc" fill-rule="evenodd"></path><path id="path1" d="M198.522 200.927 C 198.410 201.107,198.698 201.353,199.160 201.474 L 200.000 201.693 200.000 300.647 C 200.000 379.521,199.899 399.608,199.500 399.640 C 198.872 399.690,200.754 400.306,201.700 400.360 C 202.085 400.382,202.400 400.207,202.400 399.971 C 202.400 399.505,203.385 398.400,203.800 398.400 C 204.134 398.400,205.200 397.334,205.200 397.000 C 205.200 396.666,206.266 395.600,206.600 395.600 C 207.015 395.600,208.000 394.495,208.000 394.029 C 208.000 393.793,208.193 393.600,208.429 393.600 C 208.895 393.600,210.000 392.615,210.000 392.200 C 210.000 391.866,211.066 390.800,211.400 390.800 C 211.734 390.800,212.800 389.734,212.800 389.400 C 212.800 389.066,213.866 388.000,214.200 388.000 C 214.534 388.000,215.600 386.934,215.600 386.600 C 215.600 386.266,216.666 385.200,217.000 385.200 C 217.415 385.200,218.400 384.095,218.400 383.629 C 218.400 383.393,218.593 383.200,218.829 383.200 C 219.295 383.200,220.400 382.215,220.400 381.800 C 220.400 381.466,221.466 380.400,221.800 380.400 C 222.134 380.400,223.200 379.334,223.200 379.000 C 223.200 378.666,224.266 377.600,224.600 377.600 C 225.015 377.600,226.000 376.495,226.000 376.029 C 226.000 375.793,226.193 375.600,226.429 375.600 C 226.895 375.600,228.000 374.615,228.000 374.200 C 228.000 373.866,229.066 372.800,229.400 372.800 C 229.734 372.800,230.800 371.734,230.800 371.400 C 230.800 371.066,231.866 370.000,232.200 370.000 C 232.534 370.000,233.600 368.934,233.600 368.600 C 233.600 368.266,234.666 367.200,235.000 367.200 C 235.415 367.200,236.400 366.095,236.400 365.629 C 236.400 365.393,236.593 365.200,236.829 365.200 C 237.295 365.200,238.400 364.215,238.400 363.800 C 238.400 363.466,239.466 362.400,239.800 362.400 C 240.134 362.400,241.200 361.334,241.200 361.000 C 241.200 360.666,242.266 359.600,242.600 359.600 C 243.015 359.600,244.000 358.495,244.000 358.029 C 244.000 357.793,244.193 357.600,244.429 357.600 C 244.895 357.600,246.000 356.615,246.000 356.200 C 246.000 355.866,247.066 354.800,247.400 354.800 C 247.734 354.800,248.800 353.734,248.800 353.400 C 248.800 353.066,249.866 352.000,250.200 352.000 C 250.615 352.000,251.600 350.895,251.600 350.429 C 251.600 350.193,251.788 350.000,252.018 350.000 C 252.561 350.000,254.400 348.161,254.400 347.618 C 254.400 347.388,254.593 347.200,254.829 347.200 C 255.295 347.200,256.400 346.215,256.400 345.800 C 256.400 345.466,257.466 344.400,257.800 344.400 C 258.134 344.400,259.200 343.334,259.200 343.000 C 259.200 342.666,260.266 341.600,260.600 341.600 C 261.015 341.600,262.000 340.495,262.000 340.029 C 262.000 339.793,262.193 339.600,262.429 339.600 C 262.895 339.600,264.000 338.615,264.000 338.200 C 264.000 337.866,265.066 336.800,265.400 336.800 C 265.734 336.800,266.800 335.734,266.800 335.400 C 266.800 335.066,267.866 334.000,268.200 334.000 C 268.615 334.000,269.600 332.895,269.600 332.429 C 269.600 332.193,269.788 332.000,270.018 332.000 C 270.248 332.000,270.878 331.558,271.418 331.018 C 271.958 330.478,272.400 329.848,272.400 329.618 C 272.400 329.388,272.593 329.200,272.829 329.200 C 273.295 329.200,274.400 328.215,274.400 327.800 C 274.400 327.466,275.466 326.400,275.800 326.400 C 276.134 326.400,277.200 325.334,277.200 325.000 C 277.200 324.666,278.266 323.600,278.600 323.600 C 279.015 323.600,280.000 322.495,280.000 322.029 C 280.000 321.793,280.193 321.600,280.429 321.600 C 280.895 321.600,282.000 320.615,282.000 320.200 C 282.000 319.866,283.066 318.800,283.400 318.800 C 283.734 318.800,284.800 317.734,284.800 317.400 C 284.800 317.066,285.866 316.000,286.200 316.000 C 286.615 316.000,287.600 314.895,287.600 314.429 C 287.600 314.193,287.788 314.000,288.018 314.000 C 288.248 314.000,288.878 313.558,289.418 313.018 C 289.958 312.478,290.400 311.848,290.400 311.618 C 290.400 311.388,290.593 311.200,290.829 311.200 C 291.295 311.200,292.400 310.215,292.400 309.800 C 292.400 309.466,293.466 308.400,293.800 308.400 C 294.215 308.400,295.200 307.295,295.200 306.829 C 295.200 306.593,295.388 306.400,295.618 306.400 C 295.848 306.400,296.478 305.958,297.018 305.418 C 297.558 304.878,298.000 304.248,298.000 304.018 C 298.000 303.788,298.193 303.600,298.429 303.600 C 298.895 303.600,300.000 302.615,300.000 302.200 C 300.000 302.059,300.257 301.686,300.571 301.371 C 300.886 301.057,301.259 300.800,301.400 300.800 C 301.541 300.800,301.914 300.543,302.229 300.229 C 302.543 299.914,302.800 299.541,302.800 299.400 C 302.800 299.259,303.057 298.886,303.371 298.571 C 303.686 298.257,304.059 298.000,304.200 298.000 C 304.615 298.000,305.600 296.895,305.600 296.429 C 305.600 296.193,305.788 296.000,306.018 296.000 C 306.248 296.000,306.878 295.558,307.418 295.018 C 307.958 294.478,308.400 293.848,308.400 293.618 C 308.400 293.388,308.593 293.200,308.829 293.200 C 309.295 293.200,310.400 292.215,310.400 291.800 C 310.400 291.466,311.466 290.400,311.800 290.400 C 312.215 290.400,313.200 289.295,313.200 288.829 C 313.200 288.593,313.388 288.400,313.618 288.400 C 313.848 288.400,314.478 287.958,315.018 287.418 C 315.558 286.878,316.000 286.248,316.000 286.018 C 316.000 285.788,316.193 285.600,316.429 285.600 C 316.895 285.600,318.000 284.615,318.000 284.200 C 318.000 283.866,319.066 282.800,319.400 282.800 C 319.815 282.800,320.800 281.695,320.800 281.229 C 320.800 280.993,320.988 280.800,321.218 280.800 C 321.448 280.800,322.078 280.358,322.618 279.818 C 323.158 279.278,323.600 278.648,323.600 278.418 C 323.600 278.188,323.788 278.000,324.018 278.000 C 324.248 278.000,324.878 277.558,325.418 277.018 C 325.958 276.478,326.400 275.848,326.400 275.618 C 326.400 275.388,326.593 275.200,326.829 275.200 C 327.295 275.200,328.400 274.215,328.400 273.800 C 328.400 273.466,329.466 272.400,329.800 272.400 C 330.215 272.400,331.200 271.295,331.200 270.829 C 331.200 270.593,331.388 270.400,331.618 270.400 C 331.848 270.400,332.478 269.958,333.018 269.418 C 333.558 268.878,334.000 268.248,334.000 268.018 C 334.000 267.788,334.193 267.600,334.429 267.600 C 334.895 267.600,336.000 266.615,336.000 266.200 C 336.000 265.866,337.066 264.800,337.400 264.800 C 337.815 264.800,338.800 263.695,338.800 263.229 C 338.800 262.993,338.988 262.800,339.218 262.800 C 339.761 262.800,341.600 260.961,341.600 260.418 C 341.600 260.188,341.793 260.000,342.029 260.000 C 342.495 260.000,343.600 259.015,343.600 258.600 C 343.600 258.266,344.666 257.200,345.000 257.200 C 345.334 257.200,346.400 256.134,346.400 255.800 C 346.400 255.466,347.466 254.400,347.800 254.400 C 348.215 254.400,349.200 253.295,349.200 252.829 C 349.200 252.593,349.388 252.400,349.618 252.400 C 350.161 252.400,352.000 250.561,352.000 250.018 C 352.000 249.788,352.193 249.600,352.429 249.600 C 352.895 249.600,354.000 248.615,354.000 248.200 C 354.000 247.866,355.066 246.800,355.400 246.800 C 355.815 246.800,356.800 245.695,356.800 245.229 C 356.800 244.993,356.988 244.800,357.218 244.800 C 357.761 244.800,359.600 242.961,359.600 242.418 C 359.600 242.188,359.793 242.000,360.029 242.000 C 360.495 242.000,361.600 241.015,361.600 240.600 C 361.600 240.266,362.666 239.200,363.000 239.200 C 363.415 239.200,364.400 238.095,364.400 237.629 C 364.400 237.393,364.588 237.200,364.818 237.200 C 365.361 237.200,367.200 235.361,367.200 234.818 C 367.200 234.588,367.388 234.400,367.618 234.400 C 368.161 234.400,370.000 232.561,370.000 232.018 C 370.000 231.788,370.193 231.600,370.429 231.600 C 370.895 231.600,372.000 230.615,372.000 230.200 C 372.000 229.866,373.066 228.800,373.400 228.800 C 373.815 228.800,374.800 227.695,374.800 227.229 C 374.800 226.993,374.988 226.800,375.218 226.800 C 375.761 226.800,377.600 224.961,377.600 224.418 C 377.600 224.188,377.793 224.000,378.029 224.000 C 378.495 224.000,379.600 223.015,379.600 222.600 C 379.600 222.266,380.666 221.200,381.000 221.200 C 381.415 221.200,382.400 220.095,382.400 219.629 C 382.400 219.393,382.588 219.200,382.818 219.200 C 383.361 219.200,385.200 217.361,385.200 216.818 C 385.200 216.588,385.388 216.400,385.618 216.400 C 386.161 216.400,388.000 214.561,388.000 214.018 C 388.000 213.788,388.193 213.600,388.429 213.600 C 388.895 213.600,390.000 212.615,390.000 212.200 C 390.000 211.866,391.066 210.800,391.400 210.800 C 391.815 210.800,392.800 209.695,392.800 209.229 C 392.800 208.993,392.988 208.800,393.218 208.800 C 393.761 208.800,395.600 206.961,395.600 206.418 C 395.600 206.188,395.793 206.000,396.029 206.000 C 396.495 206.000,397.600 205.015,397.600 204.600 C 397.600 204.166,398.715 203.200,399.215 203.200 C 399.610 203.200,399.465 201.332,399.037 200.904 C 398.760 200.626,198.693 200.649,198.522 200.927 " stroke="none" fill="#a4d32b" fill-rule="evenodd"></path><path id="path2" d="M197.600 201.629 C 197.600 201.864,197.343 202.314,197.029 202.629 C 196.714 202.943,196.264 203.200,196.029 203.200 C 195.793 203.200,195.600 203.335,195.600 203.500 C 195.599 204.011,193.732 206.000,193.253 206.000 C 193.004 206.000,192.800 206.188,192.800 206.418 C 192.800 206.961,190.961 208.800,190.418 208.800 C 190.188 208.800,190.000 208.993,190.000 209.229 C 190.000 209.695,189.015 210.800,188.600 210.800 C 188.266 210.800,187.200 211.866,187.200 212.200 C 187.200 212.615,186.095 213.600,185.629 213.600 C 185.393 213.600,185.200 213.788,185.200 214.018 C 185.200 214.561,183.361 216.400,182.818 216.400 C 182.588 216.400,182.400 216.593,182.400 216.829 C 182.400 217.295,181.415 218.400,181.000 218.400 C 180.859 218.400,180.486 218.657,180.171 218.971 C 179.857 219.286,179.600 219.659,179.600 219.800 C 179.600 220.215,178.495 221.200,178.029 221.200 C 177.793 221.200,177.600 221.335,177.600 221.500 C 177.599 222.011,175.732 224.000,175.253 224.000 C 175.004 224.000,174.800 224.204,174.800 224.453 C 174.800 224.932,172.811 226.799,172.300 226.800 C 172.135 226.800,172.000 226.993,172.000 227.229 C 172.000 227.695,171.015 228.800,170.600 228.800 C 170.459 228.800,170.086 229.057,169.771 229.371 C 169.457 229.686,169.200 230.059,169.200 230.200 C 169.200 230.615,168.095 231.600,167.629 231.600 C 167.393 231.600,167.200 231.788,167.200 232.018 C 167.200 232.561,165.361 234.400,164.818 234.400 C 164.588 234.400,164.400 234.593,164.400 234.829 C 164.400 235.295,163.415 236.400,163.000 236.400 C 162.859 236.400,162.486 236.657,162.171 236.971 C 161.857 237.286,161.600 237.659,161.600 237.800 C 161.600 238.215,160.495 239.200,160.029 239.200 C 159.793 239.200,159.600 239.388,159.600 239.618 C 159.600 240.161,157.761 242.000,157.218 242.000 C 156.988 242.000,156.800 242.193,156.800 242.429 C 156.800 242.895,155.815 244.000,155.400 244.000 C 155.259 244.000,154.886 244.257,154.571 244.571 C 154.257 244.886,154.000 245.259,154.000 245.400 C 154.000 245.734,152.934 246.800,152.600 246.800 C 152.459 246.800,152.086 247.057,151.771 247.371 C 151.457 247.686,151.200 248.059,151.200 248.200 C 151.200 248.615,150.095 249.600,149.629 249.600 C 149.393 249.600,149.200 249.804,149.200 250.053 C 149.200 250.532,147.211 252.399,146.700 252.400 C 146.535 252.400,146.400 252.593,146.400 252.829 C 146.400 253.295,145.415 254.400,145.000 254.400 C 144.666 254.400,143.600 255.466,143.600 255.800 C 143.600 256.215,142.495 257.200,142.029 257.200 C 141.793 257.200,141.600 257.388,141.600 257.618 C 141.600 258.161,139.761 260.000,139.218 260.000 C 138.988 260.000,138.800 260.193,138.800 260.429 C 138.800 260.895,137.815 262.000,137.400 262.000 C 137.066 262.000,136.000 263.066,136.000 263.400 C 136.000 263.734,134.934 264.800,134.600 264.800 C 134.266 264.800,133.200 265.866,133.200 266.200 C 133.200 266.615,132.095 267.600,131.629 267.600 C 131.393 267.600,131.200 267.804,131.200 268.053 C 131.200 268.532,129.211 270.399,128.700 270.400 C 128.535 270.400,128.400 270.593,128.400 270.829 C 128.400 271.295,127.415 272.400,127.000 272.400 C 126.666 272.400,125.600 273.466,125.600 273.800 C 125.600 274.215,124.495 275.200,124.029 275.200 C 123.793 275.200,123.600 275.388,123.600 275.618 C 123.600 275.848,123.158 276.478,122.618 277.018 C 122.078 277.558,121.448 278.000,121.218 278.000 C 120.988 278.000,120.800 278.193,120.800 278.429 C 120.800 278.895,119.815 280.000,119.400 280.000 C 119.066 280.000,118.000 281.066,118.000 281.400 C 118.000 281.734,116.934 282.800,116.600 282.800 C 116.266 282.800,115.200 283.866,115.200 284.200 C 115.200 284.615,114.095 285.600,113.629 285.600 C 113.393 285.600,113.200 285.793,113.200 286.029 C 113.200 286.495,112.215 287.600,111.800 287.600 C 111.466 287.600,110.400 288.666,110.400 289.000 C 110.400 289.334,109.334 290.400,109.000 290.400 C 108.666 290.400,107.600 291.466,107.600 291.800 C 107.600 292.215,106.495 293.200,106.029 293.200 C 105.793 293.200,105.600 293.404,105.600 293.653 C 105.600 294.132,103.611 295.999,103.100 296.000 C 102.935 296.000,102.800 296.193,102.800 296.429 C 102.800 296.895,101.815 298.000,101.400 298.000 C 101.066 298.000,100.000 299.066,100.000 299.400 C 100.000 299.815,98.895 300.800,98.429 300.800 C 98.193 300.800,98.000 300.935,98.000 301.100 C 97.999 301.611,96.132 303.600,95.653 303.600 C 95.404 303.600,95.200 303.793,95.200 304.029 C 95.200 304.495,94.215 305.600,93.800 305.600 C 93.466 305.600,92.400 306.666,92.400 307.000 C 92.400 307.334,91.334 308.400,91.000 308.400 C 90.666 308.400,89.600 309.466,89.600 309.800 C 89.600 310.215,88.495 311.200,88.029 311.200 C 87.793 311.200,87.600 311.393,87.600 311.629 C 87.600 312.095,86.615 313.200,86.200 313.200 C 85.866 313.200,84.800 314.266,84.800 314.600 C 84.800 314.934,83.734 316.000,83.400 316.000 C 83.066 316.000,82.000 317.066,82.000 317.400 C 82.000 317.815,80.895 318.800,80.429 318.800 C 80.193 318.800,80.000 318.935,80.000 319.100 C 79.999 319.611,78.132 321.600,77.653 321.600 C 77.404 321.600,77.200 321.793,77.200 322.029 C 77.200 322.495,76.215 323.600,75.800 323.600 C 75.466 323.600,74.400 324.666,74.400 325.000 C 74.400 325.334,73.334 326.400,73.000 326.400 C 72.666 326.400,71.600 327.466,71.600 327.800 C 71.600 328.215,70.495 329.200,70.029 329.200 C 69.793 329.200,69.600 329.393,69.600 329.629 C 69.600 330.095,68.615 331.200,68.200 331.200 C 67.866 331.200,66.800 332.266,66.800 332.600 C 66.800 332.934,65.734 334.000,65.400 334.000 C 65.066 334.000,64.000 335.066,64.000 335.400 C 64.000 335.785,62.910 336.800,62.496 336.800 C 62.298 336.800,61.905 337.230,61.624 337.756 C 61.342 338.282,60.682 338.942,60.156 339.224 C 59.630 339.505,59.200 339.898,59.200 340.096 C 59.200 340.510,58.185 341.600,57.800 341.600 C 57.466 341.600,56.400 342.666,56.400 343.000 C 56.400 343.334,55.334 344.400,55.000 344.400 C 54.666 344.400,53.600 345.466,53.600 345.800 C 53.600 346.215,52.495 347.200,52.029 347.200 C 51.793 347.200,51.600 347.393,51.600 347.629 C 51.600 348.095,50.615 349.200,50.200 349.200 C 49.866 349.200,48.800 350.266,48.800 350.600 C 48.800 350.934,47.734 352.000,47.400 352.000 C 47.066 352.000,46.000 353.066,46.000 353.400 C 46.000 353.785,44.910 354.800,44.496 354.800 C 44.298 354.800,43.894 355.250,43.600 355.800 C 43.306 356.350,42.902 356.800,42.704 356.800 C 42.290 356.800,41.200 357.815,41.200 358.200 C 41.200 358.534,40.134 359.600,39.800 359.600 C 39.466 359.600,38.400 360.666,38.400 361.000 C 38.400 361.334,37.334 362.400,37.000 362.400 C 36.666 362.400,35.600 363.466,35.600 363.800 C 35.600 364.215,34.495 365.200,34.029 365.200 C 33.793 365.200,33.600 365.393,33.600 365.629 C 33.600 366.095,32.615 367.200,32.200 367.200 C 31.866 367.200,30.800 368.266,30.800 368.600 C 30.800 368.934,29.734 370.000,29.400 370.000 C 29.066 370.000,28.000 371.066,28.000 371.400 C 28.000 371.815,26.895 372.800,26.429 372.800 C 26.193 372.800,26.000 372.993,26.000 373.229 C 26.000 373.695,25.015 374.800,24.600 374.800 C 24.266 374.800,23.200 375.866,23.200 376.200 C 23.200 376.534,22.134 377.600,21.800 377.600 C 21.466 377.600,20.400 378.666,20.400 379.000 C 20.400 379.334,19.334 380.400,19.000 380.400 C 18.615 380.400,17.600 381.490,17.600 381.904 C 17.600 382.102,17.150 382.506,16.600 382.800 C 16.050 383.094,15.600 383.498,15.600 383.696 C 15.600 384.110,14.585 385.200,14.200 385.200 C 13.866 385.200,12.800 386.266,12.800 386.600 C 12.800 386.934,11.734 388.000,11.400 388.000 C 11.066 388.000,10.000 389.066,10.000 389.400 C 10.000 389.815,8.895 390.800,8.429 390.800 C 8.193 390.800,8.000 390.993,8.000 391.229 C 8.000 391.695,7.015 392.800,6.600 392.800 C 6.266 392.800,5.200 393.866,5.200 394.200 C 5.200 394.534,4.134 395.600,3.800 395.600 C 3.466 395.600,2.400 396.666,2.400 397.000 C 2.400 397.415,1.295 398.400,0.829 398.400 C -0.174 398.400,0.508 399.522,1.650 399.750 C 3.261 400.072,198.528 400.079,199.367 399.757 C 199.942 399.537,200.000 390.428,200.000 300.604 L 200.000 201.693 199.100 201.452 C 197.834 201.113,197.600 201.140,197.600 201.629 " stroke="none" fill="#fbc404" fill-rule="evenodd"></path><path id="path3" d="M0.000 1.443 C 0.000 2.300,0.125 2.425,0.700 2.143 C 1.451 1.775,197.595 1.433,199.100 1.798 L 200.000 2.015 200.000 101.408 L 200.000 200.800 299.553 200.800 L 399.107 200.800 399.396 201.700 C 399.654 202.503,399.706 202.520,399.879 201.860 C 400.147 200.843,399.651 198.400,399.177 198.400 C 398.773 198.400,394.800 194.557,394.800 194.166 C 394.800 193.876,393.724 192.800,393.434 192.800 C 393.159 192.800,384.400 184.017,384.400 183.741 C 384.400 183.470,383.310 182.400,383.035 182.400 C 382.745 182.400,376.800 176.455,376.800 176.165 C 376.800 175.858,375.715 174.800,375.400 174.800 C 374.985 174.800,374.000 173.695,374.000 173.229 C 374.000 172.993,373.821 172.800,373.602 172.800 C 373.211 172.800,366.400 166.122,366.400 165.739 C 366.400 165.470,365.309 164.400,365.035 164.400 C 364.745 164.400,358.800 158.455,358.800 158.165 C 358.800 157.858,357.715 156.800,357.400 156.800 C 356.985 156.800,356.000 155.695,356.000 155.229 C 356.000 154.993,355.821 154.800,355.602 154.800 C 355.088 154.800,348.400 148.105,348.400 147.590 C 348.400 147.376,348.221 147.200,348.002 147.200 C 347.595 147.200,340.800 140.559,340.800 140.162 C 340.800 139.876,339.722 138.800,339.435 138.800 C 339.040 138.800,333.200 132.800,333.200 132.394 C 333.200 132.177,333.065 132.000,332.900 132.000 C 332.389 131.999,330.400 130.132,330.400 129.653 C 330.400 129.404,330.221 129.200,330.002 129.200 C 329.595 129.200,322.800 122.559,322.800 122.162 C 322.800 121.875,321.722 120.800,321.434 120.800 C 321.051 120.800,312.400 111.960,312.400 111.569 C 312.400 111.366,312.221 111.200,312.002 111.200 C 311.488 111.200,304.800 104.505,304.800 103.990 C 304.800 103.776,304.621 103.600,304.402 103.600 C 303.888 103.600,297.200 96.905,297.200 96.390 C 297.200 96.176,297.034 96.000,296.831 96.000 C 296.341 96.000,286.800 86.472,286.800 85.982 C 286.800 85.772,286.621 85.600,286.402 85.600 C 285.888 85.600,279.200 78.905,279.200 78.390 C 279.200 78.176,279.020 78.000,278.801 78.000 C 278.300 78.000,268.800 68.470,268.800 67.968 C 268.800 67.766,268.621 67.600,268.402 67.600 C 267.888 67.600,261.200 60.905,261.200 60.390 C 261.200 60.176,261.065 60.045,260.900 60.100 C 260.509 60.230,255.600 55.322,255.600 54.800 C 255.600 54.580,255.429 54.400,255.219 54.400 C 254.723 54.400,250.800 50.477,250.800 49.981 C 250.800 49.771,250.621 49.600,250.402 49.600 C 249.888 49.600,243.200 42.905,243.200 42.390 C 243.200 42.176,243.023 42.000,242.807 42.000 C 242.296 42.000,232.800 32.503,232.800 31.991 C 232.800 31.776,232.612 31.600,232.382 31.600 C 231.839 31.600,230.000 29.761,230.000 29.218 C 230.000 28.988,229.818 28.800,229.595 28.800 C 229.074 28.800,225.200 24.917,225.200 24.395 C 225.200 24.178,225.024 24.000,224.810 24.000 C 224.299 24.000,212.000 11.701,212.000 11.190 C 212.000 10.976,211.818 10.800,211.595 10.800 C 211.074 10.800,207.200 6.917,207.200 6.395 C 207.200 6.178,207.019 6.000,206.797 6.000 C 206.576 6.000,205.137 4.740,203.600 3.200 L 200.806 0.400 100.403 0.400 L 0.000 0.400 0.000 1.443 M-0.000 400.300 C -0.000 400.699,20.440 400.798,100.900 400.788 C 165.691 400.780,201.564 400.638,201.141 400.391 C 200.061 399.760,-0.000 399.670,-0.000 400.300 " stroke="none" fill="#f3f3f3" fill-rule="evenodd"></path></g></svg>