<svg xmlns="http://www.w3.org/2000/svg" width="400" height="156.418" viewBox="0 0 400 156"  fill-rule="evenodd" xmlns:v="https://vecta.io/nano"><path d="M.375 12.277c-.508.205.816 1.579 19.2 19.932l42.687 42.669c1 1.02 1.438 1.358 1.709 1.319l.363-.054-.084-63.893-31.833-.029C14.908 12.205.49 12.23.375 12.277" fill="#0c9cdc"/><path d="M63.959 76.339l.376.151-.004 31.88.328 31.933c.364.057.605-.106 1.397-.946l.744-.75a13.2 13.2 0 0 0 .584-.569l.933-.916a13.87 13.87 0 0 0 .75-.759 8.04 8.04 0 0 1 .582-.583 8.6 8.6 0 0 0 .583-.58c.102-.12.356-.382.565-.584a23.43 23.43 0 0 0 .75-.76l2.825-2.79c.116-.102.368-.364.559-.584s.529-.56.75-.757c.314-.279 8.05-8 8.847-8.829.739-.769 2.505-2.546 2.828-2.846l.584-.56.75-.749c.308-.306.642-.654.743-.774s.439-.457.75-.75.654-.63.76-.75.631-.64 1.167-1.157 1.133-1.116 1.327-1.333.607-.633.917-.925l.729-.703 1.595-1.599 4.869-4.869.749-.752 5.689-5.69 2.855-2.856 11.454-11.455 1.403-1.359c.704-.68 1.236-1.281 1.181-1.336s-.017-.1.085-.1c.31 0 3.537-3.342 3.537-3.664 0-.508.335-.503-32.722-.492l-31.819.162" fill="#a3d32b"/><path d="M31.839 107.99L.393 139.917c.222.222 3.93.246 32.054.208l31.803-.042V76.417l-.357-.051c-.281-.04-7.137 6.724-32.054 31.624" fill="#fbc404"/><path d="M.112 11.777c-.061.061-.112.292-.112.513 0 .364.024.377.262.138s3.324-.258 32.125-.22l31.863.042.084 63.917h31.819l32.347.434c0 .128.075.232.167.232s.166-.221.166-.491c0-.524-1.917-2.627-2.067-2.267-.04.096-.079-.006-.086-.228s-.058-.358-.112-.304-.325-.157-.6-.471-.571-.528-.656-.476-.133.032-.108-.045c.055-.17-.26-.564-1.017-1.273l-.917-.928s-.613-.632-.93-.917-.729-.688-.916-.898l-1.757-1.816c0 .041-.3-.207-.667-.552s-.667-.669-.667-.718c0-.123-1.331-1.444-1.96-1.944-.283-.226-.487-.456-.453-.511s-.094-.207-.286-.339-.581-.493-.866-.805-.616-.649-.735-.75c-.708-.597-1.366-1.304-1.366-1.467 0-.104-.044-.145-.098-.091s-.575-.403-1.159-1.014l-1.241-1.278-1.782-1.789c-.291-.325-.592-.619-.669-.651s-.308-.276-.513-.541-.372-.436-.372-.382c0 .126-.671-.545-1.138-1.138-.199-.253-.362-.424-.362-.379s-1.005-.92-2.234-2.144S100.782 48 100.682 48s-.182-.086-.182-.191c0-.239-1.023-1.305-1.255-1.307-.094-.001-.282-.162-.417-.358-.332-.484-1.484-1.78-1.995-2.246l-4.242-4.181s-3.886-3.782-3.959-3.759-.132-.036-.132-.132c0-.226-.766-.993-.992-.993-.096 0-.175-.11-.175-.244s-.206-.357-.458-.494-.39-.251-.306-.255-.441-.568-1.166-1.254l-1.486-1.423-2.375-2.289c-.207-.135-.375-.307-.375-.382 0-.202-2.46-2.659-2.662-2.659-.094 0-.172-.085-.172-.189 0-.169-.755-.977-.913-.977-.035 0-.425-.383-.867-.85L70.141 17.5c-.088 0-.114-.075-.058-.167s.005-.168-.115-.171-.405-.258-.635-.567-.473-.527-.543-.485-.178-.058-.241-.224c-.139-.365-1.176-1.37-1.292-1.254-.045.045-.13-.042-.188-.193-.136-.354-1.279-1.522-1.444-1.475-.069.02-.125-.02-.125-.089s-.194-.35-.43-.625l-.43-.5-32.208-.043c-17.714-.024-32.258.008-32.32.07m77.374 13.556c1.108 1.1 2.093 2 2.19 2s.142.057.099.127.225.389.596.709.758.679.86.798a59.75 59.75 0 0 0 1.3 1.359c.612.627 1.078 1.176 1.034 1.22-.077.077-8.232-7.986-8.232-8.138 0-.187.265.049 2.153 1.925m7.108 7.194c.489.526.489.527.038.208-.248-.175-.49-.412-.536-.527-.13-.316-.037-.257.498.319m28.786 28.86c-.045.075-.279-.107-.522-.405a10.54 10.54 0 0 0-.9-.956c-.252-.228-.458-.483-.458-.566s.441.286.98.819.944 1.032.9 1.108m3.94 3.7c1.964 1.968 3.536 3.612 3.494 3.654s-1.719-1.57-3.727-3.582-3.581-3.657-3.494-3.654 1.764 1.615 3.727 3.582m5.347 5.511c0 .075-.3-.157-.667-.515s-.667-.71-.667-.783.3.158.667.514.667.708.667.784m1.692 1.61c.243.252.393.459.333.459s-.409-.318-.775-.707-.517-.594-.334-.458.533.454.776.706M126.167 74c.294.275.466.5.382.5s-.369-.225-.632-.5-.436-.5-.382-.5.337.225.632.5m1.986 1.957c.038.023-.053.043-.203.043s-.36-.169-.468-.375l-.197-.375.399.332a11.22 11.22 0 0 0 .469.375m125.755 44.293c0 2.933.022 4.11.05 2.615s.028-3.896 0-5.334-.05-.214-.05 2.719M.013 140.208l-.013.459h32.407l32.497-.147c.203-.327-2.202-.353-32.828-.353-25.349 0-31.899-.043-31.966-.209-.046-.114-.09-.002-.097.25" fill="#f4f4f4"/><path d="M16.292 11.625h32.083c8.823-.024 1.604-.043-16.042-.043l-16.041.043M66 13.148c0 .158.814.935.88.839.026-.039-.162-.272-.416-.518S66 13.078 66 13.148m1.5 1.493c0 .077.15.276.333.442s.334.253.334.193-.15-.259-.334-.443-.333-.27-.333-.192m1.505 1.49c.009.206.841 1.079.937.982.051-.05-.141-.319-.425-.596s-.515-.452-.512-.386m2.662 2.646c0 .09.206.347.458.569l.458.404-.416-.5a13.85 13.85 0 0 1-.459-.569c-.023-.039-.041.005-.041.096m4.17 4.311c.493.593 1.55 1.581 1.618 1.512.083-.082-1.565-1.767-1.728-1.767-.055 0-.006.115.11.255m-.504.32c0 .152 8.155 8.215 8.232 8.138.044-.044-.422-.593-1.034-1.22l-1.3-1.359c-.102-.119-.489-.479-.86-.798s-.64-.639-.596-.709-.002-.127-.099-.127-1.082-.9-2.19-2c-1.888-1.876-2.153-2.112-2.153-1.925m4.167 3.309c0 .03.234.274.521.543.365.343.457.385.309.14-.184-.303-.83-.834-.83-.683m1.667 1.655c0 .195 1.149 1.233 1.221 1.103.018-.032-.25-.341-.595-.686s-.626-.533-.626-.417m2.5 2.538c0 .124.895.917.96.852.033-.033-.136-.255-.374-.494-.418-.418-.586-.521-.586-.358m.429 1.298c.046.115.288.352.536.527.451.319.451.318-.038-.208-.535-.576-.628-.635-.498-.319M89 36.1c0 .125 1 1.067 1.134 1.067.054 0-.156-.263-.467-.584-.576-.594-.667-.66-.667-.483m126.921 1.891c-.297.576-.37 5.516-.092 6.248l.163.428h19.341V96.5h7.5V44.667h19.34l-.09-7.084-45.907-.084-.255.492m-124.473.551c.509.572 5.313 5.32 5.516 5.452.066.042-1.23-1.289-2.879-2.958-2.846-2.882-3.709-3.698-2.637-2.494m63.496-.264c-.061.061-.111 13.339-.111 29.507V97.18l7.25-.097.043-29.25-.24-29.458c-.303-.223-6.726-.313-6.942-.097m203.923 1.755c-.149.149-.2 1.823-.2 6.5v6.3l-2.625.003c-3.764.003-3.375-.373-3.375 3.267v3.064h6v13.916L358.833 87c.092 0 .167.408.167.907s.066.948.147.998.199.504.262 1.009.185.919.27.919.154.15.154.334.075.333.167.333.167.112.167.25.075.25.166.25.167.141.167.313.113.406.25.52.25.28.25.367c0 .226 1.32 1.467 1.56 1.467.11 0 .308.15.44.333s.302.333.377.333.3.152.499.337.646.383.993.438.631.167.631.247.15.145.333.145.334.075.334.167.256.166.569.166.601.094.639.209c.053.158.995.208 3.958.208s3.906-.05 3.959-.208c.038-.115.325-.209.639-.209s.569-.075.569-.166.225-.167.5-.167.5-.069.5-.153.226-.203.502-.264a5.24 5.24 0 0 0 1.003-.361l.503-.25-.046-2.926c-.051-3.275-.132-3.506-1.076-3.058-.258.123-.638.288-.844.368s-.544.221-.75.315c-1.186.54-5.297.683-6.849.239-2.263-.648-3.776-2.748-3.776-5.241 0-.46-.075-.836-.167-.836-.11 0-.167-4.305-.167-12.581V59.17l13.75-.087v-2.944c0-1.62-.062-3.008-.138-3.084s-3.17-.16-6.875-.185l-6.737-.048v-6.294c0-4.674-.051-6.346-.2-6.495-.141-.141-1.129-.2-3.383-.2s-3.242.059-3.383.2M97.595 44.682c.269.33.522.571.563.537s-.178-.304-.488-.599l-.562-.537.487.599m.925 1.023c.239.445.572.794.76.797.206.002 1.22 1.089 1.22 1.307 0 .105.08.191.177.191s.611.432 1.142.959 1.108 1.067 1.281 1.198-.807-.901-2.181-2.293c-2.652-2.686-2.708-2.737-2.399-2.159m4.828 4.837c.039.023.332.266.653.541l.582.5-.489-.541c-.269-.298-.563-.542-.653-.542s-.132.019-.093.042m1.533 1.508c.203.211.4.361.437.334.098-.069-.509-.717-.671-.717-.074 0 .031.172.234.383m94.277-.157c-.05.053-.8.173-1.667.267-2.456.266-3.379.537-5.574 1.638-1.882.944-4.226 2.939-5.834 4.964l-.5.63-.166-6.475-3.213-.046c-2.026-.028-3.334.02-3.542.131-.325.174-.329.439-.329 21.837V96.5h7.167V83.667l.167-12.834c.095 0 .166-.5.166-1.166s.072-1.167.167-1.167.167-.189.167-.419a1.78 1.78 0 0 1 .157-.708c.087-.159.203-.571.258-.915s.171-.625.259-.625.159-.15.159-.333.057-.333.127-.333.263-.312.428-.694a4.12 4.12 0 0 1 .789-1.15c.269-.251.489-.539.489-.64s.07-.183.156-.183.2-.142.255-.315.32-.407.589-.518.697-.447.953-.746.703-.596 1.006-.662.541-.188.541-.272.15-.154.334-.154.333-.075.333-.166.188-.167.417-.167.416-.061.416-.135c0-.757 7.343-.778 8.706-.025a1.54 1.54 0 0 0 .625.16c.185 0 .336.075.336.167s.112.166.25.166.25.075.25.167.147.167.326.167.513.187.742.416.461.417.514.417c.2 0 1.418 1.316 1.418 1.531 0 .123.188.364.417.536s.416.417.416.545.108.273.24.324.201.19.155.311-.004.269.094.329.178.293.178.517.057.407.126.407c.222 0 .514.886.634 1.917.063.55.182 1.129.264 1.287.085.163.148 6.25.145 14.042l-.006 13.754h7.17V82.427l-.14-14.161c-.078-.048-.19-1.005-.251-2.127s-.184-2.115-.276-2.206-.166-.334-.166-.54-.075-.42-.167-.476-.166-.242-.166-.411-.142-.596-.315-.949-.445-.955-.605-1.34-.412-.835-.56-1-.383-.52-.52-.788c-.397-.772-2.788-3.125-3.641-3.582a2.95 2.95 0 0 1-.555-.394c-.121-.119-.521-.354-.888-.523l-1.323-.619c-.361-.171-.755-.311-.877-.311s-.351-.066-.51-.146c-.606-.306-1.508-.516-2.956-.687-2.427-.287-3.661-.377-3.759-.274m79.259.126c-3.147.422-4.074.633-5.123 1.167a1.45 1.45 0 0 1-.543.147c-.496 0-3.276 1.492-3.152 1.692.047.076-.018.098-.145.05-.256-.099-1.758.994-3.043 2.213-.462.437-1.043.944-1.292 1.127s-.452.391-.452.465-.169.316-.375.536c-.625.669-.792.895-.792 1.077 0 .096-.062.174-.139.174s-.244.206-.374.458-.276.496-.324.542c-.243.232-.663 1.019-.663 1.244 0 .141-.075.256-.167.256s-.166.112-.166.25-.075.25-.167.25-.167.101-.167.224c0 .209-.315.977-.677 1.648-.086.16-.156.441-.156.625s-.066.336-.148.336-.188.206-.238.458a40.08 40.08 0 0 1-.344 1.459c-1.031 4.065-.877 12.628.248 13.825.082.087.149.326.149.531s.075.42.166.477.167.235.167.395.188.681.417 1.156.416.939.416 1.032.075.167.167.167.167.111.167.247c0 .272 1.14 2.137 1.361 2.225.076.031.139.13.139.22 0 .256.445.639.59.508.071-.064.078-.026.015.084-.187.326 2.855 3.575 3.555 3.797.187.06.34.178.34.264s.096.155.213.155.321.15.453.333.374.334.537.334.297.073.297.163.187.211.416.268.417.172.417.253.15.149.333.149.334.075.334.167.112.166.25.166.25.077.25.17.189.136.42.094.379-.01.328.072c-.124.201.466.498.991.498.235 0 .427.075.427.166s.188.167.417.167.417.075.417.167.22.166.49.166.537.076.594.169.306.169.552.171c1.321.007 3.468.211 3.605.342.209.2 3.092.197 3.092-.004 0-.135 2.022-.305 3.875-.324.344-.004.625-.085.625-.18s.221-.174.49-.174.537-.075.593-.166.324-.167.594-.167.49-.075.49-.167.147-.166.327-.166c.366 0 1.558-.514 1.645-.709.03-.068.199-.125.375-.125s.319-.075.319-.166.113-.167.25-.167.25-.075.25-.167.115-.166.256-.166c.239 0 1.056-.446 1.244-.679.046-.057.552-.421 1.124-.809s1.183-.888 1.357-1.109.39-.403.479-.403c.26 0 2.205-2.058 2.206-2.334.001-.315-.534-.921-1.504-1.704a34.76 34.76 0 0 1-1.727-1.536c-1.198-1.141-1.098-1.146-2.348.123-.569.577-1.427 1.301-1.909 1.61s-.962.644-1.068.746c-2.311 2.2-10.071 3.317-13.865 1.996-.37-.129-.801-.235-.959-.235s-.286-.075-.286-.166-.11-.167-.245-.167c-.269 0-1.031-.405-2.325-1.237-.9-.578-3.596-3.135-3.596-3.41 0-.089-.29-.599-.643-1.133s-.696-1.157-.761-1.387c-.124-.44-.371-1.059-.616-1.539-.081-.159-.147-.434-.147-.611s-.068-.347-.15-.377-.204-.637-.27-1.348l-.119-1.291h16.832c15.522 0 16.851-.022 17.062-.279.448-.546.116-6.322-.506-8.805a35.28 35.28 0 0 1-.271-1.166c-.057-.275-.166-.65-.243-.834s-.274-.746-.438-1.25-.357-.988-.431-1.075-.133-.293-.133-.458-.075-.3-.166-.3-.167-.141-.167-.313-.097-.393-.216-.492-.32-.445-.448-.77-.293-.592-.367-.592-.136-.075-.136-.168c0-.206-1.164-1.893-1.36-1.971-.077-.03-.14-.12-.14-.2 0-.161-2.26-2.494-2.415-2.494-.109 0-.203-.074-1.168-.914-.367-.319-.817-.629-1-.689s-.633-.31-1-.556a8.15 8.15 0 0 0-1.5-.74c-.458-.161-1.021-.373-1.25-.47-1.263-.533-2.338-.774-4.318-.966l-2.349-.229c-.412-.041-1.275-.003-1.916.083m-172.663.799c.532.649 1.079 1.177 1.079 1.042 0-.069-.317-.422-.704-.785s-.556-.478-.375-.257m236.15.015c-2.826.067-3.559.133-3.751.334-.131.137-.688.85-1.237 1.583l-1.084 1.417c-.046.045-.307.383-.58.75a25.73 25.73 0 0 1-.749.963c-.139.164-.238.329-.22.367s-.188.306-.458.595-.442.604-.382.701.03.127-.066.068-.308.097-.473.349a7.59 7.59 0 0 1-.476.659c-.449.511-.595.708-.595.8 0 .054-.224.339-.499.632s-.499.585-.5.65-.17.289-.377.5-.675.795-1.04 1.299-.833 1.089-1.04 1.299-.377.436-.377.5-.174.319-.386.566a16.55 16.55 0 0 0-.708.894c-.178.244-.416.543-.531.664s-.208.305-.208.41c0 .308-.7.114-.9-.25-.101-.183-.225-.371-.276-.416s-.313-.384-.582-.75-.528-.705-.575-.75a63.55 63.55 0 0 1-1.164-1.5c-1.043-1.368-1.249-1.629-1.878-2.373-.161-.19-.292-.39-.292-.445s-.174-.301-.386-.547-.531-.647-.708-.889a18.02 18.02 0 0 0-.583-.749c-.143-.17-.406-.511-.583-.758-.375-.519-1.11-1.451-1.241-1.573-.05-.045-.678-.871-1.396-1.833s-1.378-1.729-1.467-1.704-.121-.018-.073-.097-.139-.417-.416-.754l-.505-.612h-3.641c-3.982 0-4.168.026-4.168.581 0 .42.372.819.584.626.075-.068.077-.021.005.104s-.062.274.023.333.325.351.534.65.448.501.532.45.107.022.053.164-.017.259.085.259.184.078.184.174.188.362.417.591.417.474.417.543.262.413.583.764.583.691.583.758.225.356.5.644.5.567.5.62.094.201.209.329c.456.509.625.734.625.836 0 .059.225.317.5.574s.5.547.5.645.262.44.583.761.583.656.583.746.15.267.333.395.282.283.222.343-.023.11.084.11.195.096.195.213.22.455.49.75.624.762.786 1.037.43.543.593.595.297.226.297.388.188.469.417.684.417.453.417.529.262.415.583.755.583.686.583.767.225.359.5.616.5.546.5.642.188.363.417.593.417.46.417.515.168.279.375.499c.739.791.821.934.696 1.218-.068.155-.106.358-.084.449s-.012.114-.077.05c-.124-.125-.576.25-.579.48-.001.075-.263.391-.583.702s-.582.663-.582.782-.131.315-.291.435-.514.518-.785.885-.553.691-.625.722-.132.15-.132.266-.16.353-.355.528a5.36 5.36 0 0 0-.732.9c-.207.321-.535.749-.728.952s-.352.412-.352.465-.076.188-.17.299l-.596.701a12.57 12.57 0 0 0-.705.917c-.153.229-.442.604-.642.833-.912 1.047-1.053 1.225-1.053 1.327 0 .061-.132.256-.292.433s-.515.624-.789.99c-.583.782-.92 1.2-1.222 1.517-.12.127-.171.308-.112.403s.019.151-.088.126-.282.104-.388.287-.259.382-.339.44-.088.201-.016.317c.086.14.063.17-.067.09-.185-.115-.836.487-.848.786-.004.073-.175.302-.381.509s-.562.654-.792.992-.473.615-.541.615-.125.083-.125.183-.263.489-.584.864-.583.78-.583.901-.075.22-.167.22-.166.112-.166.25c0 .215.548.25 3.939.25h3.939l.394-.458c.217-.252.394-.512.394-.576s.191-.308.425-.542.372-.424.308-.424.121-.226.409-.501.525-.584.525-.684.225-.391.5-.648.5-.544.5-.639.261-.448.581-.787.547-.669.506-.735.148-.284.42-.484.493-.48.493-.621.225-.445.5-.677.5-.492.5-.58.262-.431.583-.761.584-.674.584-.764.187-.338.416-.55.417-.472.417-.578.231-.406.513-.67c.302-.282.462-.559.391-.675-.077-.124-.051-.153.07-.079.106.066.193.033.193-.074s.225-.403.5-.66.5-.517.5-.578.093-.217.208-.344c.441-.492.625-.734.625-.82 0-.05.262-.369.583-.709s.584-.683.584-.762c0-.161.423-.62.571-.62.052 0 .095.108.095.241s.139.338.309.458.434.462.588.761.428.636.609.749.328.294.328.403.262.476.583.816.583.693.583.785.188.339.417.552.417.453.417.536.225.385.5.673.5.591.5.674.206.371.458.642a12.16 12.16 0 0 1 .792.953c.183.253.427.559.541.68s.209.27.209.332.225.321.5.578.5.54.5.63.262.448.583.799.583.693.583.763.188.314.417.543.417.528.417.663.149.294.333.352.378.289.434.512.319.588.584.811.482.489.482.591.188.386.417.634.416.543.416.659c0 .163.927.21 4.167.21 4.878 0 4.673.112 3.149-1.726-.238-.288-.626-.824-.861-1.191s-.613-.875-.84-1.129-.588-.723-.805-1.041-.449-.578-.518-.579-.125-.113-.125-.251-.056-.25-.125-.251-.31-.272-.535-.603a11.09 11.09 0 0 0-.875-1.1c-.256-.274-.465-.554-.465-.622s-.225-.36-.5-.647-.5-.581-.5-.652-.169-.319-.375-.552a7.34 7.34 0 0 1-.542-.685c-.491-.77-1.64-2.17-1.846-2.249a.4.4 0 0 1-.237-.343c0-.138-.206-.495-.458-.792a29.96 29.96 0 0 1-1.461-1.837c-.272-.367-.536-.704-.586-.75s-.374-.477-.723-.958-.702-.875-.786-.875-.153-.095-.153-.21-.187-.413-.416-.66-.417-.495-.417-.552c0-.216-.505-.595-.663-.497-.093.057-.126-.002-.076-.135s-.025-.354-.168-.496-.26-.334-.26-.425-.083-.192-.185-.226c-.207-.069.472-1.159 1.017-1.631.184-.16.335-.372.335-.472s.262-.435.583-.747.584-.66.584-.776.187-.356.416-.536.417-.429.417-.552.23-.436.511-.696.619-.676.751-.924a4.51 4.51 0 0 1 .614-.841c.473-.492 1.354-1.618 1.437-1.836.035-.091.316-.434.625-.762s.562-.665.562-.75.132-.275.294-.423.513-.57.782-.937.532-.704.585-.75c.129-.114.85-1.024 1.256-1.587a218.18 218.18 0 0 1 3.205-4.158c.15-.181.428-.559.618-.839a9.16 9.16 0 0 1 .719-.91c.408-.438.497-1.213.166-1.444-.115-.08-1.789-.107-3.721-.062m-234.62 1.577c.165.225.412.455.549.51s.03-.128-.239-.409c-.591-.616-.717-.658-.31-.101m1.31 1.291c.754.823 1.431 1.466 1.543 1.466.057 0-.343-.45-.887-1-1.048-1.059-1.482-1.367-.656-.466m1.739 1.655c0 .05.3.397.667.771s.667.626.667.56-.3-.412-.667-.77-.667-.611-.667-.561m169.917.811c.057.091.582.166 1.167.166s1.105.067 1.155.149.336.186.635.233c.772.122 2.028.486 2.126.617.046.061.327.217.625.347s.542.284.542.344.188.155.417.212.416.178.416.268.078.164.173.164.434.262.755.583.642.583.712.583.262.3.424.667.363.667.448.667.155.085.155.188.139.311.309.459a1.68 1.68 0 0 1 .428.644c.066.207.189.375.274.375s.156.15.156.334.075.333.166.333.167.15.167.333.075.334.167.334.166.181.166.402.083.431.183.464.224.417.272.851.155.831.234.88.145.272.145.496.075.407.166.407.167.412.167.916.075.917.167.917.166.075.166.167c0 .109-4.59.166-13.438.166h-13.438l.118-1.208c.064-.665.187-1.233.271-1.264s.154-.237.154-.458.075-.403.167-.403.166-.225.166-.5.084-.5.186-.5c.111 0 .156-.198.113-.491-.039-.27-.01-.453.065-.407s.136-.033.136-.175.075-.26.167-.26.167-.15.167-.334.075-.333.166-.333.167-.133.167-.297.15-.404.333-.536.334-.333.334-.446.187-.393.416-.623.417-.46.417-.515c0-.083.373-.52.94-1.1.079-.081.443-.412.81-.735l1.006-.889c.186-.165.43-.269.541-.232s.203-.014.203-.113.098-.181.219-.181.364-.131.541-.292c.328-.297 1.381-.664 2.365-.823.298-.048.542-.155.542-.236s.445-.149.99-.149 1.036-.075 1.093-.166.282-.167.5-.167.443.075.5.167m-168.417.698c0 .046.15.257.334.468s.333.31.333.218-.15-.302-.333-.468-.334-.264-.334-.218m-.333.595c0 .083.206.338.458.566a10.54 10.54 0 0 1 .9.956c.243.298.477.48.522.405s-.361-.574-.9-1.108-.98-.902-.98-.819m1.167.284c0 .122 1.164 1.256 1.289 1.256.061 0-.181-.3-.539-.667-.642-.657-.75-.742-.75-.589m1.942 1.992c.261.312.587.617.724.676s-.046-.197-.408-.569c-.804-.825-.959-.878-.316-.107m2.478 3.423c2.008 2.012 3.685 3.624 3.727 3.582.1-.1-7.016-7.229-7.221-7.236-.087-.003 1.485 1.641 3.494 3.654m-1.052-1.951c.723.669 1.031.851.559.331-.269-.296-.556-.539-.637-.539s-.046.094.078.208m2.298 2.254c0 .13.418.531.799.767.357.22.215.005-.299-.453-.275-.245-.5-.386-.5-.314m2.841 2.802c.133.19.539.603.902.916.496.429.581.467.344.153-.412-.544-1.582-1.548-1.246-1.069m.159 1.036c0 .073.3.425.667.783s.667.59.667.515-.3-.428-.667-.784-.667-.587-.667-.514m1.751.886a4.5 4.5 0 0 0 .73.73l.416.314-.314-.416a4.5 4.5 0 0 0-.73-.73l-.416-.314.314.416m.833 1.774c.366.389.715.706.775.707.133 0-.652-.825-1.109-1.165-.183-.136-.033.07.334.458m.75-.279c0 .085.146.281.324.434s.28.351.225.44-.022.114.075.055.404.152.684.471.536.525.568.457-.377-.547-.909-1.067-.967-.876-.967-.79m1.25 2.319c.263.275.548.5.632.5s-.088-.225-.382-.5-.579-.5-.632-.5.118.225.382.5m1.572.543c.314.34.604.586.644.546.078-.078-.136-.299-.805-.835-.237-.191-.17-.069.161.289m-.007 1.082c.108.206.319.375.468.375s.241-.02.203-.043a11.22 11.22 0 0 1-.469-.375l-.399-.332.197.375M322.5 113.477c-.384.111-.421.208-.466 1.238l-.049 1.118h2.348v-1.073c0-.591-.056-1.109-.126-1.152-.269-.166-1.31-.246-1.707-.131m-165.542.281c-.223.234-.151 12.149.075 12.375.244.244 4.762.281 5.539.045l1.242-.367c.401-.117.827-.309.946-.428s.284-.216.368-.216c.215 0 1.539-1.285 1.539-1.494 0-.095.075-.173.166-.173s.167-.112.167-.25.06-.25.134-.25c.748 0 .913-4.259.217-5.628-.552-1.085-1.781-2.3-2.83-2.798l-1.263-.615c-.39-.205-6.122-.387-6.3-.201m97.031.015c-.064.816.029 12.289.101 12.405.143.232 1.283.178 1.618-.077.247-.187.292-.505.292-2.078v-1.856h1.99c1.147 0 2.034-.071 2.093-.167s.286-.167.51-.167.407-.07.407-.155.162-.207.361-.27c.472-.15 1.139-.823 1.139-1.15 0-.142.056-.259.125-.259.45-.005.796-3.155.375-3.416-.092-.056-.167-.253-.167-.437 0-.405-1.573-1.979-1.977-1.979-.159 0-.383-.094-.497-.208-.243-.243-6.352-.421-6.37-.186m-13.704.497c-.065.066-.118.673-.118 1.351 0 .739-.064 1.193-.159 1.134-.578-.358-1.008.11-1.008 1.096v.982h1.167v3c0 1.889.061 3 .166 3 .092 0 .167.118.167.262 0 1.067 3.206 1.764 4.135.899.674-.628.296-2.224-.448-1.893-1.693.751-2.02.304-2.02-2.756v-2.512h1.315c1.446 0 1.518-.051 1.518-1.085 0-.86-.343-1.081-1.671-1.081h-1.148l-.098-2.417-.839-.049c-.462-.027-.894.004-.959.069M162.333 116c0 .092.188.167.417.167s.417.057.417.127.137.201.305.291l.917.488c.336.177.611.444.611.593s.11.416.245.594.247.53.25.782.08.458.172.458.166.225.166.5-.075.5-.166.5-.167.263-.167.583-.075.584-.167.584-.166.125-.166.278c0 .365-1.421 1.722-1.803 1.722-.164 0-.37.072-.459.161s-1.003.213-2.033.275l-1.872.114v-8.384h1.667c1 0 1.666.067 1.666.167m97 0c0 .092.16.167.356.167.432 0 1.096.736 1.236 1.369.275 1.252-.52 2.297-1.746 2.297-.271 0-.539.075-.596.167s-.661.167-1.343.167H256v-4.334h1.667c1 0 1.666.067 1.666.167m-85.916.708c-1.04.358-1.632.729-2.19 1.375-.85.982-.894 1.047-.894 1.317 0 .136-.07.29-.155.343s-.149.323-.141.601-.072.591-.178.697-.192.35-.192.542a.88.88 0 0 0 .192.543c.106.105.186.42.178.7s.055.507.141.507.155.153.155.341c0 .927 1.89 2.478 3.334 2.735.915.164 2.426.012 2.594-.26.051-.082.222-.149.38-.149.322 0 2.026-1.527 2.026-1.816 0-.101.083-.184.186-.184s.151-.133.108-.297a.58.58 0 0 1 .152-.511c.419-.391.129-4.025-.32-4.025-.07 0-.126-.074-.126-.165 0-.253-.668-1.03-1.398-1.627a.97.97 0 0 0-.512-.208c-.141 0-.257-.06-.257-.132 0-.406-2.183-.638-3.083-.327m11.333.001c-1.439.499-3.083 1.717-3.083 2.284 0 .095-.075.174-.167.174s-.167.135-.167.3-.078.378-.175.475-.175.835-.175 1.641.079 1.546.175 1.642.175.31.175.475.075.3.167.3a.17.17 0 0 1 .167.171c0 .66 2.245 2.162 3.232 2.162.294 0 .624.09.734.2.156.156.245.156.4 0 .11-.11.476-.2.813-.2s.705-.11.821-.25.285-.25.379-.25c.298 0 1.287-.839 1.287-1.091 0-.133.075-.242.167-.242.337 0 .152-.483-.346-.902-.65-.547-.661-.546-1.632.152-1.388.997-3.388.64-4.013-.718-.097-.211-.233-.349-.301-.307-.235.146-.02-2.27.223-2.514.13-.129.236-.324.236-.432s.229-.299.51-.424.478-.311.438-.415c-.165-.428 2.2-.14 2.664.324.737.737 1.218.824 1.668.301.942-1.097.365-1.928-1.997-2.878-.56-.225-1.516-.216-2.2.022m20.963.012c-.295.108-.69.327-.877.487-.43.369-.503.366-.503-.022 0-.532-1.436-.726-1.904-.257-.342.341-.399 8.868-.062 9.204.259.259 1.507.259 1.766 0 .138-.138.2-.989.2-2.752 0-1.404.069-2.682.153-2.842a9.06 9.06 0 0 0 .354-.831c.11-.298.304-.541.43-.541s.23-.075.23-.167c0-.241 1.653-.205 1.894.042.739.757.773.932.773 3.962 0 3.273.018 3.329 1.083 3.329s1.083-.069 1.083-3.189c0-2.876.067-3.297.627-3.936.67-.764 2.604-.39 2.804.542.06.275.17.577.246.672s.16 1.445.189 3l.051 2.828.733.052c.474.034.783-.025.873-.166.202-.319.181-6.593-.023-6.719-.091-.057-.166-.25-.166-.429 0-2.233-3.795-3.174-5.695-1.412l-.441.409-.571-.534c-.906-.847-2.155-1.128-3.247-.73m15.662.004c-.298.097-.542.237-.542.309s-.136.133-.303.133c-.385 0-1.697 1.395-2.089 2.221-1.413 2.978.345 6.447 3.559 7.021.901.161 2.5.007 2.5-.242 0-.072.176-.175.391-.229s.589-.297.833-.541.444-.376.445-.295c.006.312.326-.37.328-.698.005-.642-1.308-1.451-1.525-.94-.542 1.279-4.049 1.074-4.384-.256-.052-.206-.168-.375-.258-.375s-.163-.075-.163-.166c0-.106 1.183-.167 3.216-.167 2.28 0 3.275-.058 3.417-.2.242-.242.267-.967.033-.967-.091 0-.166-.412-.166-.916s-.073-.917-.162-.917-.126-.094-.083-.208c.123-.328-1.113-1.831-1.757-2.137-1.396-.665-2.24-.775-3.29-.43m11.458-.108c-.666.241-1.445.63-1.708.853s-.292.211-.292-.181c0-.505-.6-.71-1.416-.486l-.5.138-.045 4.467c-.05 5.054-.069 4.969 1.113 4.892l.765-.05.046-2.792c.027-1.672.111-2.791.208-2.791.089 0 .163-.152.163-.338 0-.781.968-1.496 2.026-1.496.538 0 .974.075.974.167s.108.167.24.167c.443 0 .509.402.593 3.583.063 2.41.133 3.157.292 3.125a.13.13 0 0 1 .166.167c-.059.297 1.381.384 1.565.094.204-.322.182-7.136-.023-7.136-.092 0-.167-.15-.167-.333s-.07-.334-.155-.334-.204-.152-.263-.339c-.127-.4-1.265-1.161-1.735-1.161-.18 0-.373-.075-.43-.166-.108-.175-.987-.206-1.417-.05m42.883.117c-.293.107-.587.248-.652.313s-.251.12-.413.12-.659.362-1.106.804c-2.899 2.869-1.396 7.864 2.538 8.432 1.005.145 2.349.009 2.511-.254.051-.082.234-.149.408-.149s.375-.098.448-.217.377-.386.675-.594.542-.469.542-.58.15-.31.333-.442c.196-.141.333-.432.333-.704 0-.255.075-.463.167-.463.098 0 .167-.58.167-1.407 0-.774-.075-1.453-.167-1.51s-.167-.286-.167-.51-.058-.406-.13-.406-.274-.244-.449-.542c-.436-.742-.578-.866-1.518-1.338-1.598-.802-2.462-.938-3.52-.553m11.543-.082c-.062.1-.25.181-.42.181-.364 0-1.559.615-1.968 1.013-.488.474-.871.983-.871 1.156 0 .091-.084.165-.186.165-.108 0-.153.172-.108.411.044.227.015.372-.063.324s-.143.247-.143.658c0 .448-.083.774-.208.816-.156.052-.161.13-.023.305.102.13.23.684.284 1.233s.176 1.024.272 1.056.175.129.175.216.253.412.563.721c2.111 2.111 4.977 2.14 6.979.07.584-.604.575-.759-.072-1.337-.662-.591-.636-.593-1.615.11-.792.57-2.855.891-2.855.445 0-.076-.169-.229-.375-.34-.881-.474-1.711-3.522-.958-3.522.091 0 .166-.088.166-.196 0-1.203 2.776-1.79 3.807-.804.945.903 2.301.41 2.163-.786-.06-.523-1.495-1.604-2.386-1.796-1.076-.232-2.048-.277-2.158-.099m9.741-.034c-2.041.749-2.955 1.736-3.394 3.664-.27 1.189-.264 1.303.172 3.298.117.535.418.92.717.92.103 0 .164.096.137.213s.006.211.073.209.242.166.388.375c.384.548 2.044 1.243 2.907 1.217 1.267-.037 2.672-.597 3.555-1.418l.471-.437-.314-.537c-.498-.853-1.048-.948-1.816-.315-1.059.873-2.719.792-3.594-.175-1.019-1.126-1.035-1.119 2.573-1.17l3.208-.045-.077-2.167c-.078-2.175-3.067-4.343-5.006-3.632m9.5.07c-2.502.675-3.606 3.664-1.744 4.72.17.096.459.307.641.467s.506.292.718.292.385.075.385.166.183.167.407.167.448.066.498.148.354.197.675.257c.684.128.963.743.532 1.173-.292.293-2.192.364-2.362.089-.057-.092-.218-.167-.359-.167s-.471-.153-.733-.339c-.527-.375-1.067-.212-1.254.38-.051.161-.168.292-.26.292-.779 0 .598 1.422 1.564 1.617.252.05.459.157.459.238 0 .187 3.287.192 3.361.005.03-.078.273-.247.54-.375s.567-.385.667-.568.24-.376.311-.429c.189-.14.348-1.721.224-2.217-.226-.903-1.355-1.71-3.058-2.188-2.227-.625-2.389-1.649-.255-1.613.605.011 1.143.078 1.196.15.451.61 1.597.63 1.597.029a.49.49 0 0 1 .208-.365c.52-.333.227-.917-.666-1.329-1.735-.799-2.225-.889-3.292-.6m8.833.013c-1.527.652-1.787.827-2.125 1.425-.114.203-.208.52-.208.705s-.075.336-.167.336c-.687 0 .179 1.864 1.125 2.42.298.175.542.377.542.449s.173.131.383.131.455.06.542.133.571.274 1.075.447c1.34.46 1.601.793 1.029 1.311-.344.311-2.529.405-2.529.109 0-.092-.12-.167-.266-.167s-.483-.154-.748-.343l-.482-.344-.585.569c-.881.855-.761 1.186.664 1.846l.956.457c.663.339 3.051.173 3.819-.266.399-.228.669-.416.6-.417s.025-.152.209-.335.333-.479.333-.657.075-.37.167-.427.166-.356.166-.666-.075-.61-.166-.667-.167-.237-.167-.4c0-.552-1.083-1.315-2.595-1.826-.8-.271-1.587-.606-1.749-.744s-.345-.203-.407-.141-.018-.095.096-.347c.142-.313.346-.468.64-.487.714-.047 1.926.056 2.015.171.482.621 1.359.642 1.714.04.315-.533.387-1.516.111-1.516-.096 0-.485-.15-.864-.333s-.859-.334-1.066-.334-.422-.075-.478-.166c-.133-.215-1.047-.196-1.584.034m15.426-.05c-.061.1-.227.182-.368.182s-.466.149-.721.332c-.459.326-.467.326-.55.007-.104-.395-.757-.579-1.538-.433l-.582.109v4.543c0 5.039-.022 4.942 1.096 4.942 1.001 0 1.032-.095 1.096-3.35l.058-2.933.608-.608c.869-.869 2.063-.887 2.905-.046l.563.563.091 6.291.72.052c1.2.086 1.196.099 1.196-3.822 0-1.927-.066-3.48-.148-3.48s-.198-.197-.258-.437c-.139-.553-.533-.954-.785-.798-.115.072-.149.047-.082-.06.137-.222-.638-.782-1.31-.946-.992-.242-1.878-.29-1.991-.108m10.074.016a1.31 1.31 0 0 1-.593.164c-.189.001-.505.152-.702.336s-.429.333-.517.333c-.232 0-1.188 1.252-1.188 1.556 0 .142-.075.304-.166.361s-.167.835-.167 1.76c0 .993.067 1.656.167 1.656.091 0 .166.158.166.352 0 1.521 4.313 3.236 5.401 2.147.091-.091.284-.165.429-.165s.372-.15.504-.334c.338-.469.5-.415.5.167 0 .275-.075.5-.167.5s-.167.085-.167.189c0 .271-.865.977-1.198.977-.155.001-.328.076-.385.167s-.469.167-.917.167-.86-.075-.916-.167-.246-.166-.421-.166-.672-.198-1.104-.44l-.787-.439-.386.449c-.452.525-.543 1.596-.136 1.596.138 0 .25.082.25.181s.094.146.209.105.347.046.517.194c.575.503 5.139.354 5.771-.188.187-.16.382-.292.434-.292.162 0 .569-.468.569-.654 0-.099.075-.179.167-.179s.167-.144.167-.319.092-.351.205-.388c.155-.052.222-1.231.269-4.747l.063-4.678-.519-.114c-.84-.185-1.518.037-1.518.496v.39l-.709-.365c-1.443-.744-2.574-.964-3.125-.608m-149.041.115c-.339.088-.463 7.218-.125 7.218.091 0 .166.112.166.25s.066.25.146.25.193.233.25.518c.076.38.172.492.362.419.15-.058.216-.03.157.066-.056.091.034.214.2.274s.428.215.581.346c.532.456 2.861.334 3.542-.186.697-.531.725-.533.792-.062.045.313.173.384.774.427 1.227.088 1.196.213 1.196-4.887v-4.544l-.721-.108c-1.304-.196-1.279-.254-1.279 2.921 0 1.766-.062 2.816-.166 2.816-.092 0-.167.147-.167.328 0 .668-1.093 1.505-1.964 1.505-.791 0-1.703-.524-1.703-.977 0-.104-.075-.189-.166-.189-.106 0-.167-1.161-.167-3.149 0-3.571-.052-3.669-1.708-3.236m73.708.002c-.466.185-.495.462-.497 4.77-.003 4.88-.015 4.835 1.203 4.747l.711-.051.046-2.042c.027-1.174.116-2.041.209-2.041s.161-.338.161-.75.067-.75.149-.75.194-.181.25-.403c.057-.23.314-.497.601-.624.275-.122.5-.278.5-.347s.221-.126.49-.126.537-.075.594-.167.244-.167.417-.167c.487 0 .46-1.937-.029-2.092-.677-.215-2.023.233-2.759.918-.488.455-.518.441-.578-.284-.053-.643-.69-.899-1.468-.591m56.958.055c-.296.18-.467 8.508-.19 9.231.123.322 1.558.37 1.865.063.228-.227.291-8.732.068-9.083-.178-.28-1.39-.427-1.743-.211m-146.819 2.187c.03.078.187.141.348.141.968 0 1.518 2.803.78 3.973-1.467 2.323-4.767 1.301-4.767-1.477 0-1.182.314-2.163.693-2.163.102 0 .31-.144.462-.32.399-.46 2.316-.578 2.484-.154m48.304.236c.215.214.39.468.39.564s.075.174.167.174.167.112.167.25c0 .21-.362.25-2.254.25h-2.254l.295-.458c.915-1.421 2.496-1.774 3.489-.78m54.476-.041c.276.167.603.505.726.75.248.49.522 2.882.317 2.755-.071-.043-.129.006-.129.11 0 .241-.915 1.164-1.154 1.164-.098 0-.179.075-.179.167s-.468.166-1.069.166c-2.58 0-3.803-3.147-1.871-4.815.171-.147.404-.356.518-.464.456-.431 2.003-.341 2.841.167m20.95.175c.252.286.46.608.462.715s.096.232.211.279-.823.09-2.084.097c-2.13.012-2.945-.182-2.16-.515.072-.03.298-.294.503-.586.628-.894 2.275-.888 3.068.01m43.798-.378c0 .082.093.148.208.148 1.145-.006 1.676 2.403.746 3.389-1.644 1.743-4.621.846-4.621-1.393 0-.869.538-1.989.958-1.993.115-.001.209-.073.209-.159s.281-.18.625-.208c.887-.074 1.875.04 1.875.216M179.452 133.27c-.065.066-.119 2.956-.119 6.424V146h2.004l-.087-12.75-.84-.049c-.462-.027-.893.004-.958.069m23.048.23c-.863.863-.35 2.167.853 2.167 1.228 0 1.314-.073 1.314-1.125 0-1.331-1.268-1.941-2.167-1.042m-43.5.126c0 .069-.244.232-.542.362s-.654.367-.791.527c-.739.858-.85 1.035-.773 1.237.047.121-.023.262-.155.312-.306.118-.328 1.787-.031 2.3.361.621 1.408 1.636 1.689 1.636.148 0 .27.075.27.167s.187.166.416.166.417.075.417.167.225.167.5.167.5.075.5.166.169.166.375.164c.775-.006 2.289.574 2.29.878.001.16.077.292.168.292.583 0-.006 1.241-.78 1.644-.449.233-2.828.251-2.97.022-.056-.091-.222-.166-.369-.166s-.498-.176-.782-.391c-1.079-.818-1.246-.85-1.694-.33-.598.696-.545 1.433.137 1.912.298.209.566.437.595.506s.312.174.627.233.614.174.665.255.387.148.748.148.657.075.657.167.333.166.74.166.786-.075.843-.166.436-.167.843-.167.74-.067.74-.149.197-.198.437-.258c.486-.122.622-.24 1.284-1.116.93-1.232.334-4.644-.812-4.644-.133 0-.242-.056-.242-.126s-.206-.213-.458-.321c-1.308-.557-1.78-.719-2.092-.719-.904 0-2.227-.622-2.588-1.217-.337-.557.141-1.579.805-1.719a5.73 5.73 0 0 0 .81-.247c.236-.096.47-.1.583-.01.105.083.546.202.982.265s.791.185.791.271.134.157.297.157.405.15.537.333c.315.438.369.427.98-.198.583-.596.662-1.124.228-1.509-.471-.419-1.526-.96-1.87-.96-.175 0-.365-.075-.422-.166-.119-.193-3.583-.232-3.583-.041m36.625.482c-.241.069-.292.28-.292 1.227v1.144l-.541.052c-.536.052-.543.063-.592 1.011l-.05.958h1.183v3.13c0 2.939.021 3.144.334 3.37.183.132.333.336.333.453s.112.214.25.214.25.075.25.166.225.167.5.167.5.075.5.167.3.166.667.166.666-.075.666-.166.193-.167.429-.167c.835 0 1.438-1.98.613-2.011l-1.292-.042-1-.03-.045-2.709-.046-2.708h2.691l-.1-1.917-2.583-.097v-1.067c0-.586-.063-1.105-.141-1.153-.227-.14-1.417-.249-1.734-.158m-24.215 2.382c-1.967.31-3.743 2.13-3.743 3.837 0 .37-.075.673-.167.673s-.167.188-.167.417.075.416.167.416.167.338.167.75.072.75.161.75.124.099.078.219.068.357.255.526.339.38.339.47c0 .274.889.961 1.375 1.064.252.053.458.162.458.242s.188.146.417.146.417.075.417.167.444.166 1 .166 1-.074 1-.166.225-.167.5-.167.5-.075.5-.167.152-.166.338-.166.379-.105.428-.234.245-.274.434-.323c.227-.06.309-.178.243-.35-.059-.154-.01-.26.119-.26.353 0 .771-.573.771-1.055 0-.245.075-.445.167-.445.205 0 .226-3.05.023-3.461-.546-1.106-.813-1.51-1.262-1.912-1.048-.935-2.568-1.365-4.018-1.137m39.382-.029c-.344.033-.625.13-.625.216s-.188.156-.417.156-.417.075-.417.167-.095.167-.212.167c-.688 0-2.111 2.213-2.118 3.294a1.61 1.61 0 0 1-.207.704c-.161.258-.161.37 0 .531.112.112.204.485.204.827s.075.67.167.727.166.249.166.427.064.323.141.323.281.262.454.582c.213.396.542.676 1.025.875.392.161.713.349.713.418s.226.125.501.125.5.075.5.167.408.166.906.166.954-.075 1.01-.166.286-.167.51-.167.407-.075.407-.167.145-.166.321-.166.434-.113.572-.25.298-.25.357-.25c.136 0 .583-.443.583-.579 0-.056.15-.263.334-.46s.333-.531.333-.743.08-.385.178-.385c.347 0 .162-2.996-.237-3.831-.926-1.937-2.81-2.928-5.149-2.708m11.791-.01c-.579.077-1.523.484-1.669.72-.173.28-.389.177-.444-.213-.045-.318-.17-.382-.83-.425-1.287-.083-1.307-.011-1.307 4.824 0 4.92-.069 4.643 1.169 4.643h.966l.057-3.028c.043-2.232.113-3.046.267-3.097a.35.35 0 0 0 .208-.317c0-.257.466-.808.683-.808.067 0 .179-.056.248-.125.497-.498 2.402.19 2.402.867 0 .096.075.175.167.175.105 0 .167 1.166.167 3.166V146h2v-3.489c0-3.33-.135-4.487-.498-4.262-.096.059-.123-.009-.064-.162.062-.163-.05-.388-.294-.589l-.598-.497c-.472-.399-1.754-.667-2.63-.55m-38.383.249c-.255.255-.286 6.894-.033 7.05.091.057.166.249.166.427s.057.323.126.323.223.218.34.484c.122.275.391.527.624.586.226.057.41.177.41.267s.258.163.574.163.62.075.676.167.399.166.76.166.657-.075.657-.166.181-.167.403-.167.428-.063.458-.141c.112-.284.972-.383.972-.112 0 .198.217.253 1 .253h1v-4.563c0-5.121.031-4.994-1.196-4.906l-.72.052-.046 2.959c-.027 1.783-.11 2.958-.208 2.958-.09 0-.163.14-.163.311 0 .971-2.152 1.631-3.066.939-.174-.132-.38-.2-.457-.153s-.098-.022-.047-.155.013-.291-.085-.352c-.116-.071-.178-1.155-.178-3.086 0-1.637-.046-3.095-.101-3.24-.124-.322-1.559-.371-1.866-.064m18.411-.089c-.061.061-.111 2.199-.111 4.75V146h.982c1.258 0 1.185.294 1.185-4.738 0-3.867-.025-4.233-.305-4.486-.301-.273-1.528-.388-1.751-.165m27.859.267c-.743.451-1.303 1.137-1.303 1.597 0 .186-.075.385-.167.442s-.167.323-.167.593.075.49.167.49.167.154.167.343c0 .217.07.3.192.224s.147-.045.068.083c-.074.119.034.331.266.522l.592.492c.11.093.35.169.531.169s.377.075.434.167.286.167.51.167.407.075.407.166.138.167.307.167c.508 0 1.36.505 1.357.804-.01 1.095-1.468 1.189-3.449.223l-.869-.424-.506.53c-.598.626-.683 1.352-.174 1.485.184.048.334.15.334.227s.262.189.583.249.583.176.583.258.225.148.5.148.5.075.5.167.408.166.907.166.953-.075 1.01-.166.286-.167.51-.167.407-.075.407-.167.123-.166.273-.166c.373 0 1.227-.921 1.227-1.322 0-.179.075-.372.166-.428s.167-.399.167-.76-.075-.657-.167-.657-.166-.137-.166-.304c0-.628-1.404-1.539-3.283-2.13-1.533-.482-2.008-1.528-.717-1.58.983-.04 1.92.053 1.972.194.03.085.162.153.292.153s.236.075.236.167c0 .338 1.026.185 1.118-.167.048-.183.153-.333.234-.333s.148-.226.148-.502c0-1.175-3.768-1.987-5.197-1.12m-57.137 1.789c0 .091.081.166.179.166 1.437 0 1.752 3.43.43 4.68-2.647 2.503-5.875-1.854-3.322-4.483.117-.121.213-.29.213-.375s.563-.155 1.25-.155c.723 0 1.25.07 1.25.167m39.334 0c0 .091.122.166.272.166.314 0 .894.612.894.943 0 .123.075.224.167.224s.167.15.167.333.075.334.166.334.167.337.167.75-.075.75-.167.75-.166.15-.166.333-.07.333-.156.333-.197.133-.249.295c-.461 1.454-3.852 1.122-4.453-.436-.23-.596-.111-2.897.154-2.985.112-.038.204-.137.204-.221 0-.222.621-.809.736-.694.053.053.097.009.097-.098 0-.128.369-.194 1.083-.194.611 0 1.084.073 1.084.167" fill="#fcfcfc"/></svg>