<svg id="svg" version="1.1" xmlns="http://www.w3.org/2000/svg" xmlns:xlink="http://www.w3.org/1999/xlink" width="400" height="372.21556886227546" viewBox="0, 0, 400,372.21556886227546"><g id="svgg"><path id="path0" d="M166.098 138.474 C 127.311 177.289,120.612 184.145,121.238 184.390 C 121.643 184.548,142.463 184.689,167.505 184.704 L 213.035 184.730 213.035 138.963 C 213.035 95.209,213.006 93.189,212.365 93.021 C 211.867 92.891,199.974 104.575,166.098 138.474 " stroke="none" fill="#d0cb17" fill-rule="evenodd"></path><path id="path1" d="M120.928 1.006 C 120.204 1.194,211.275 92.720,212.197 92.732 C 212.567 92.736,212.663 83.293,212.663 46.741 L 212.663 0.745 167.132 0.788 C 142.090 0.812,121.299 0.910,120.928 1.006 " stroke="none" fill="#0c9cdc" fill-rule="evenodd"></path><path id="path2" d="M213.035 138.920 C 213.035 179.500,213.100 184.730,213.597 184.730 C 213.906 184.730,216.163 182.761,218.612 180.354 C 221.061 177.947,223.867 175.200,224.847 174.249 C 225.827 173.298,230.515 168.606,235.265 163.821 C 240.014 159.036,244.916 154.143,246.159 152.948 C 247.401 151.753,248.417 150.698,248.417 150.603 C 248.417 150.509,258.431 140.472,270.670 128.299 C 296.990 102.122,296.705 102.406,299.123 99.907 C 300.164 98.831,301.164 97.952,301.346 97.952 C 301.527 97.952,301.676 97.820,301.676 97.659 C 301.676 97.498,302.500 96.538,303.507 95.525 C 304.514 94.512,305.258 93.554,305.161 93.396 C 305.064 93.239,284.296 93.110,259.010 93.110 L 213.035 93.110 213.035 138.920 " stroke="none" fill="#9cd42c" fill-rule="evenodd"></path><path id="path3" d="M213.127 46.557 L 213.222 92.368 259.181 92.372 C 284.459 92.375,305.201 92.316,305.274 92.243 C 305.347 92.170,304.903 91.582,304.286 90.937 C 303.670 90.292,303.166 89.880,303.166 90.020 C 303.166 90.160,302.747 89.707,302.235 89.013 C 301.723 88.319,301.302 87.909,301.301 88.103 C 301.300 88.296,300.966 87.952,300.559 87.337 C 300.152 86.723,299.818 86.339,299.816 86.486 C 299.815 86.632,299.426 86.381,298.952 85.927 C 298.478 85.474,298.152 84.977,298.229 84.823 C 298.305 84.669,298.184 84.544,297.959 84.544 C 297.552 84.544,295.359 82.398,292.586 79.286 C 291.786 78.388,291.254 77.905,291.404 78.212 C 291.553 78.520,291.409 78.436,291.083 78.026 C 289.918 76.563,288.111 74.675,287.912 74.714 C 287.801 74.736,287.416 74.443,287.058 74.062 C 286.699 73.682,286.481 73.371,286.572 73.371 C 286.663 73.371,280.755 67.432,273.443 60.174 C 257.734 44.580,261.100 47.944,250.031 36.778 C 245.005 31.709,240.742 27.561,240.558 27.561 C 240.374 27.561,240.223 27.396,240.223 27.196 C 240.223 26.995,236.997 23.646,233.054 19.754 C 229.111 15.861,225.755 12.547,225.596 12.390 C 225.438 12.233,224.313 11.079,223.096 9.825 C 221.879 8.571,220.798 7.631,220.693 7.737 C 220.588 7.842,220.384 7.622,220.241 7.248 C 219.938 6.460,215.339 1.862,214.853 1.862 C 214.673 1.862,214.525 1.611,214.525 1.304 C 214.525 0.993,214.194 0.745,213.779 0.745 C 213.035 0.745,213.033 0.932,213.127 46.557 M212.291 185.442 C 212.291 185.821,213.243 185.764,213.645 185.361 C 213.788 185.219,213.541 185.102,213.097 185.102 C 212.654 185.102,212.291 185.255,212.291 185.442 M141.806 185.754 C 152.304 185.809,169.483 185.809,179.981 185.754 C 190.480 185.699,181.890 185.654,160.894 185.654 C 139.898 185.654,131.308 185.699,141.806 185.754 M122.615 229.066 C 121.782 229.400,121.768 229.501,121.870 234.536 L 121.974 239.665 137.709 239.762 L 153.445 239.859 153.445 281.755 L 153.445 323.650 159.397 323.650 C 165.261 323.650,165.352 323.638,165.552 322.812 C 165.664 322.351,165.709 303.496,165.652 280.912 L 165.549 239.851 181.285 239.851 L 197.020 239.851 197.020 234.490 C 197.020 229.946,196.931 229.096,196.431 228.904 C 195.463 228.532,123.551 228.690,122.615 229.066 M24.674 229.669 C 24.305 229.818,24.209 239.699,24.209 277.322 L 24.209 324.786 30.074 324.684 L 35.940 324.581 36.035 277.304 C 36.110 239.728,36.034 229.966,35.663 229.731 C 35.160 229.412,25.447 229.358,24.674 229.669 M351.840 232.641 C 351.699 232.783,351.583 237.480,351.583 243.079 L 351.583 253.259 346.927 253.259 L 342.272 253.259 342.272 258.473 L 342.272 263.687 346.907 263.687 L 351.542 263.687 351.684 286.872 C 351.787 303.546,351.955 310.526,352.281 311.732 C 353.453 316.053,356.182 319.997,359.032 321.487 C 359.544 321.755,360.130 322.165,360.335 322.398 C 360.540 322.632,361.378 323.031,362.197 323.285 C 363.017 323.539,363.867 323.889,364.087 324.062 C 365.538 325.205,379.063 325.163,379.454 324.015 C 379.522 323.814,379.941 323.646,380.385 323.642 C 381.385 323.632,384.422 322.281,384.807 321.676 C 384.963 321.430,385.094 319.171,385.097 316.655 C 385.103 311.684,384.846 311.095,383.144 312.185 C 382.685 312.479,381.471 312.932,380.447 313.193 C 379.423 313.454,378.333 313.756,378.026 313.866 C 376.879 314.275,371.120 314.145,370.205 313.689 C 369.693 313.435,369.001 313.225,368.668 313.224 C 367.766 313.220,365.081 310.532,364.337 308.887 C 363.747 307.581,363.677 305.445,363.577 285.568 L 363.468 263.687 374.006 263.681 C 379.802 263.678,384.758 263.539,385.021 263.373 C 385.378 263.146,385.472 261.858,385.393 258.258 L 385.289 253.445 374.401 253.346 L 363.513 253.248 363.414 242.918 L 363.315 232.588 357.706 232.486 C 354.622 232.430,351.982 232.500,351.840 232.641 M92.551 252.170 C 91.732 252.343,90.498 252.570,89.808 252.674 C 87.796 252.978,83.202 254.759,82.682 255.438 C 82.579 255.572,82.057 255.907,81.521 256.182 C 80.461 256.727,75.121 261.815,74.513 262.858 C 74.248 263.312,74.135 261.996,74.127 258.380 L 74.115 253.259 68.343 253.259 L 62.570 253.259 62.570 288.454 L 62.570 323.650 68.343 323.650 L 74.115 323.650 74.127 302.886 C 74.138 283.429,74.385 277.205,75.186 276.207 C 75.369 275.978,75.633 275.260,75.772 274.610 C 76.424 271.558,81.101 266.421,84.930 264.552 C 88.270 262.922,95.412 262.400,99.907 263.458 C 101.085 263.735,102.048 263.893,102.048 263.810 C 102.048 263.726,102.409 263.994,102.850 264.405 C 103.290 264.815,103.778 265.073,103.932 264.977 C 104.188 264.820,107.345 267.769,108.774 269.501 C 109.841 270.793,111.333 274.690,111.586 276.846 C 111.724 278.019,111.981 279.067,112.157 279.176 C 112.333 279.285,112.477 289.336,112.477 301.512 L 112.477 323.650 118.063 323.650 L 123.650 323.650 123.650 299.420 C 123.650 274.375,123.504 271.414,122.112 268.156 C 121.109 265.812,119.166 262.190,118.465 261.361 C 116.208 258.692,112.957 255.866,112.144 255.866 C 111.917 255.866,111.732 255.710,111.732 255.519 C 111.732 255.328,111.355 255.056,110.894 254.916 C 110.433 254.775,109.339 254.338,108.463 253.945 C 104.576 252.202,96.603 251.313,92.551 252.170 M219.739 252.328 C 218.203 252.594,216.611 252.932,216.201 253.079 C 212.984 254.234,210.590 255.278,210.151 255.717 C 209.865 256.004,209.433 256.241,209.191 256.245 C 208.760 256.252,206.402 257.745,205.085 258.845 C 203.311 260.327,200.372 263.323,200.372 263.650 C 200.372 263.852,200.068 264.236,199.696 264.504 C 199.323 264.772,198.695 265.574,198.299 266.287 C 197.903 267.001,197.381 267.798,197.138 268.059 C 196.895 268.320,196.591 268.867,196.461 269.276 C 196.331 269.684,196.087 270.019,195.918 270.019 C 195.749 270.019,195.310 271.024,194.942 272.253 C 194.574 273.482,194.159 274.488,194.021 274.488 C 193.883 274.488,193.555 275.535,193.291 276.816 C 193.028 278.096,192.671 279.326,192.499 279.550 C 191.558 280.771,191.543 295.631,192.481 297.484 C 192.664 297.843,193.028 299.185,193.292 300.466 C 193.555 301.746,193.878 302.793,194.011 302.793 C 194.143 302.793,194.476 303.557,194.752 304.490 C 195.027 305.423,195.448 306.387,195.687 306.631 C 195.926 306.876,196.344 307.621,196.616 308.287 C 196.888 308.953,197.238 309.497,197.393 309.497 C 197.548 309.497,197.885 310.004,198.141 310.623 C 198.398 311.243,198.801 311.871,199.038 312.020 C 199.274 312.169,200.115 313.092,200.906 314.071 C 201.696 315.051,203.199 316.516,204.244 317.327 C 205.290 318.138,206.390 319.012,206.690 319.270 C 207.933 320.339,213.435 323.107,215.084 323.492 C 215.698 323.635,216.369 323.876,216.574 324.028 C 218.564 325.499,235.784 325.518,237.803 324.051 C 238.007 323.902,238.929 323.569,239.851 323.311 C 243.612 322.259,249.465 318.524,253.352 314.695 C 255.961 312.126,256.035 311.433,253.911 309.512 C 248.595 304.707,248.930 304.856,247.175 306.513 C 246.122 307.506,244.658 308.703,242.040 310.708 C 241.572 311.066,241.040 311.359,240.857 311.359 C 240.674 311.359,240.080 311.669,239.536 312.047 C 238.992 312.426,237.751 312.965,236.778 313.246 C 235.805 313.527,235.009 313.860,235.009 313.986 C 235.009 314.112,234.800 314.228,234.544 314.244 C 234.288 314.260,233.240 314.412,232.216 314.583 C 228.622 315.180,220.238 314.768,219.739 313.969 C 219.637 313.805,218.863 313.486,218.019 313.259 C 217.175 313.032,216.059 312.512,215.539 312.103 C 215.019 311.694,214.406 311.359,214.175 311.359 C 213.945 311.359,213.660 311.108,213.543 310.801 C 213.425 310.493,213.137 310.240,212.902 310.237 C 212.273 310.229,208.339 306.095,208.034 305.121 C 207.889 304.660,207.635 304.283,207.469 304.283 C 207.303 304.283,206.946 303.738,206.677 303.073 C 206.408 302.407,206.057 301.771,205.897 301.660 C 205.737 301.549,205.309 300.292,204.945 298.867 C 204.581 297.442,204.179 296.192,204.052 296.089 C 203.925 295.987,203.749 295.275,203.661 294.507 L 203.502 293.110 230.801 293.110 L 258.101 293.110 258.173 291.527 C 258.310 288.514,258.056 282.865,257.750 282.123 C 257.581 281.713,257.239 280.037,256.990 278.399 C 256.741 276.760,256.409 275.251,256.253 275.047 C 256.097 274.842,255.851 274.171,255.707 273.557 C 255.427 272.364,253.336 267.723,252.937 267.412 C 252.806 267.309,252.453 266.723,252.152 266.108 C 250.846 263.443,244.460 257.210,242.028 256.227 C 241.343 255.950,240.648 255.504,240.484 255.236 C 240.320 254.968,239.901 254.748,239.553 254.746 C 239.205 254.745,238.475 254.512,237.932 254.228 C 236.690 253.580,234.834 252.991,233.147 252.708 C 226.661 251.623,224.222 251.553,219.739 252.328 M266.294 253.760 C 266.294 254.516,267.416 256.611,267.820 256.611 C 268.015 256.611,268.334 257.030,268.529 257.542 C 268.724 258.054,269.017 258.473,269.180 258.473 C 269.343 258.473,269.787 259.050,270.167 259.755 C 270.547 260.460,271.088 261.125,271.369 261.233 C 271.651 261.341,271.881 261.680,271.881 261.986 C 271.881 262.293,272.216 262.723,272.626 262.942 C 273.035 263.162,273.371 263.577,273.371 263.865 C 273.371 264.154,273.664 264.609,274.022 264.876 C 274.381 265.144,275.248 266.201,275.950 267.225 C 276.651 268.250,277.489 269.374,277.812 269.725 C 278.474 270.443,278.842 270.928,281.719 274.860 C 284.353 278.461,284.980 279.284,285.661 280.032 C 285.968 280.369,286.541 281.141,286.935 281.747 C 287.849 283.156,288.261 283.674,289.292 284.715 C 289.753 285.180,290.130 285.698,290.130 285.866 C 290.130 286.034,290.483 286.547,290.915 287.007 L 291.699 287.842 290.635 289.265 C 290.050 290.048,289.404 290.871,289.199 291.093 C 288.994 291.315,288.492 291.961,288.082 292.529 C 287.313 293.593,284.997 296.599,282.170 300.202 C 281.278 301.338,280.317 302.677,280.033 303.177 C 279.748 303.678,279.223 304.309,278.864 304.579 C 278.506 304.849,278.212 305.221,278.212 305.405 C 278.212 305.588,277.835 306.136,277.374 306.620 C 276.913 307.105,276.212 307.961,275.816 308.522 C 275.420 309.082,274.707 309.992,274.233 310.543 C 273.759 311.095,273.371 311.647,273.371 311.771 C 273.371 311.894,272.993 312.423,272.533 312.945 C 272.072 313.467,271.359 314.340,270.950 314.885 C 270.540 315.430,269.924 316.188,269.581 316.569 C 269.238 316.950,268.765 317.623,268.529 318.063 C 268.078 318.905,267.406 319.741,266.015 321.188 C 263.920 323.366,264.530 323.650,271.307 323.650 C 275.755 323.650,277.546 323.522,277.830 323.184 C 278.227 322.712,279.503 321.048,281.192 318.802 C 281.704 318.121,284.028 315.120,286.357 312.134 C 288.686 309.147,290.675 306.411,290.777 306.052 C 290.879 305.694,291.088 305.400,291.241 305.400 C 291.395 305.400,292.130 304.604,292.875 303.631 C 293.621 302.658,294.487 301.527,294.800 301.117 C 295.114 300.708,295.865 299.702,296.470 298.883 C 298.617 295.976,298.307 295.926,301.117 299.636 C 301.527 300.177,302.154 300.983,302.511 301.427 C 303.426 302.567,305.082 304.726,305.959 305.925 C 306.369 306.484,308.009 308.648,309.605 310.734 C 312.742 314.833,313.063 315.258,314.716 317.505 C 315.319 318.324,316.151 319.336,316.565 319.752 C 316.979 320.169,317.318 320.706,317.318 320.944 C 317.318 321.183,317.545 321.512,317.823 321.676 C 318.100 321.840,318.525 322.351,318.767 322.812 C 319.198 323.632,319.345 323.650,325.711 323.650 C 333.655 323.650,333.538 323.768,329.833 319.488 C 329.536 319.145,329.100 318.504,328.864 318.063 C 328.628 317.623,328.155 316.950,327.812 316.569 C 327.469 316.188,326.853 315.433,326.443 314.891 C 326.034 314.348,325.407 313.542,325.050 313.098 C 324.099 311.914,322.454 309.766,321.601 308.595 C 319.716 306.004,316.449 301.733,314.419 299.205 C 314.068 298.768,313.445 297.938,313.035 297.360 C 312.626 296.783,311.830 295.778,311.266 295.127 C 310.703 294.475,310.242 293.839,310.242 293.712 C 310.242 293.586,309.907 293.105,309.497 292.644 C 307.413 290.299,305.773 288.013,305.773 287.451 C 305.773 287.180,306.108 286.748,306.518 286.492 C 306.927 286.237,307.263 285.786,307.263 285.490 C 307.263 285.195,307.473 284.819,307.731 284.655 C 307.988 284.492,308.784 283.558,309.500 282.582 C 310.215 281.605,311.136 280.406,311.546 279.918 C 311.955 279.429,312.586 278.636,312.947 278.155 C 313.308 277.674,314.440 276.251,315.461 274.992 C 316.483 273.733,317.318 272.579,317.318 272.428 C 317.318 272.276,317.696 271.777,318.156 271.318 C 318.617 270.859,319.413 269.873,319.926 269.125 C 320.438 268.378,321.192 267.365,321.601 266.875 C 322.365 265.961,323.340 264.727,324.482 263.230 C 324.837 262.765,325.592 261.782,326.158 261.047 C 326.725 260.312,327.523 259.239,327.933 258.663 C 328.343 258.086,329.013 257.265,329.423 256.838 C 329.832 256.411,330.377 255.664,330.633 255.177 C 331.632 253.276,331.578 253.259,324.767 253.259 C 320.795 253.259,318.436 253.398,318.436 253.631 C 318.436 253.836,318.142 254.328,317.784 254.725 C 317.426 255.122,316.842 255.834,316.486 256.308 C 316.131 256.782,315.377 257.771,314.810 258.506 C 314.244 259.241,313.445 260.317,313.035 260.898 C 312.626 261.479,311.913 262.322,311.453 262.770 C 310.992 263.219,310.615 263.703,310.615 263.845 C 310.615 264.062,308.598 266.821,308.007 267.412 C 307.199 268.220,303.166 273.789,303.166 274.097 C 303.166 274.312,303.012 274.488,302.825 274.488 C 302.638 274.488,301.845 275.368,301.064 276.443 C 298.683 279.720,299.039 279.743,296.276 276.134 C 295.866 275.599,295.154 274.733,294.693 274.211 C 294.232 273.689,293.855 273.127,293.855 272.963 C 293.855 272.799,293.478 272.235,293.017 271.710 C 292.556 271.185,291.844 270.315,291.434 269.775 C 291.024 269.236,290.312 268.392,289.851 267.900 C 289.390 267.408,289.013 266.877,289.013 266.720 C 289.013 266.563,288.717 266.110,288.356 265.713 C 287.994 265.316,287.058 264.111,286.276 263.035 C 285.493 261.960,284.699 261.080,284.512 261.080 C 284.325 261.080,284.171 260.916,284.171 260.715 C 284.171 260.514,282.966 258.755,281.493 256.805 L 278.815 253.259 272.554 253.259 C 267.556 253.259,266.294 253.360,266.294 253.760 M230.540 262.731 C 234.901 263.730,238.454 266.008,240.788 269.299 C 242.152 271.223,243.575 273.704,243.575 274.158 C 243.575 274.453,243.841 275.074,244.166 275.538 C 244.491 276.002,245.062 277.841,245.433 279.625 C 245.805 281.409,246.227 283.161,246.372 283.520 C 246.620 284.136,245.456 284.171,225.003 284.171 L 203.371 284.171 203.589 282.961 C 203.710 282.295,204.024 281.080,204.287 280.261 C 204.551 279.441,204.964 278.034,205.205 277.134 C 206.090 273.834,212.503 265.177,214.062 265.177 C 214.239 265.177,214.716 264.884,215.121 264.525 C 215.526 264.167,216.103 263.816,216.402 263.745 C 219.165 263.094,222.513 262.155,222.685 261.983 C 223.044 261.624,227.596 262.057,230.540 262.731 M308.082 348.678 C 307.610 349.150,307.412 363.232,307.861 364.402 C 308.014 364.799,308.558 364.991,309.537 364.991 L 310.987 364.991 310.987 356.611 L 310.987 348.231 309.758 348.231 C 309.082 348.231,308.328 348.432,308.082 348.678 M27.436 348.852 C 27.300 348.988,27.188 352.693,27.188 357.085 L 27.188 365.069 31.671 364.937 C 34.253 364.861,36.266 364.638,36.420 364.411 C 36.566 364.194,37.218 363.802,37.869 363.539 C 43.989 361.065,41.319 349.348,34.635 349.348 C 34.046 349.348,33.460 349.181,33.333 348.976 C 33.080 348.565,27.833 348.455,27.436 348.852 M150.186 349.027 C 149.844 349.373,149.721 351.546,149.721 357.244 L 149.721 364.991 151.397 364.991 L 153.073 364.991 153.073 362.423 L 153.073 359.855 155.959 359.719 C 161.292 359.466,163.918 355.016,161.047 351.097 C 159.681 349.231,151.524 347.677,150.186 349.027 M237.138 348.834 C 236.039 349.932,236.900 351.583,238.570 351.583 L 240.268 351.583 240.153 350.186 C 240.039 348.807,238.054 347.917,237.138 348.834 M283.054 348.901 C 283.054 349.065,282.486 349.404,281.792 349.655 C 279.184 350.598,278.725 356.200,281.191 356.983 C 281.601 357.113,281.937 357.357,281.937 357.525 C 281.937 357.693,283.006 358.032,284.313 358.278 C 286.809 358.749,287.753 359.602,287.463 361.124 C 287.233 362.334,283.588 362.303,281.780 361.076 C 280.373 360.121,280.345 360.118,279.682 360.830 C 276.832 363.888,286.028 366.858,289.355 363.954 C 291.835 361.789,291.101 357.057,288.159 356.235 C 287.707 356.109,287.002 355.873,286.592 355.711 C 286.182 355.549,285.093 355.183,284.171 354.896 C 282.945 354.516,282.465 354.161,282.381 353.574 C 282.125 351.780,285.469 350.924,287.252 352.328 C 288.593 353.382,289.990 353.310,290.276 352.171 C 290.603 350.869,290.236 350.220,288.893 349.724 C 288.242 349.483,287.418 349.132,287.063 348.945 C 286.268 348.525,283.054 348.490,283.054 348.901 M338.036 349.173 C 337.348 350.966,337.723 351.583,339.501 351.583 L 341.200 351.583 341.084 350.186 C 340.953 348.602,338.561 347.806,338.036 349.173 M133.333 351.167 C 133.333 352.300,133.172 352.655,132.588 352.808 C 132.046 352.950,131.844 353.316,131.844 354.155 C 131.844 355.059,132.004 355.307,132.588 355.307 C 133.277 355.307,133.333 355.556,133.333 358.602 C 133.333 363.775,134.121 364.976,137.523 364.985 L 139.665 364.991 139.665 363.472 C 139.665 361.985,139.640 361.956,138.449 362.059 C 136.498 362.227,136.313 361.914,136.313 358.451 L 136.313 355.307 137.989 355.307 C 139.656 355.307,139.665 355.300,139.665 354.004 C 139.665 352.707,139.656 352.700,137.989 352.700 L 136.313 352.700 136.313 351.210 L 136.313 349.721 134.823 349.721 C 133.341 349.721,133.333 349.728,133.333 351.167 M328.864 351.167 C 328.864 352.300,328.703 352.655,328.119 352.808 C 327.577 352.950,327.374 353.316,327.374 354.155 C 327.374 355.059,327.535 355.307,328.119 355.307 C 328.808 355.307,328.864 355.556,328.864 358.635 C 328.864 363.926,329.555 364.991,332.987 364.991 L 335.196 364.991 335.196 363.489 C 335.196 362.023,335.167 361.990,333.971 362.070 C 332.017 362.202,331.844 361.907,331.844 358.451 L 331.844 355.307 333.498 355.307 C 335.342 355.307,335.746 354.949,335.410 353.610 C 335.210 352.815,334.972 352.700,333.512 352.700 L 331.844 352.700 331.844 351.210 L 331.844 349.721 330.354 349.721 C 328.872 349.721,328.864 349.728,328.864 351.167 M35.731 352.872 C 40.024 355.582,38.243 361.495,33.008 361.915 L 30.540 362.113 30.540 356.800 L 30.540 351.487 32.437 351.739 C 33.481 351.877,34.963 352.387,35.731 352.872 M157.992 352.584 C 158.702 353.227,158.876 355.133,158.307 356.033 C 158.085 356.384,157.110 356.627,155.519 356.728 L 153.073 356.884 153.073 354.182 L 153.073 351.480 155.198 351.730 C 156.368 351.868,157.625 352.252,157.992 352.584 M47.074 353.064 C 45.940 353.523,44.466 354.988,44.161 355.959 C 44.016 356.420,43.741 356.797,43.550 356.797 C 42.216 356.797,43.627 362.062,45.449 363.885 C 46.579 365.015,51.596 365.479,52.544 364.541 C 52.835 364.253,53.370 363.905,53.733 363.768 C 54.096 363.630,54.506 363.221,54.643 362.858 C 54.781 362.494,55.112 361.976,55.380 361.705 C 55.667 361.415,55.866 360.332,55.866 359.061 C 55.866 354.514,51.260 351.373,47.074 353.064 M61.097 353.174 C 56.865 355.315,56.645 362.444,60.743 364.637 C 63.211 365.958,69.473 364.039,68.760 362.181 C 68.261 360.881,65.394 361.066,64.410 362.461 C 64.033 362.996,61.185 361.336,60.946 360.442 C 59.995 356.892,62.906 354.053,65.448 356.052 C 67.280 357.493,69.784 356.156,68.308 354.524 C 66.716 352.765,63.205 352.107,61.097 353.174 M71.136 357.677 L 71.136 362.699 72.276 363.839 C 73.414 364.977,73.424 364.979,77.490 364.947 L 81.564 364.914 81.564 358.807 L 81.564 352.700 80.290 352.700 C 78.751 352.700,78.476 353.493,78.638 357.468 C 78.788 361.121,77.962 362.288,75.419 362.018 C 74.311 361.900,74.316 361.920,74.115 357.233 L 73.929 352.886 72.533 352.771 L 71.136 352.655 71.136 357.677 M84.998 353.022 C 84.639 353.244,84.549 354.718,84.627 359.060 L 84.730 364.804 86.313 364.919 L 87.896 365.034 87.896 361.156 C 87.896 357.209,88.625 355.307,90.139 355.307 C 90.669 355.307,91.620 356.247,91.620 356.770 C 91.620 356.990,91.788 357.169,91.993 357.169 C 92.217 357.169,92.365 358.729,92.365 361.103 L 92.365 365.036 93.762 364.920 L 95.158 364.804 95.386 360.794 C 95.620 356.674,96.146 355.307,97.500 355.307 C 98.946 355.307,99.441 356.746,99.441 360.951 L 99.441 364.991 101.147 364.991 L 102.852 364.991 102.730 360.214 C 102.628 356.271,102.493 355.325,101.955 354.787 C 101.597 354.430,101.304 353.994,101.304 353.820 C 101.304 352.566,95.608 352.451,94.692 353.687 C 94.197 354.355,94.164 354.353,93.630 353.631 C 93.043 352.839,86.088 352.348,84.998 353.022 M108.536 353.061 C 107.581 353.447,105.773 355.545,105.773 356.267 C 105.773 356.558,105.605 356.797,105.400 356.797 C 105.193 356.797,105.028 357.790,105.028 359.032 C 105.028 360.273,105.193 361.266,105.400 361.266 C 105.605 361.266,105.773 361.532,105.773 361.856 C 105.773 365.484,115.702 366.216,116.133 362.619 C 116.295 361.265,115.363 360.992,113.200 361.760 C 110.947 362.561,110.548 362.545,109.361 361.612 C 107.754 360.348,108.174 360.149,112.455 360.149 C 117.088 360.149,117.070 360.160,116.575 357.552 C 115.839 353.670,112.139 351.603,108.536 353.061 M119.181 358.845 L 119.181 364.991 120.484 364.991 L 121.788 364.991 121.788 361.626 C 121.788 354.169,126.423 352.439,126.867 359.730 C 127.181 364.883,127.219 364.991,128.739 364.991 L 130.069 364.991 129.921 360.235 C 129.715 353.599,126.996 350.883,122.805 353.126 C 122.208 353.446,121.974 353.446,121.868 353.126 C 121.790 352.892,121.153 352.700,120.453 352.700 L 119.181 352.700 119.181 358.845 M164.246 358.845 L 164.246 364.991 165.696 364.991 C 167.455 364.991,167.596 364.706,167.603 361.143 C 167.610 357.742,168.106 356.750,170.120 356.110 C 171.617 355.634,171.695 355.537,171.695 354.155 C 171.695 352.539,170.748 352.229,168.468 353.096 C 167.733 353.375,167.388 353.375,167.295 353.096 C 167.223 352.878,166.507 352.700,165.705 352.700 L 164.246 352.700 164.246 358.845 M176.909 352.962 C 176.174 353.230,174.302 354.983,174.302 355.404 C 174.302 355.585,174.050 355.984,173.743 356.292 C 173.374 356.661,173.184 357.589,173.184 359.032 C 173.184 360.474,173.374 361.402,173.743 361.772 C 174.050 362.079,174.302 362.486,174.302 362.675 C 174.302 366.085,183.719 365.539,185.056 362.051 C 187.297 356.207,182.549 350.910,176.909 352.962 M190.875 353.122 C 187.199 355.302,186.516 360.881,189.561 363.866 C 190.916 365.194,195.631 365.457,196.984 364.280 C 197.477 363.851,198.021 363.501,198.195 363.501 C 198.795 363.501,198.508 361.664,197.853 361.313 C 197.171 360.948,194.846 361.683,194.400 362.405 C 194.105 362.882,191.815 361.775,190.977 360.749 C 188.956 358.279,192.800 353.641,195.025 355.865 C 196.354 357.195,198.510 356.837,198.510 355.287 C 198.510 353.483,192.934 351.902,190.875 353.122 M203.403 353.353 C 202.714 353.711,201.876 354.507,201.541 355.121 C 201.205 355.736,200.805 356.294,200.652 356.363 C 200.225 356.552,200.315 361.639,200.745 361.639 C 200.950 361.639,201.117 361.869,201.117 362.150 C 201.117 364.828,208.164 366.046,210.565 363.783 C 212.199 362.242,210.456 360.378,208.510 361.584 C 208.131 361.819,207.516 362.200,207.144 362.431 C 206.598 362.770,206.166 362.661,204.909 361.868 C 202.541 360.373,202.895 360.149,207.635 360.149 L 211.918 360.149 211.916 359.125 C 211.906 354.193,207.514 351.215,203.403 353.353 M216.015 353.105 C 212.262 354.497,213.502 359.099,217.915 360.158 C 219.251 360.479,219.739 360.773,219.739 361.258 C 219.739 362.193,218.748 362.950,218.156 362.468 C 217.143 361.641,214.583 361.127,213.978 361.629 C 213.210 362.266,213.256 363.467,214.060 363.771 C 214.418 363.907,214.933 364.237,215.204 364.504 C 216.249 365.538,220.687 365.132,221.961 363.886 C 223.804 362.085,222.808 357.914,220.535 357.914 C 219.492 357.914,216.811 356.352,217.002 355.855 C 217.279 355.132,219.147 355.152,219.755 355.885 C 220.683 357.003,222.146 356.411,222.274 354.865 C 222.431 352.977,218.976 352.005,216.015 353.105 M227.374 353.052 C 223.494 354.641,224.724 359.133,229.330 360.191 C 231.427 360.673,231.892 361.453,230.573 362.276 C 229.996 362.637,229.570 362.580,228.311 361.971 C 225.400 360.565,223.601 362.182,225.945 364.099 C 228.792 366.429,234.630 364.644,234.635 361.442 C 234.637 360.186,232.844 357.914,231.850 357.914 C 230.683 357.914,228.319 356.449,228.544 355.865 C 228.822 355.139,230.153 355.152,231.208 355.891 C 232.610 356.873,233.687 356.460,233.818 354.891 C 233.968 353.097,230.019 351.970,227.374 353.052 M237.327 353.004 C 236.967 353.239,236.877 354.717,236.955 359.060 L 237.058 364.804 238.650 364.919 L 240.242 365.034 240.140 358.960 L 240.037 352.886 238.920 352.789 C 238.305 352.736,237.589 352.832,237.327 353.004 M243.779 352.993 C 243.667 353.105,243.575 355.850,243.575 359.094 L 243.575 364.991 245.251 364.991 L 246.927 364.991 246.927 360.961 C 246.927 357.124,246.972 356.893,247.861 356.119 C 250.221 354.068,251.480 355.663,251.700 360.982 L 251.866 365.030 253.214 364.917 L 254.562 364.804 254.668 360.810 C 254.793 356.100,254.101 354.127,252.026 353.270 C 250.870 352.792,244.204 352.568,243.779 352.993 M260.149 353.053 C 256.169 354.689,255.972 361.402,259.845 363.444 C 260.872 363.986,264.240 364.003,265.233 363.471 C 266.377 362.859,266.531 363.388,265.521 364.462 C 264.590 365.453,262.433 365.576,259.511 364.804 C 258.812 364.619,258.325 364.713,257.928 365.110 C 257.299 365.739,257.154 366.853,257.702 366.853 C 257.892 366.853,258.327 367.133,258.670 367.475 C 259.895 368.700,264.891 368.642,266.709 367.382 C 268.777 365.949,268.901 365.451,268.901 358.635 L 268.901 352.700 267.598 352.700 C 266.711 352.700,266.294 352.872,266.294 353.237 C 266.294 353.703,266.161 353.704,265.270 353.239 C 264.163 352.661,261.351 352.559,260.149 353.053 M295.834 353.687 C 293.979 354.889,293.110 356.596,293.110 359.032 C 293.110 360.773,294.045 363.501,294.642 363.501 C 294.794 363.501,295.212 363.794,295.571 364.153 C 296.987 365.569,301.608 365.291,303.447 363.680 C 309.381 358.478,302.458 349.392,295.834 353.687 M314.587 352.948 C 314.451 353.085,314.339 355.087,314.339 357.396 C 314.339 364.134,315.111 364.985,321.200 364.960 L 325.158 364.944 325.056 358.915 L 324.953 352.886 323.557 352.771 L 322.160 352.655 322.160 356.979 L 322.160 361.302 320.976 361.800 C 320.124 362.158,319.497 362.195,318.741 361.932 L 317.691 361.566 317.686 357.971 C 317.679 353.165,317.533 352.700,316.034 352.700 C 315.375 352.700,314.724 352.812,314.587 352.948 M337.967 353.182 C 337.865 353.447,337.828 356.171,337.885 359.234 L 337.989 364.804 339.385 364.920 L 340.782 365.036 340.782 358.868 L 340.782 352.700 339.467 352.700 C 338.734 352.700,338.070 352.914,337.967 353.182 M347.846 353.006 C 345.280 354.143,344.134 356.035,344.134 359.134 L 344.134 361.744 345.843 363.405 L 347.553 365.067 350.418 364.935 C 353.504 364.794,356.052 363.150,356.052 361.301 C 356.052 360.896,356.220 360.462,356.425 360.335 C 356.882 360.052,356.924 357.542,356.471 357.542 C 356.292 357.542,356.052 357.076,355.938 356.507 C 355.380 353.716,350.756 351.716,347.846 353.006 M358.884 352.972 C 358.761 353.095,358.659 355.850,358.659 359.094 L 358.659 364.991 360.335 364.991 L 362.011 364.991 362.011 361.130 C 362.011 357.789,362.115 357.138,362.783 356.289 C 364.849 353.663,366.853 356.315,366.853 361.674 L 366.853 364.991 368.117 364.991 C 369.684 364.991,369.837 364.628,369.816 360.957 C 369.776 353.928,368.949 352.917,363.159 352.816 C 360.932 352.778,359.008 352.848,358.884 352.972 M374.488 353.052 C 370.732 354.589,371.793 359.100,376.156 360.147 C 377.585 360.490,378.902 361.497,378.314 361.797 C 378.258 361.826,377.946 362.051,377.621 362.298 C 377.148 362.657,376.724 362.599,375.497 362.007 C 372.464 360.541,370.627 361.898,372.844 363.966 C 373.952 365.001,378.582 365.499,379.724 364.706 C 382.677 362.655,381.857 359.317,377.998 357.678 C 376.682 357.119,375.559 356.633,375.503 356.597 C 375.447 356.561,375.507 356.256,375.636 355.919 C 375.926 355.165,377.221 355.144,378.190 355.878 C 379.797 357.093,381.597 355.895,380.898 354.075 C 380.497 353.030,376.212 352.346,374.488 353.052 M50.652 355.655 C 50.652 355.846,50.977 356.105,51.374 356.231 C 53.512 356.910,53.071 361.228,50.791 361.928 C 47.241 363.018,45.024 359.254,47.548 356.421 C 48.505 355.347,50.652 354.817,50.652 355.655 M112.406 356.067 C 113.799 357.364,113.448 357.728,110.801 357.728 C 108.029 357.728,108.119 357.804,109.218 356.411 C 110.216 355.145,111.293 355.029,112.406 356.067 M180.837 355.911 C 183.408 357.596,183.178 361.110,180.437 362.015 C 177.199 363.083,174.965 358.656,177.538 356.270 C 178.741 355.155,179.548 355.067,180.837 355.911 M207.704 356.117 C 209.107 357.435,208.790 357.728,205.960 357.728 C 203.050 357.728,202.916 357.604,204.372 356.253 C 205.623 355.094,206.574 355.055,207.704 356.117 M264.991 356.145 C 266.601 357.188,266.770 358.853,265.414 360.316 C 263.606 362.267,259.945 360.975,259.975 358.397 C 259.987 357.264,260.724 356.052,261.400 356.052 C 261.634 356.052,261.825 355.885,261.825 355.680 C 261.825 355.015,263.664 355.286,264.991 356.145 M300.929 356.110 C 303.035 357.666,302.866 360.855,300.621 361.937 C 297.295 363.540,294.802 359.129,297.463 356.352 C 298.664 355.098,299.484 355.041,300.929 356.110 M352.301 356.696 C 354.709 359.618,352.417 363.155,348.908 361.932 C 346.813 361.201,346.382 358.097,348.138 356.386 C 349.642 354.920,350.915 355.015,352.301 356.696 " stroke="none" fill="#f4f4f4" fill-rule="evenodd"></path><path id="path4" d="M120.577 0.257 C 118.334 0.843,124.551 0.921,166.294 0.831 L 212.663 0.731 212.663 46.920 L 212.663 93.110 258.771 93.110 C 288.643 93.110,305.009 93.239,305.247 93.478 C 305.489 93.720,305.634 93.595,305.670 93.111 C 305.725 92.383,305.285 92.376,259.474 92.372 L 213.222 92.369 213.127 46.557 C 213.052 10.040,213.127 0.740,213.499 0.719 C 213.756 0.704,213.631 0.548,213.222 0.372 C 212.473 0.051,121.798 -0.062,120.577 0.257 M120.489 184.722 C 120.343 184.959,120.286 185.215,120.363 185.292 C 120.621 185.549,212.291 185.665,212.291 185.408 C 212.291 185.268,212.668 185.082,213.128 184.993 C 213.589 184.904,193.352 184.806,168.156 184.776 C 142.961 184.745,121.988 184.624,121.550 184.506 C 121.113 184.389,120.635 184.486,120.489 184.722 " stroke="none" fill="#e0e0ac" fill-rule="evenodd"></path></g></svg>