<svg xmlns="http://www.w3.org/2000/svg" width="400" height="156.185" viewBox="0 0 400 156"  fill-rule="evenodd" xmlns:v="https://vecta.io/nano"><path d="M32.036 11.959l-31.805.28c-.149.388 63.18 63.63 63.651 63.563l.368-.052.046-31.5-.336-32.273c-.116-.033-14.481-.041-31.924-.018" fill="#0c9cdc"/><path d="M.003 11.792c.001.371.056.54.134.417.195-.307 63.863-.309 64.058-.002.074.115.134 14.497.135 31.96v31.75l31.924.042 32.015.281c.162.421.521.11.431-.373-.079-.421-57.735-58.296-59.1-59.325-.274-.207-.442-.375-.372-.375.176 0-4.433-4.538-4.867-4.792-.282-.165-7.058-.208-32.359-.208H0l.003.625m158.211 101.665c.531.033 1.356.033 1.834-.001s.044-.061-.965-.06-1.399.028-.869.061m96.744 0c.573.032 1.511.032 2.084 0s.104-.059-1.042-.059-1.615.026-1.042.059m-12.666 2.994a2.36 2.36 0 0 0 .75 0c.206-.04.037-.072-.375-.072s-.582.032-.375.072m102.583-.003c.16.042.423.042.583 0s.03-.076-.291-.076-.452.034-.292.076m-160.333 19.834a1.4 1.4 0 0 0 .583 0c.16-.042.029-.077-.292-.077s-.452.035-.291.077m13.166.004c.252.038.665.038.917 0s.046-.069-.458-.069-.711.031-.459.069M0 139.905v.595h32.306l32.408-.103c.56-.56.353-.564-32.274-.564-28.792 0-31.942-.025-32.178-.262s-.262-.207-.262.334" fill="#f3f3f2"/><path d="M64.058 76.042c-.043.068.002.125.1.125.125 0 .164 9.41.135 31.812-.043 31.992-.04 32.188.484 32.188.179 0 2.056-1.986 2.056-2.176 0-.087.065-.139.145-.116s.835-.652 1.679-1.5 1.609-1.542 1.699-1.542.138-.056.106-.125.189-.362.49-.652.548-.493.548-.452.105-.021.233-.139.21-.24.182-.269c-.053-.056.86-.971 1.059-1.062.06-.028.353-.335.651-.681s.542-.588.542-.536.105-.001.233-.119.207-.242.176-.275.163-.246.433-.473.491-.519.491-.648.086-.235.192-.235c.237 0 2.808-2.571 2.808-2.808 0-.093.133-.212.296-.264s.407-.251.542-.444 1.352-1.448 2.705-2.792l3.58-3.565.731-.73 4.21-4.216c.194-.199.605-.603.912-.897s.646-.63.75-.748.622-.642 1.15-1.166l2.081-2.076.73-.731 4.936-4.936 6.21-6.119c.871-.839 1.789-1.691 2.04-1.892s.458-.473.459-.602.039-.199.085-.153c.106.106 9.083-8.85 9.083-9.06 0-.085.056-.127.125-.094s.551-.375 1.071-.907.929-.967.907-.967.753-.82 1.721-1.822l2.132-2.208.75-.759 1.5-1.5c.879-.867 1.151-1.242 1.064-1.469-.101-.264-64.05-.463-64.212-.2" fill="#a3d32b"/><path d="M178.375 52.61c-.115.047-.208.162-.208.258 0 .114.074.111.22-.01.137-.114 1.356-.202 3.209-.233l2.987-.05-3-.024c-1.65-.014-3.093.013-3.208.059m128.917.014h3.416c.94-.029.171-.054-1.708-.054l-1.708.054m32.583 0h3.25c.894-.03.162-.054-1.625-.054l-1.625.054m14.258 0h2.667c.706-.031.083-.057-1.383-.057l-1.284.057m14.481.001h6.5c1.816-.027.378-.049-3.197-.049l-3.303.049M40.491 98.937L8.792 130.623.167 139.451c0 .384.603.39 32.416.345l31.667-.046.084-63.529-.385-.176c-.359-.164-1.888 1.328-23.458 22.892" fill="#fcc304"/><path d="M215.778 37.278c-.061.061-.111 1.673-.111 3.583v3.472H235v52h7.5v-52h19.333v-3.482c0-3.021-.035-3.495-.263-3.583-.362-.139-45.653-.129-45.792.01m-60.986.67c-.277.072-.292 1.621-.292 29.564V97h3.512c2.821 0 3.559-.047 3.75-.238.417-.417.351-58.275-.067-58.653-.294-.267-5.99-.399-6.903-.161m203.564 1.775c-.127.153-.199 2.216-.229 6.542l-.044 6.318-2.826.046c-3.391.055-3.085-.272-3.088 3.296-.003 3.531-.288 3.242 3.198 3.242h2.8v13.666l.166 13.667c.092 0 .167.426.167.947 0 .937.417 2.821.691 3.128.078.087.142.293.142.458s.058.3.128.3.256.299.415.664c.355.821 1.821 2.405 2.663 2.878.345.194.628.414.628.489s.15.136.333.136.333.075.333.167.15.166.334.166.333.072.333.159.262.209.583.269.584.176.584.258.295.148.656.148.704.075.76.166.432.167.834.167.776.075.833.167c.136.22 4.03.22 4.167 0 .056-.092.436-.167.843-.167s.74-.075.74-.167.262-.166.583-.166.584-.065.584-.144.318-.189.708-.244c.765-.107 1.622-.452 1.624-.654 0-.069.18-.125.4-.125.564 0 .601-.202.601-3.25 0-3.357-.107-3.65-1.127-3.092-.593.325-3.045 1.009-3.615 1.009-.325 0-.591.056-.591.125 0 .259-4.115-.007-4.334-.28-.046-.058-.42-.252-.832-.433-1.206-.529-2.668-2.214-2.668-3.075 0-.17-.093-.341-.208-.379-.164-.055-.22-2.944-.261-13.514l-.054-13.444h13.651l.101-.375c.13-.488.13-5.262 0-5.75l-.101-.375h-13.628v-6.32c0-3.476-.045-6.438-.101-6.583-.139-.362-6.578-.4-6.876-.041M198.001 51.625c-.779.031-1.487.128-1.575.216s-.44.159-.783.159-.67.075-.726.167-.282.166-.5.166-.438.065-.487.145-.38.191-.735.248-.837.254-1.071.439-.546.335-.692.335-.265.075-.265.167-.113.166-.25.166-.25.075-.25.167-.095.167-.21.167-.413.187-.66.416-.518.417-.603.417c-.168 0-2.694 2.43-2.694 2.592 0 .055-.232.333-.516.616s-.579.672-.656.863c-.083.204-.144-1.052-.151-3.071l-.01-3.417-3.287.052c-1.994.032-3.371.122-3.5.229-.171.142-.213 4.454-.213 21.823v21.646h7v-12.74l.166-12.843c.092-.057.167-.624.167-1.26 0-.66.072-1.157.167-1.157s.166-.262.166-.583.075-.583.167-.583.167-.263.167-.584.071-.583.159-.583.208-.263.268-.583.176-.584.258-.584.148-.15.148-.333.075-.333.167-.333.166-.079.166-.175.169-.357.375-.581c.988-1.072 1.125-1.244 1.125-1.405 0-.095.079-.173.175-.173s.357-.168.581-.375c1.054-.97 1.241-1.125 1.363-1.125.072-.001.642-.263 1.266-.584s1.319-.582 1.542-.582.407-.075.407-.167.262-.167.583-.167.583-.075.583-.166c0-.104.973-.167 2.584-.167s2.583.063 2.583.167c0 .091.262.166.583.166s.584.075.584.167.23.167.512.167.625.113.763.251.312.214.386.169.227.028.34.165.309.248.436.248.229.075.229.167.123.166.272.166.413.162.585.361.481.444.686.546.473.393.594.646.365.55.542.66.321.301.321.423.103.324.229.45.33.571.453.988.283.76.355.76.13.112.13.25.075.25.167.25.166.256.166.569.094.601.209.639c.164.055.218 3.192.257 14.764l.05 14.694h7.151V81.157l-.192-15.058c-.107.066-.148.047-.092-.044.216-.35-.443-3.39-.96-4.426-.141-.282-.256-.605-.256-.718s-.113-.297-.25-.411-.25-.316-.25-.449-.225-.568-.5-.968-.5-.789-.5-.865c0-.198-.817-1.051-1.007-1.051-.088 0-.16-.118-.16-.262 0-.293.004-.289-1.501-1.59-.595-.514-1.251-.987-1.457-1.053s-.375-.188-.375-.273-.113-.156-.25-.156-.25-.075-.25-.166-.144-.167-.319-.167-.345-.056-.375-.125c-.086-.192-1.277-.708-1.635-.708-.175 0-.364-.075-.421-.167s-.319-.167-.583-.167-.522-.067-.573-.149-.374-.189-.718-.238l-1.209-.17c-1.008-.14-3.194-.211-4.666-.151m79.833.007c-.778.027-1.487.121-1.575.209s-.44.159-.782.159-.67.075-.727.167-.25.166-.429.166a1.65 1.65 0 0 0-.615.144c-.159.078-.702.27-1.206.425-1.067.329-2.333.93-2.333 1.106 0 .067-.195.171-.434.231-.47.118-1.321.67-1.752 1.136-.149.16-.36.292-.469.292-.302 0-4.179 3.927-4.179 4.233 0 .147-.076.267-.169.267s-.295.262-.448.583-.339.583-.414.583-.135.113-.135.25-.075.25-.167.25-.167.118-.167.262-.112.375-.25.512-.25.426-.25.641-.056.416-.125.446-.302.431-.518.889l-.534 1.111c-.077.152-.191.658-.253 1.125s-.178.848-.258.848-.145.258-.145.573-.075.62-.167.677-.166.431-.166.833-.075.777-.167.833c-.103.064-.167 1.585-.167 4.01 0 2.494.061 3.907.167 3.907.092 0 .167.371.167.823s.075.87.166.927.167.361.167.677.07.573.155.573.206.412.269.917.181.916.262.916.147.188.147.417.075.417.167.417.167.15.167.333.075.333.166.333.167.113.167.25.079.25.177.25.136.065.087.144c-.111.18.496 1.459.896 1.887.163.175.437.591.61.924.486.94 3.827 4.545 4.212 4.545.101 0 .185.07.185.155s.296.285.658.445.628.342.59.404.133.218.382.346.49.275.536.325c.161.179 1.304.659 1.567.659.147 0 .267.075.267.166s.112.167.25.167.25.075.25.167.15.166.333.166.333.068.333.151.375.203.833.266.876.183.927.266.276.151.5.151.407.075.407.166.406.167.903.167c.536 0 .929.078.967.193.09.27 7.403.267 7.673-.003.105-.105.55-.19.99-.19s.8-.075.8-.167.263-.166.584-.166.583-.066.583-.146.319-.195.708-.256c.801-.126 1.625-.45 1.625-.639 0-.069.188-.126.417-.126s.417-.075.417-.167.145-.166.323-.166.369-.073.424-.163.378-.293.718-.452.762-.424.939-.586.458-.339.625-.392.304-.166.304-.252.1-.155.223-.155.564-.338.983-.75.809-.75.869-.75.629-.519 1.266-1.152c1.461-1.453 1.478-1.672.212-2.774-.521-.453-1.261-1.124-1.643-1.491-1.698-1.626-1.646-1.616-2.763-.53-.493.48-1.197 1.095-1.564 1.368s-.812.627-.989.787-.422.292-.542.292-.219.066-.219.147-.131.192-.291.248-.517.238-.792.406-.913.447-1.417.62-.988.372-1.075.446-.368.133-.625.133-.466.075-.466.166-.333.167-.74.167-.787.075-.844.167c-.062.1-1.224.166-2.926.166-1.771 0-2.824-.062-2.824-.166 0-.092-.3-.167-.666-.167s-.667-.075-.667-.167-.225-.166-.5-.166-.5-.075-.5-.167-.146-.167-.323-.167-.367-.069-.419-.154-.319-.203-.593-.263-.498-.16-.498-.222-.239-.218-.53-.347-.669-.354-.839-.499-.331-.227-.358-.181c-.087.149-3.273-3.193-3.273-3.433 0-.129-.075-.234-.167-.234s-.167-.107-.167-.238-.098-.337-.218-.458-.326-.464-.458-.762-.295-.542-.364-.542-.126-.141-.126-.314-.112-.529-.249-.792-.25-.642-.25-.842-.076-.412-.168-.469-.167-.394-.167-.75-.075-.693-.166-.75-.167-.361-.167-.676v-.574h33.974l.112-.512c.15-.683-.089-6.137-.274-6.251-.08-.049-.145-.493-.145-.987s-.075-.943-.167-1-.167-.27-.167-.474c0-.412-.423-2.17-.647-2.692l-.477-1.084-.646-1.456c-.172-.389-.369-.707-.438-.708s-.125-.152-.125-.336-.075-.333-.167-.333-.166-.104-.166-.231-.266-.618-.591-1.09c-.727-1.057-1.194-1.629-2.358-2.893-.379-.411-.975-.962-1.325-1.225s-.849-.679-1.111-.925a4.75 4.75 0 0 0-1.211-.75c-.405-.166-.737-.359-.737-.428s-.113-.125-.251-.125-.25-.056-.25-.126c0-.139-.499-.364-1.75-.788-.458-.155-.963-.35-1.122-.434s-.516-.152-.792-.152-.502-.075-.502-.166-.268-.167-.595-.167-.72-.065-.875-.145c-.327-.169-3.32-.293-5.363-.223m27.362.905c-.394.395-.219 1.069.429 1.652.344.309.649.671.678.804s.235.424.458.647.406.474.406.557.187.339.416.568.417.477.417.551.225.37.5.658.5.581.5.651.188.331.417.578.416.493.416.547.188.286.417.515.417.477.417.551.225.37.5.658.5.567.5.62.093.195.208.316.358.427.542.681.539.682.791.952.459.588.459.706.224.391.498.607.499.474.5.572.264.473.585.833.583.722.583.803.188.322.417.534.417.483.418.602.226.394.5.61.499.48.499.585c0 .239.789 1.105 1.006 1.105.088 0 .16.132.16.293s.188.496.417.743.417.5.417.562.137.234.305.382c.946.835.892 1.685-.158 2.52-.058.046-.284.348-.503.672s-.492.699-.607.834c-.771.896-1.037 1.271-1.037 1.462 0 .12-.075.172-.167.115s-.167.005-.167.137-.213.456-.474.719-.862 1.003-1.336 1.644-.995 1.317-1.159 1.5-.517.634-.783 1-.543.692-.616.723-.132.127-.132.215-.187.348-.416.577-.417.478-.417.552-.225.369-.5.657-.5.565-.5.615c0 .089-.182.328-.625.822-.115.128-.208.278-.208.335s-.169.283-.375.504c-.552.59-.792.891-.792.995 0 .05-.225.327-.5.615s-.5.584-.5.657-.17.307-.378.517-.933 1.152-1.612 2.091-1.288 1.709-1.353 1.709c-.169 0-.318.655-.211.932.116.303 7.721.353 7.721.051 0-.101.225-.393.5-.65s.5-.542.5-.633.206-.386.458-.657a12.16 12.16 0 0 0 .792-.953c.183-.253.427-.559.541-.68s.209-.263.209-.317.225-.332.5-.62.5-.597.5-.688.225-.381.5-.644.5-.533.5-.601.226-.363.5-.656.5-.62.5-.726.187-.341.416-.521.418-.454.419-.608.225-.457.5-.673.498-.465.498-.553.262-.435.582-.773.582-.673.583-.746.189-.32.418-.549.417-.496.417-.593.225-.385.5-.642.5-.542.5-.633.206-.387.458-.657.609-.699.792-.953a31.54 31.54 0 0 1 .607-.813l.273-.352.518.555c.285.305.519.629.519.72s.225.376.5.633.5.553.5.658.187.365.416.577.417.492.417.622.156.346.347.481.465.47.608.745.4.621.57.77.308.322.308.386.262.392.582.73.583.674.584.747.189.32.418.549.416.495.416.592.225.386.5.643.5.517.5.578.094.217.209.344c.461.514.625.736.625.843 0 .062.139.234.308.382s.426.494.57.769.416.611.608.745.347.352.347.481.188.41.417.622.416.453.416.534.3.463.667.848.667.768.667.849c0 .604.451.671 4.512.671h3.988v-.415c0-.229-.146-.585-.324-.792l-.635-.74c-.172-.201-.457-.565-.635-.811a8.7 8.7 0 0 0-.531-.665c-.115-.121-.209-.263-.209-.316s-.225-.332-.5-.62-.5-.584-.5-.658-.187-.322-.416-.551-.417-.489-.417-.577a.25.25 0 0 0-.135-.216c-.12-.049-.936-1.085-1.948-2.472a76.36 76.36 0 0 0-1.084-1.417c-.412-.528-.825-1.081-.916-1.23a2.27 2.27 0 0 0-.259-.353c-.051-.046-.313-.383-.583-.75a17.71 17.71 0 0 0-.949-1.167c-.252-.275-.458-.553-.459-.617s-.188-.305-.417-.534-.417-.463-.417-.52-.093-.201-.208-.322-.354-.42-.531-.665a13.15 13.15 0 0 0-.594-.758c-.149-.172-.416-.514-.594-.761a8.96 8.96 0 0 0-.698-.836c-.206-.214-.375-.467-.375-.562s-.07-.175-.155-.175-.199-.136-.251-.302-.358-.588-.678-.938-.582-.686-.582-.749-.158-.284-.351-.491c-.351-.377-.351-.377-.02-.74.183-.2.382-.528.443-.729s.246-.41.41-.462.402-.299.53-.55a3.79 3.79 0 0 1 .61-.822c.208-.202.378-.43.378-.507s.262-.419.583-.759.583-.694.583-.787.263-.424.584-.736.583-.655.583-.764.225-.407.5-.664.5-.515.5-.574c0-.117.221-.399.792-1.009.206-.221.375-.48.375-.576s.056-.175.125-.175.309-.272.535-.604.619-.826.875-1.099.465-.565.465-.647.296-.454.659-.828.705-.824.761-1 .172-.321.258-.321.155-.085.155-.189.135-.31.3-.458.522-.569.792-.935.66-.838.866-1.049.375-.437.376-.502.173-.319.385-.565a16.58 16.58 0 0 0 .709-.894c.177-.245.416-.544.53-.665s.209-.265.209-.322.193-.296.429-.532c.596-.597.291-1.918-.324-1.407-.175.145-1.183.194-3.584.174-3.319-.027-3.855.055-3.855.59 0 .056-.187.29-.416.519s-.417.477-.417.551-.225.37-.5.658-.5.57-.5.627c0 .1-.528.756-1.427 1.777-.223.254-.408.516-.41.583s-.264.422-.583.787-.58.73-.58.81-.187.292-.417.472-.416.454-.416.609-.189.423-.419.596a3.91 3.91 0 0 0-.784.915c-.201.33-.5.698-.665.818s-.299.326-.299.458-.056.241-.125.242-.306.267-.528.593-.614.831-.872 1.123-.471.62-.472.727-.061.22-.131.25-.426.428-.792.884c-1.088 1.359-1.147 1.422-1.325 1.418-.095-.002-.397-.339-.672-.75s-.556-.746-.625-.746-.125-.079-.125-.175-.187-.361-.416-.59-.417-.478-.417-.552-.225-.369-.5-.657-.501-.58-.503-.65-.207-.359-.458-.643a15.71 15.71 0 0 1-.789-.977 8.53 8.53 0 0 0-.542-.68c-.114-.12-.208-.291-.208-.379s-.224-.337-.498-.554-.5-.476-.5-.577-.189-.387-.419-.634-.416-.51-.416-.584-.263-.413-.584-.754-.583-.674-.583-.741-.131-.269-.292-.447a17.19 17.19 0 0 1-.785-.99c-.272-.366-.572-.747-.667-.845s-.36-.454-.589-.791-.473-.612-.542-.613-.125-.079-.125-.175-.169-.348-.375-.561-.452-.518-.545-.677c-.154-.264-.504-.289-3.723-.265-2.221.017-3.63-.037-3.759-.144-.142-.118-.267-.11-.402.025m-23.071 5.799c.848.12 1.542.281 1.542.358s.187.139.416.139.417.075.417.167.106.167.235.167c.401 0 1.985.89 2.583 1.451.314.294.633.496.71.448s.207.092.29.31.413.667.734.997.634.757.694.948.18.346.265.346.156.085.156.188.155.324.344.488.333.323.32.353c-.071.155.226.971.354.971.081 0 .148.135.148.3 0 .372.373 1.197.542 1.198.069.001.125.258.125.571s.076.595.169.626.216.677.275 1.436.17 1.419.248 1.468c.576.356-.915.401-13.275.401H266v-.75c0-.413.075-.75.167-.75s.166-.263.166-.584.07-.583.155-.583.206-.413.269-.917.181-.916.262-.916.148-.188.148-.417.075-.417.166-.417.167-.115.167-.257.153-.421.34-.621.385-.547.441-.771c.104-.412.28-.662 1.094-1.552.252-.275.458-.553.458-.617 0-.219 1.083-1.287 1.625-1.604.298-.174.542-.375.542-.447s.125-.131.278-.131.232-.045.177-.1c-.112-.112 1.675-1.061 2.003-1.064.115-.001.209-.077.209-.169s.181-.167.402-.167.428-.063.459-.14c.209-.529 3.944-.731 6.597-.357m39.583 55.08c-.114.13-.208.652-.208 1.16v.924h2.333v-.903c0-1.344-.065-1.431-1.059-1.424-.525.004-.938.098-1.066.243m-164.892.095c-.09.056-.135 2.641-.11 6.25l.044 6.156 2.667.047c2.542.044 4.083-.144 4.083-.5 0-.072.188-.131.417-.131s.416-.075.416-.166a.17.17 0 0 1 .171-.167c.812 0 2.829-2.39 2.829-3.352 0-.173.075-.315.167-.315.099 0 .167-.635.167-1.573 0-.869-.075-1.62-.167-1.677s-.167-.248-.167-.426-.075-.324-.166-.324-.167-.124-.167-.276c0-.531-1.647-2.382-2.125-2.388-.115-.001-.208-.077-.208-.169s-.15-.167-.334-.167-.333-.066-.333-.147c0-.464-6.532-1.078-7.184-.675m96.744.073c-.035.092-.045 2.905-.02 6.25l.043 6.083h1.819l.143-.667c.079-.367.119-1.315.091-2.108l-.053-1.441 2.445-.06c2.289-.055 2.466-.083 2.77-.433.178-.206.371-.375.429-.375.204 0 .94-.73.94-.933 0-.113.093-.237.208-.275.151-.05.208-.612.208-2.042s-.057-1.991-.208-2.041c-.115-.039-.208-.163-.208-.276 0-.234-.75-.933-1.002-.933-.091 0-.165-.075-.165-.166s-.15-.167-.333-.167-.334-.065-.334-.145c0-.362-6.635-.627-6.773-.271m-13.761 1.624l-.049 1.209-.5.005c-.496.005-.5.014-.55 1.042l-.049 1.036h1.182v3.083c0 1.905.063 3.084.164 3.084.09 0 .21.188.268.417.153.608 1.091 1 2.357.987 1.55-.017 1.878-.253 1.878-1.349 0-.983.066-.941-1.384-.891-1.258.044-1.283-.012-1.283-2.851v-2.48h2.667v-.986c0-1.151-.009-1.157-1.542-1.056l-1.125.074V114h-1.985l-.049 1.208m-77.799.44c0 .081.323.196.717.255.429.064.812.24.953.436.131.18.321.328.423.328s.272.187.377.416.266.417.36.417.17.144.17.319.086.348.191.383c.494.165.114 3.631-.398 3.631-.07 0-.126.113-.126.25s-.07.25-.156.25-.203.15-.261.334-.216.333-.35.333-.417.112-.626.25c-.479.314-1.122.425-3.066.531l-1.541.085V115.5h1.666c.917 0 1.667.066 1.667.148m96.833.019c0 .091.198.166.441.166.521 0 1.393.834 1.393 1.332 0 .184.093.341.208.348.167.011.167.03 0 .097-.115.047-.208.228-.208.403 0 1.133-1.359 1.713-3.917 1.672l-1.167-.018V115.5h1.625c.973 0 1.625.067 1.625.167m-85.926.849c-.051.083-.239.151-.417.151s-.323.075-.323.166-.155.167-.344.167-.296.075-.24.167.035.166-.048.166c-.255 0-1.202.987-1.202 1.252 0 .136-.067.248-.148.248-.138 0-.227.248-.481 1.334-.103.439-.095 1.91.013 2.333.259 1.012.373 1.282.643 1.52.169.148.307.32.307.382 0 .18.8.931.992.931.096 0 .174.075.174.167s.144.167.32.167.35.093.388.207c.102.304 2.876.278 3.626-.033.794-.331 2.5-2.022 2.5-2.48 0-.199.075-.361.166-.361.247 0 .211-3.172-.041-3.715-.115-.247-.265-.45-.334-.45s-.125-.115-.125-.253c0-.331-.823-1.249-1.12-1.249-.128 0-.186-.075-.13-.166s-.051-.167-.24-.167-.343-.075-.343-.167-.146-.166-.323-.166-.366-.068-.417-.151-.693-.151-1.427-.151-1.375.068-1.426.151m11.01.035c-.184.11-.371.245-.417.302s-.241.151-.434.211c-1.553.485-2.991 4.419-2.123 5.809.072.116.152.347.178.514.112.72 1.785 2.28 2.445 2.28.132 0 .271.093.309.208.136.407 3.116.274 3.734-.167.289-.206.578-.375.642-.375.241 0 1.082-1.049 1.082-1.351 0-.682-1.293-1.369-1.644-.874-.915 1.293-3.308.988-4.564-.581-.478-.597-.281-2.854.25-2.859.069-.001.125-.143.125-.317 0-.197.156-.354.417-.419.229-.058.416-.179.416-.269 0-.391 2.234-.181 2.703.254.247.229.565.416.707.416s.257.075.257.167c0 .311.376.169.772-.292.618-.718.428-1.875-.307-1.875-.123 0-.333-.15-.465-.333s-.407-.333-.61-.333-.417-.075-.473-.167c-.144-.232-2.594-.19-3 .051m7.409.023c-.366.366-.191 6.695.209 7.553.375.805.675 1.206.901 1.206.069 0 .298.162.508.359.455.428 3.382.581 3.514.183.038-.115.214-.208.389-.208s.32-.075.32-.167.075-.167.166-.167.167.15.167.334c0 .343 1.073.487 1.736.232.352-.135.406-9.318.056-9.43-.115-.037-.546-.06-.959-.052l-.75.014-.046 2.822c-.025 1.552-.119 2.895-.208 2.985a.64.64 0 0 0-.162.391c0 1.13-2.491 1.671-3.386.737l-.448-.468v-3.106c0-2.304-.053-3.139-.208-3.235-.298-.184-1.61-.172-1.799.017m10.84.01c-.111.134-.156 1.822-.127 4.77l.044 4.563h1.834l.046-2.663c.025-1.465.119-2.736.208-2.825s.162-.341.162-.558c0-1.031 2.03-1.866 2.759-1.136.13.129.33.267.447.305.157.053.232.934.294 3.474l.084 3.403.65.053c.358.029.827.009 1.042-.045l.391-.098v-2.9c0-3.691.283-4.427 1.705-4.427 1.054 0 1.605.306 1.729.96.057.299.17.585.252.635s.147 1.399.147 2.998V126h.828c.673 0 .863-.066 1.017-.355.275-.514.151-6.841-.136-6.937-.115-.038-.209-.207-.209-.375 0-.491-1.175-1.586-1.936-1.804-1.21-.345-3.057-.137-3.062.346-.001.069-.124.125-.274.125s-.41.159-.578.353l-.305.352-.437-.519c-.241-.286-.576-.519-.746-.519s-.355-.075-.412-.167c-.307-.498-2.488-.117-3.101.542-.369.396-.482.367-.482-.125 0-.229-.056-.425-.125-.434-.833-.112-1.568-.069-1.709.101m18.733-.055c-.047.076-.231.138-.409.138s-.323.075-.323.166-.086.167-.191.167c-.331 0-1.643 1.532-1.643 1.919 0 .136-.065.248-.145.248-.424 0-.514 3.612-.098 3.933.131.101.192.229.135.286-.29.291 1.445 2.115 2.275 2.392 1.56.52 3.512.463 4.14-.123.19-.177.434-.322.542-.322.696 0 1.081-1.543.513-2.057-.421-.381-.753-.346-1.331.141-.273.229-.65.416-.839.416s-.546.093-.796.207c-.36.164-.467.164-.521 0-.038-.114-.258-.207-.488-.207-.694 0-1.887-1.101-1.887-1.741 0-.051 1.538-.092 3.417-.092h3.417v-.573c0-.316-.075-.62-.167-.677s-.167-.436-.167-.843-.065-.74-.145-.74-.188-.207-.24-.459c-.099-.489-1.119-1.708-1.429-1.708-.102 0-.186-.059-.186-.13 0-.412-3.194-.729-3.434-.341m7.789.016c-.13.131-.188 1.573-.188 4.721 0 5.072-.09 4.734 1.264 4.734h.736v-2.75c0-1.722.062-2.75.167-2.75.091 0 .166-.187.166-.417s.075-.416.167-.416.167-.113.167-.25c0-.572.627-.917 1.666-.917.55 0 1 .07 1 .155s.142.201.316.256c.435.138.508.695.528 4.048.021 3.245-.034 3.13 1.422 3.011l.651-.053.046-3.5c.048-3.655.019-3.849-.713-4.73-.63-.759-.98-1.02-1.364-1.02-.212 0-.386-.075-.386-.167s-.496-.167-1.156-.167c-.637 0-1.204.075-1.26.167s-.232.167-.39.167-.395.15-.527.333c-.324.449-.5.42-.5-.083 0-.316-.091-.422-.375-.436-.206-.01-.571-.043-.812-.072s-.521.032-.625.136m36.086.186c-.238.293-.274.897-.274 4.63 0 4.868-.047 4.71 1.381 4.607l.702-.051.116-2.664c.07-1.624.184-2.686.291-2.722.097-.032.177-.127.177-.211 0-.356 1.308-1.487 1.72-1.487.235 0 .473-.075.53-.166s.248-.167.426-.167c.288 0 .324-.122.324-1.096v-1.096l-.709.048c-.733.049-1.728.489-2.288 1.01-.44.41-.476.389-.535-.306-.064-.755-1.334-.98-1.861-.329m9.628.081c-.95.52-1.735 1.168-1.735 1.431 0 .101-.15.292-.334.424s-.333.406-.333.61-.075.416-.167.473-.166.769-.166 1.583.075 1.527.166 1.584.167.269.167.473.15.478.333.61.334.304.334.382c0 .184.434.618.618.618.078 0 .25.15.382.333s.358.334.503.334a.78.78 0 0 1 .472.208c.691.692 4.671-.025 4.946-.89.056-.175.16-.318.231-.318.248 0 .848-.624.848-.881 0-.142.093-.289.208-.328.35-.116.386-3.329.048-4.215-.286-.748-1.226-1.91-1.546-1.91-.1 0-.208-.056-.238-.125-.393-.883-3.39-1.134-4.737-.396m11.848-.312c-.057.092-.249.167-.427.167s-.323.075-.323.166-.118.167-.263.167c-.307 0-1.57 1.301-1.57 1.618 0 .118-.075.215-.167.215s-.167.15-.167.334-.075.333-.166.333c-.101 0-.167.694-.167 1.75s.066 1.75.167 1.75c.091 0 .166.188.166.417s.058.416.129.416.27.263.443.584.425.583.56.583.37.143.522.319c.653.752 4.266 1.172 4.483.521.032-.095.202-.173.377-.173s.32-.075.32-.167a.17.17 0 0 1 .172-.167c.464 0 1.328-1.15 1.152-1.535-.357-.784-1.265-.975-2.011-.423-1.268.938-3.429.553-4.048-.72-.349-.717-.323-2.83.036-2.95.109-.036.199-.21.199-.386 0-.187.115-.319.278-.319.153 0 .411-.12.573-.266.631-.572 2.372-.26 3.267.585.559.528 1.548-.121 1.548-1.016 0-.465-1.27-1.636-1.775-1.636-.204 0-.418-.075-.475-.167s-.694-.167-1.416-.167-1.36.075-1.417.167m9.45.194c-.302.17-.71.458-.906.641s-.41.332-.476.332c-.167 0-.818 1.135-.818 1.426 0 .132-.075.24-.167.24s-.166.296-.166.657-.075.703-.167.76-.167.286-.167.51.075.407.167.407.167.337.167.75.065.75.146.75.188.215.241.478c.114.571 1.51 2.022 1.945 2.022.169 0 .338.093.376.208.258.773 4.606-.029 4.883-.899.054-.17.243-.309.42-.309.478 0 .412-.699-.117-1.228-.549-.548-.933-.553-1.63-.022-.3.229-.671.416-.824.416s-.427.093-.609.207a.5.5 0 0 1-.662 0 1.5 1.5 0 0 0-.667-.207c-.185 0-.336-.075-.336-.166s-.099-.167-.222-.167-.322-.187-.444-.417-.286-.416-.362-.416-.138-.15-.138-.334c0-.322.111-.333 3.333-.333 3.722 0 3.392.126 3.338-1.267-.032-.82-.353-1.809-.73-2.249-.151-.177-.275-.383-.275-.458 0-1.167-3.712-2.13-5.133-1.332m9.967-.169c0 .078-.136.142-.301.142-.448 0-1.464 1.01-1.591 1.583l-.199.889c-.165.732.46 2.028.978 2.028.134 0 .287.112.34.25.056.146.305.25.601.25.278 0 .505.075.505.166s.188.167.417.167.416.075.416.167.15.166.334.166.333.067.333.149.192.197.427.256c.572.143.531.983-.052 1.065-.206.03-.375.123-.375.209 0 .208-.62.198-.75-.012-.057-.092-.284-.167-.505-.167s-.746-.167-1.166-.371c-.703-.341-.799-.35-1.213-.119-.538.301-.777 1.657-.292 1.657.143 0 .26.056.261.125.001.146.805.542 1.101.542.112 0 .234.093.272.208.097.289 3.322.284 3.419-.006.037-.111.139-.202.226-.202.298 0 1.314-1.156 1.314-1.495 0-.186.075-.339.166-.339.294 0 .178-1.28-.175-1.942-.406-.761-1.077-1.228-2.325-1.618-1.331-.415-2.918-1.273-2.355-1.273.104 0 .189-.112.189-.25 0-.153.156-.25.402-.25.222 0 .447-.094.5-.208.078-.167.117-.167.195 0 .053.114.335.211.625.214s.715.113.944.244c.57.326 1.5.326 1.5 0 0-.138.075-.25.167-.25.65 0-.052-1.483-.708-1.495-.161-.003-.292-.08-.292-.172s-.183-.166-.407-.166-.455-.079-.515-.175c-.128-.208-2.411-.176-2.411.033m8.416.168c-.766.396-1.582 1.259-1.583 1.674 0 .156-.088.477-.195.713-.15.328-.15.475 0 .625.107.107.195.301.195.431 0 .335 1.167 1.361 1.665 1.464.23.048.549.157.708.243s.44.157.625.157.335.075.335.167.15.166.334.166.333.075.333.167.08.167.179.167c.653 0 .784.953.153 1.118-.182.048-.332.153-.332.234 0 .203-.79.187-.917-.019-.056-.092-.282-.167-.501-.167s-.747-.186-1.174-.413c-1.013-.538-1.908-.056-1.908 1.028 0 .388.524.796.755.588.072-.066.078-.026.012.089-.074.129-.021.208.14.208.143 0 .26.075.26.167s.172.167.383.167.476.092.589.206c.992.991 4.861-.315 4.861-1.641 0-.219.075-.399.167-.399s.166-.337.166-.75-.075-.75-.166-.75-.167-.131-.167-.291c-.001-.609-1.432-1.709-2.224-1.709-.141 0-.303-.075-.359-.166s-.324-.167-.594-.167-.49-.075-.49-.167-.101-.166-.224-.166-.342-.132-.487-.292c-.327-.362-.03-.875.507-.875.189 0 .387-.094.44-.208.078-.167.117-.167.195 0 .053.114.307.208.564.208s.682.112.945.249c1.047.546 1.727.202 1.727-.874 0-.504-.975-1.208-1.673-1.208-.169 0-.354-.075-.41-.167-.191-.309-2.117-.178-2.834.193m7.836-.223c-.047.047-.086 2.211-.086 4.808V126h.737c1.354 0 1.263.34 1.263-4.747 0-3.437-.05-4.586-.208-4.711-.213-.17-1.552-.226-1.706-.072m4.766.229c-.123.198-.185 1.767-.185 4.712v4.416l.391.098c.215.054.684.074 1.042.045l.65-.053.084-3.07c.061-2.246.139-3.088.291-3.139.115-.038.209-.208.209-.377s.15-.356.333-.414.333-.176.333-.262.432-.153.959-.149c1.013.005 1.708.37 1.708.896 0 .145.073.265.163.265.099 0 .181 1.23.208 3.125l.046 3.125h1.833l.045-3.542c.025-2.006-.02-3.542-.104-3.542s-.192-.213-.244-.474c-.326-1.631-3.264-2.592-4.979-1.628l-.707.397-.172-.344c-.235-.468-1.626-.53-1.904-.085m12.998-.121c-.312.113-.658.329-.769.48s-.292.275-.403.275c-.296 0-.655.409-1.109 1.262-.43.809-.619 4.072-.235 4.072.091 0 .166.107.166.238s.098.337.218.458.267.352.328.512.394.423.741.584.655.347.686.416.199.125.375.125.319.075.319.167.469.166 1.073.166c.591 0 1.12-.075 1.177-.166s.249-.167.427-.167.323-.059.323-.13c0-.152 1.026-.566 1.134-.458.306.305-.404 1.331-1.243 1.796-.593.329-2.631.412-2.815.114-.06-.098-.212-.139-.338-.091s-.272.016-.326-.072-.244-.159-.422-.159-.323-.067-.323-.149c0-.391-.583-.339-.948.085-.572.666-.491 1.731.132 1.731.174 0 .316.075.316.166s.15.167.333.167.333.075.333.167.183.166.407.166.453.075.51.167.804.167 1.667.167 1.61-.075 1.666-.167.249-.167.427-.167.323-.075.323-.166.079-.167.175-.167.351-.169.567-.375a12.05 12.05 0 0 1 .715-.625c.81-.631.877-1.083.877-5.942 0-2.919-.06-4.563-.167-4.571-.092-.007-.467-.013-.833-.013s-.742.006-.834.013-.166.201-.166.43c0 .387-.235.576-.361.291-.318-.714-2.828-1.098-4.123-.63M222.5 118.333c0 .092.174.167.387.167.416 0 1.113.679 1.113 1.085 0 .136.075.248.167.248s.166.113.166.25c0 .21-.361.25-2.25.25-1.389 0-2.25-.063-2.25-.166 0-.092.075-.167.167-.167s.167-.118.167-.263c0-.38.914-1.237 1.32-1.237.191 0 .346-.075.346-.167s.15-.166.334-.166.333.075.333.166m75.167 0c0 .092.187.167.416.167s.417.07.417.155.136.199.303.252c.247.078.864 1.042.864 1.349 0 .042-1.019.077-2.264.077-1.752 0-2.242-.047-2.167-.208.053-.115.143-.34.2-.5s.169-.292.25-.292.147-.085.147-.19c0-.277.527-.632.949-.638.201-.003.411-.08.468-.172s.174-.166.26-.166.157.075.157.166m-122.167.351c0 .082.101.149.224.149.255 0 .976.578.862.692-.04.041.037.441.172.889.64 2.129-.346 3.455-2.567 3.452-2.926-.004-3.415-5.119-.515-5.395.823-.078 1.824.039 1.824.213m102.295.052c.967.789 1.372 1.557 1.372 2.602 0 .863-.043.951-.934 1.928-.843.925-3.9.698-3.9-.289 0-.092-.12-.288-.266-.434-.329-.329-.276-2.723.063-2.836.112-.038.203-.212.203-.388 0-.201.116-.319.313-.319a.76.76 0 0 0 .513-.24c.343-.414 2.138-.43 2.636-.024m65.204.074c1.875 1.188 1.325 4.19-.767 4.19-.3 0-.596.082-.658.181-.08.131-.162.131-.293 0-.099-.099-.391-.181-.648-.181s-.466-.075-.466-.167-.1-.166-.222-.166-.322-.188-.445-.417-.285-.417-.361-.417c-.216 0-.163-1.548.069-2.048.115-.247.265-.45.334-.45s.125-.114.125-.252a.25.25 0 0 1 .25-.25c.137 0 .25-.07.25-.156 0-.383 2.179-.28 2.832.133m-163.666 14.2c0 .097-.075.13-.166.073-.259-.16-.226 12.291.033 12.55.304.305 1.576.257 1.699-.063.055-.145.101-3.07.101-6.5v-6.237h-.833c-.476 0-.834.076-.834.177m-19.958.189c-.481.088-.875.229-.875.314s-.117.154-.259.154c-1.226 0-2.44 3.241-1.699 4.535.688 1.204 1.637 1.965 2.45 1.965.188 0 .341.075.341.166s.258.167.574.167.62.075.676.167.319.166.584.166.521.067.572.149.288.197.53.258c1.181.296 1.165 2.26-.019 2.26-.138 0-.25.075-.25.167s-.5.166-1.167.166-1.166-.071-1.166-.166-.132-.172-.292-.179-.517-.158-.792-.335-.631-.369-.791-.424-.292-.167-.292-.248c0-.301-.695-.134-1.091.261-.494.494-.561 1.379-.117 1.543.16.06.404.23.541.378.956 1.031 5.523 1.697 6.183.902a.74.74 0 0 1 .504-.232c.173 0 .313-.075.313-.166s.079-.167.175-.167c.209 0 .828-.627 1.117-1.132.279-.487.267-2.551-.018-3.1-.264-.508-1.193-1.435-1.439-1.435-.092 0-.168-.065-.168-.145 0-.119-.557-.314-1.194-.42-.062-.01-.168-.074-.237-.143s-.333-.125-.587-.125-.509-.075-.565-.167-.324-.166-.594-.166-.49-.075-.49-.167-.136-.167-.302-.167-.474-.16-.684-.356c-.688-.641-.204-1.977.715-1.977.23 0 .465-.075.521-.167.13-.209.829-.216 1.211-.012.159.086.645.292 1.08.459s.792.36.792.428c.002.307 1.041.1 1.425-.284 1.502-1.502-1.971-3.317-5.216-2.725m42.803.037c-.115.139-.175.635-.145 1.208l.05.973.737.052c1.393.1 1.513.004 1.513-1.204 0-1.197-.067-1.265-1.243-1.265-.414 0-.798.099-.912.236M195.167 135v1.333h-.58c-1.083 0-1.126 2.046-.045 2.135l.625.052v2.818c0 3.996.324 4.501 2.88 4.49 1.542-.007 1.786-.183 1.786-1.287 0-.868-.224-1.151-.681-.861-.368.232-1.484.179-1.747-.085-.185-.184-.238-.784-.238-2.666V138.5h1.069c1.551 0 1.597-.034 1.597-1.177v-.976l-2.583-.097-.051-1.077c-.062-1.339-.198-1.506-1.219-1.506h-.813V135m-24.1 1.193c-.048.077-.217.14-.377.14-.365 0-1.187.375-1.189.542 0 .069-.1.125-.222.125-.249 0-.946.686-.946.932 0 .089-.15.269-.333.401s-.333.412-.333.62-.075.38-.167.38-.167.268-.167.595-.075.734-.167.906c-.111.209-.111.347 0 .416.092.057.167.436.167.843s.066.74.146.74.188.211.24.468c.184.922 2.072 2.532 2.969 2.532.205 0 .633.094.952.209.465.166.595.166.651 0 .039-.115.317-.209.619-.209.687 0 1.57-.363 2.007-.825a22.53 22.53 0 0 1 .708-.71c.206-.197.375-.457.375-.578s.075-.22.167-.22.166-.146.166-.323.075-.37.167-.427c.197-.122.229-3.417.033-3.417-.073 0-.228-.262-.344-.583s-.281-.583-.366-.583-.156-.099-.156-.22c0-.245-.743-.947-1.002-.947-.091 0-.165-.075-.165-.167s-.15-.166-.333-.166-.334-.075-.334-.167-.175-.167-.389-.167-.444-.055-.512-.123c-.173-.173-1.76-.187-1.865-.017m38.933.095l-.875.319c-.16.054-.292.165-.292.246s-.099.147-.221.147c-.249 0-.945.686-.945.932 0 .089-.15.269-.334.401s-.333.397-.333.587-.083.43-.185.532c-.245.244-.24 3.267.005 3.349.099.033.18.178.18.322 0 .275.639 1.189 1.291 1.847.211.212.7.485 1.088.605 2.046.636 2.127.652 2.326.453.107-.107.396-.195.641-.195 1.04 0 3.297-1.697 3.323-2.5.005-.137.118-.395.253-.573.583-.771.169-3.744-.619-4.446-.167-.148-.303-.361-.303-.474 0-.245-.667-.827-.958-.834-.115-.004-.209-.081-.209-.173s-.15-.166-.333-.166-.333-.066-.333-.146c0-.391-2.297-.56-3.167-.233m11.394.109c-.354.194-.669.409-.7.478-.12.272-.527.105-.527-.217 0-.308-.088-.337-.869-.292-1.122.065-1.094-.053-1.115 4.751-.02 4.611.016 4.756 1.139 4.683l.761-.05.042-2.5c.023-1.375.111-2.65.195-2.833s.202-.554.262-.824c.194-.887.85-1.213 2.251-1.116.867.06 1.167.195 1.167.526 0 .182.075.33.167.33.105 0 .166 1.115.166 3.012 0 3.436.019 3.488 1.238 3.488h.762v-3.666c0-2.017-.065-3.667-.145-3.667s-.192-.227-.247-.504c-.114-.567-.792-1.329-1.183-1.329-.142 0-.258-.066-.258-.146 0-.474-2.3-.566-3.106-.124m9.856-.23c-.057.091-.286.166-.51.166s-.407.075-.407.167-.121.167-.269.167c-.413 0-1.225 1.019-1.228 1.541-.001.252-.078.459-.169.459s-.167.22-.167.49.075.536.167.593.166.236.166.397c0 .352.601.936 1.125 1.095.207.063.375.184.375.269s.188.156.417.156.417.075.417.166.183.167.406.167.454.075.51.167.248.166.425.166c.738 0 1.216.8.754 1.262-.278.278-2.429.341-2.429.072 0-.092-.15-.167-.333-.167s-.333-.066-.333-.147c0-.174-.644-.404-.994-.356-.67.093-1.231 1.309-.798 1.729 1.588 1.544 6.625 1.444 6.625-.131 0-.144.075-.262.167-.262s.166-.187.166-.416.075-.417.167-.417.167-.258.167-.573-.075-.62-.167-.677-.167-.214-.167-.349c0-.319-1.082-1.401-1.401-1.401-.135 0-.289-.071-.343-.157s-.433-.207-.843-.269-.746-.178-.746-.26-.15-.147-.333-.147-.334-.075-.334-.167-.08-.167-.178-.167c-.193 0-.734-.483-.633-.565.449-.363 1.273-.591 1.639-.453a6.78 6.78 0 0 0 1.047.263c.344.057.625.175.625.263s.156.159.346.159c.369 0 .821-.361.821-.655 0-.098.075-.178.167-.178s.166-.263.166-.584c0-.472-.063-.583-.333-.583-.183 0-.333-.059-.333-.13s-.357-.227-.792-.345-.922-.284-1.081-.369c-.384-.207-1.414-.2-1.544.011m-28.928.354c-.342.639-.19 8.949.167 9.14.463.248 1.328.212 1.606-.066.376-.376.35-8.795-.029-9.109-.408-.339-1.556-.316-1.744.035m-18.489 3.329c0 2.98.044 3.609.287 4.125.304.643.927 1.358 1.185 1.358.085 0 .248.113.362.25s.461.25.772.25.724.094.918.209c.283.166.368.166.429 0 .041-.115.299-.209.572-.209.582 0 1.16-.271 1.383-.649.134-.226.174-.202.257.149.086.362.203.424.886.468 1.305.084 1.283.166 1.283-4.692 0-5.074.074-4.776-1.185-4.776H190v2.721c0 2.623-.281 4.434-.652 4.205-.066-.041-.226.072-.354.25-.245.339-1.994.495-1.994.177 0-.081-.156-.188-.346-.238s-.386-.245-.436-.436-.156-.345-.237-.345-.148-1.425-.148-3.167v-3.167h-2v3.517m-10.847-1.317c1.923.555 2.216 3.941.431 4.984-2.168 1.266-4.3-.494-3.896-3.218.174-1.178 1.696-2.336 2.646-2.014a26.75 26.75 0 0 0 .819.248m39.314-.029c.303.072.695.307.872.522l.492.592c.093.111.169.279.169.375s.075.174.167.174.167.335.167.745c0 1.008-.881 2.588-1.443 2.588-.123 0-.224.075-.224.167 0 .24-1.935.206-2.371-.042-.495-.282-.796-.568-.796-.759 0-.087-.112-.252-.25-.366-.607-.504-.268-2.791.538-3.635.278-.291 1.564-.687 1.879-.579.137.047.498.145.8.218" fill="#747474"/></svg>